SplineFontDB: 3.2
FontName: DejaPro-LightItalic
FullName: DejaPro Light Italic
FamilyName: DejaPro Light
Weight: Light
Copyright: Property of Defensecorps.
UComments: "2023-7-26: Created with FontForge (http://fontforge.org)"
Version: 20230726
ItalicAngle: -12
UnderlinePosition: -237
UnderlineWidth: 119
Ascent: 1638
Descent: 410
InvalidEm: 0
LayerCount: 2
Layer: 0 1 "Back" 1
Layer: 1 1 "Fore" 0
XUID: [1021 164 111113757 18505]
StyleMap: 0x0001
FSType: 0
OS2Version: 0
OS2_WeightWidthSlopeOnly: 0
OS2_UseTypoMetrics: 1
CreationTime: 1690353932
ModificationTime: 1690359483
PfmFamily: 17
TTFWeight: 300
TTFWidth: 5
LineGap: 0
VLineGap: 0
OS2TypoAscent: 1491
OS2TypoAOffset: 0
OS2TypoDescent: -431
OS2TypoDOffset: 0
OS2TypoLinegap: 269
OS2WinAscent: 2210
OS2WinAOffset: 0
OS2WinDescent: 514
OS2WinDOffset: 0
HheadAscent: 2210
HheadAOffset: 0
HheadDescent: -514
HheadDOffset: 0
OS2SubXSize: 1434
OS2SubYSize: 1331
OS2SubXOff: 0
OS2SubYOff: 283
OS2SupXSize: 1434
OS2SupYSize: 1331
OS2SupXOff: 0
OS2SupYOff: 977
OS2StrikeYSize: 102
OS2StrikeYPos: 530
OS2CapHeight: 1434
OS2XHeight: 1024
OS2Vendor: 'PfEd'
Lookup: 4 0 0 "SegoeUI-SemilightItalic-'ccmp' Glyph Composition/Decomposition lookup 0" { "SegoeUI-SemilightItalic-'ccmp' Glyph Composition/Decomposition lookup 0 subtable"  } ['ccmp' ('cyrl' <'MKD ' 'SRB ' 'dflt' > 'grek' <'dflt' > 'latn' <'dflt' > ) ]
Lookup: 6 256 0 "SegoeUI-SemilightItalic-'ccmp' Glyph Composition/Decomposition lookup 1" { "SegoeUI-SemilightItalic-'ccmp' Glyph Composition/Decomposition lookup 1 subtable"  } ['ccmp' ('cyrl' <'MKD ' 'SRB ' 'dflt' > 'grek' <'dflt' > 'latn' <'dflt' > ) ]
Lookup: 1 0 0 "SegoeUI-SemilightItalic-'subs' Subscript lookup 2" { "SegoeUI-SemilightItalic-'subs' Subscript lookup 2 subtable"  } ['subs' ('cyrl' <'MKD ' 'SRB ' 'dflt' > 'grek' <'dflt' > 'latn' <'dflt' > ) ]

StartChar: SF100000
Encoding: 9472 9472 0
Width: 1024
Flags: W
LayerCount: 2
Fore
SplineSet
-10 463 m 1,0,-1
 -10 597 l 1,1,-1
 1034 597 l 1,2,-1
 1034 463 l 1,3,-1
 -10 463 l 1,0,-1
EndSplineSet
EndChar

StartChar: uni2501
Encoding: 9473 9473 1
Width: 1024
Flags: W
LayerCount: 2
Fore
SplineSet
-10 423 m 1,0,-1
 -10 637 l 1,1,-1
 1034 637 l 1,2,-1
 1034 423 l 1,3,-1
 -10 423 l 1,0,-1
EndSplineSet
EndChar

StartChar: SF110000
Encoding: 9474 9474 2
Width: 1024
Flags: W
LayerCount: 2
Fore
SplineSet
445 1501 m 1,0,-1
 579 1501 l 1,1,-1
 579 -440 l 1,2,-1
 445 -440 l 1,3,-1
 445 1501 l 1,0,-1
EndSplineSet
EndChar

StartChar: uni2503
Encoding: 9475 9475 3
Width: 1024
Flags: W
LayerCount: 2
Fore
SplineSet
405 1501 m 1,0,-1
 619 1501 l 1,1,-1
 619 -440 l 1,2,-1
 405 -440 l 1,3,-1
 405 1501 l 1,0,-1
EndSplineSet
EndChar

StartChar: uni2504
Encoding: 9476 9476 4
Width: 1024
Flags: W
LayerCount: 2
Fore
SplineSet
385 597 m 1,0,-1
 639 597 l 1,1,-1
 639 463 l 1,2,-1
 385 463 l 1,3,-1
 385 597 l 1,0,-1
-10 597 m 1,4,-1
 244 597 l 1,5,-1
 244 463 l 1,6,-1
 -10 463 l 1,7,-1
 -10 597 l 1,4,-1
780 597 m 1,8,-1
 1034 597 l 1,9,-1
 1034 463 l 1,10,-1
 780 463 l 1,11,-1
 780 597 l 1,8,-1
EndSplineSet
EndChar

StartChar: uni2505
Encoding: 9477 9477 5
Width: 1024
Flags: W
LayerCount: 2
Fore
SplineSet
385 637 m 1,0,-1
 639 637 l 1,1,-1
 639 423 l 1,2,-1
 385 423 l 1,3,-1
 385 637 l 1,0,-1
-10 637 m 1,4,-1
 244 637 l 1,5,-1
 244 423 l 1,6,-1
 -10 423 l 1,7,-1
 -10 637 l 1,4,-1
780 637 m 1,8,-1
 1034 637 l 1,9,-1
 1034 423 l 1,10,-1
 780 423 l 1,11,-1
 780 637 l 1,8,-1
EndSplineSet
EndChar

StartChar: uni2506
Encoding: 9478 9478 6
Width: 1024
Flags: W
LayerCount: 2
Fore
SplineSet
445 64 m 1,0,-1
 579 64 l 1,1,-1
 579 -440 l 1,2,-1
 445 -440 l 1,3,-1
 445 64 l 1,0,-1
579 279 m 1,4,-1
 445 279 l 1,5,-1
 445 782 l 1,6,-1
 579 782 l 1,7,-1
 579 279 l 1,4,-1
579 997 m 1,8,-1
 445 997 l 1,9,-1
 445 1501 l 1,10,-1
 579 1501 l 1,11,-1
 579 997 l 1,8,-1
EndSplineSet
EndChar

StartChar: uni2507
Encoding: 9479 9479 7
Width: 1024
Flags: W
LayerCount: 2
Fore
SplineSet
405 64 m 1,0,-1
 619 64 l 1,1,-1
 619 -440 l 1,2,-1
 405 -440 l 1,3,-1
 405 64 l 1,0,-1
619 279 m 1,4,-1
 405 279 l 1,5,-1
 405 782 l 1,6,-1
 619 782 l 1,7,-1
 619 279 l 1,4,-1
619 997 m 1,8,-1
 405 997 l 1,9,-1
 405 1501 l 1,10,-1
 619 1501 l 1,11,-1
 619 997 l 1,8,-1
EndSplineSet
EndChar

StartChar: uni2508
Encoding: 9480 9480 8
Width: 1024
Flags: W
LayerCount: 2
Fore
SplineSet
-10 597 m 1,0,-1
 139 597 l 1,1,-1
 139 463 l 1,2,-1
 -10 463 l 1,3,-1
 -10 597 l 1,0,-1
288 597 m 1,4,-1
 437 597 l 1,5,-1
 437 463 l 1,6,-1
 288 463 l 1,7,-1
 288 597 l 1,4,-1
587 597 m 1,8,-1
 736 597 l 1,9,-1
 736 463 l 1,10,-1
 587 463 l 1,11,-1
 587 597 l 1,8,-1
885 597 m 1,12,-1
 1034 597 l 1,13,-1
 1034 463 l 1,14,-1
 885 463 l 1,15,-1
 885 597 l 1,12,-1
EndSplineSet
EndChar

StartChar: uni2509
Encoding: 9481 9481 9
Width: 1024
Flags: W
LayerCount: 2
Fore
SplineSet
-10 637 m 1,0,-1
 139 637 l 1,1,-1
 139 423 l 1,2,-1
 -10 423 l 1,3,-1
 -10 637 l 1,0,-1
288 637 m 1,4,-1
 437 637 l 1,5,-1
 437 423 l 1,6,-1
 288 423 l 1,7,-1
 288 637 l 1,4,-1
587 637 m 1,8,-1
 736 637 l 1,9,-1
 736 423 l 1,10,-1
 587 423 l 1,11,-1
 587 637 l 1,8,-1
885 637 m 1,12,-1
 1034 637 l 1,13,-1
 1034 423 l 1,14,-1
 885 423 l 1,15,-1
 885 637 l 1,12,-1
EndSplineSet
EndChar

StartChar: uni250A
Encoding: 9482 9482 10
Width: 1024
Flags: W
LayerCount: 2
Fore
SplineSet
445 -106 m 1,0,-1
 579 -106 l 1,1,-1
 579 -440 l 1,2,-1
 445 -440 l 1,3,-1
 445 -106 l 1,0,-1
579 106 m 1,4,-1
 445 106 l 1,5,-1
 445 430 l 1,6,-1
 579 430 l 1,7,-1
 579 106 l 1,4,-1
579 1177 m 1,8,-1
 445 1177 l 1,9,-1
 445 1501 l 1,10,-1
 579 1501 l 1,11,-1
 579 1177 l 1,8,-1
579 641 m 1,12,-1
 445 641 l 1,13,-1
 445 965 l 1,14,-1
 579 965 l 1,15,-1
 579 641 l 1,12,-1
EndSplineSet
EndChar

StartChar: uni250B
Encoding: 9483 9483 11
Width: 1024
Flags: W
LayerCount: 2
Fore
SplineSet
405 -106 m 1,0,-1
 619 -106 l 1,1,-1
 619 -440 l 1,2,-1
 405 -440 l 1,3,-1
 405 -106 l 1,0,-1
619 106 m 1,4,-1
 405 106 l 1,5,-1
 405 430 l 1,6,-1
 619 430 l 1,7,-1
 619 106 l 1,4,-1
619 1177 m 1,8,-1
 405 1177 l 1,9,-1
 405 1501 l 1,10,-1
 619 1501 l 1,11,-1
 619 1177 l 1,8,-1
619 641 m 1,12,-1
 405 641 l 1,13,-1
 405 965 l 1,14,-1
 619 965 l 1,15,-1
 619 641 l 1,12,-1
EndSplineSet
EndChar

StartChar: SF010000
Encoding: 9484 9484 12
Width: 1024
Flags: W
LayerCount: 2
Fore
SplineSet
579 463 m 1,0,-1
 579 -440 l 1,1,-1
 445 -440 l 1,2,-1
 445 597 l 1,3,-1
 1034 597 l 1,4,-1
 1034 463 l 1,5,-1
 579 463 l 1,0,-1
EndSplineSet
EndChar

StartChar: uni250D
Encoding: 9485 9485 13
Width: 1024
Flags: W
LayerCount: 2
Fore
SplineSet
579 423 m 1,0,-1
 579 -440 l 1,1,-1
 445 -440 l 1,2,-1
 445 637 l 1,3,-1
 1034 637 l 1,4,-1
 1034 423 l 1,5,-1
 579 423 l 1,0,-1
EndSplineSet
EndChar

StartChar: uni250E
Encoding: 9486 9486 14
Width: 1024
Flags: W
LayerCount: 2
Fore
SplineSet
619 463 m 1,0,-1
 619 -440 l 1,1,-1
 405 -440 l 1,2,-1
 405 597 l 1,3,-1
 1034 597 l 1,4,-1
 1034 463 l 1,5,-1
 619 463 l 1,0,-1
EndSplineSet
EndChar

StartChar: uni250F
Encoding: 9487 9487 15
Width: 1024
Flags: W
LayerCount: 2
Fore
SplineSet
619 423 m 1,0,-1
 619 -440 l 1,1,-1
 405 -440 l 1,2,-1
 405 637 l 1,3,-1
 1034 637 l 1,4,-1
 1034 423 l 1,5,-1
 619 423 l 1,0,-1
EndSplineSet
EndChar

StartChar: SF030000
Encoding: 9488 9488 16
Width: 1024
Flags: W
LayerCount: 2
Fore
SplineSet
-10 463 m 1,0,-1
 -10 597 l 1,1,-1
 579 597 l 1,2,-1
 579 -440 l 1,3,-1
 445 -440 l 1,4,-1
 445 463 l 1,5,-1
 -10 463 l 1,0,-1
EndSplineSet
EndChar

StartChar: uni2511
Encoding: 9489 9489 17
Width: 1024
Flags: W
LayerCount: 2
Fore
SplineSet
-10 423 m 1,0,-1
 -10 637 l 1,1,-1
 579 637 l 1,2,-1
 579 -440 l 1,3,-1
 445 -440 l 1,4,-1
 445 423 l 1,5,-1
 -10 423 l 1,0,-1
EndSplineSet
EndChar

StartChar: uni2512
Encoding: 9490 9490 18
Width: 1024
Flags: W
LayerCount: 2
Fore
SplineSet
-10 463 m 1,0,-1
 -10 597 l 1,1,-1
 619 597 l 1,2,-1
 619 -440 l 1,3,-1
 405 -440 l 1,4,-1
 405 463 l 1,5,-1
 -10 463 l 1,0,-1
EndSplineSet
EndChar

StartChar: uni2513
Encoding: 9491 9491 19
Width: 1024
Flags: W
LayerCount: 2
Fore
SplineSet
-10 423 m 1,0,-1
 -10 637 l 1,1,-1
 619 637 l 1,2,-1
 619 -440 l 1,3,-1
 405 -440 l 1,4,-1
 405 423 l 1,5,-1
 -10 423 l 1,0,-1
EndSplineSet
EndChar

StartChar: SF020000
Encoding: 9492 9492 20
Width: 1024
Flags: W
LayerCount: 2
Fore
SplineSet
445 1501 m 1,0,-1
 579 1501 l 1,1,-1
 579 597 l 1,2,-1
 1034 597 l 1,3,-1
 1034 463 l 1,4,-1
 445 463 l 1,5,-1
 445 1501 l 1,0,-1
EndSplineSet
EndChar

StartChar: uni2515
Encoding: 9493 9493 21
Width: 1024
Flags: W
LayerCount: 2
Fore
SplineSet
445 1501 m 1,0,-1
 579 1501 l 1,1,-1
 579 637 l 1,2,-1
 1034 637 l 1,3,-1
 1034 423 l 1,4,-1
 445 423 l 1,5,-1
 445 1501 l 1,0,-1
EndSplineSet
EndChar

StartChar: uni2516
Encoding: 9494 9494 22
Width: 1024
Flags: W
LayerCount: 2
Fore
SplineSet
405 1501 m 1,0,-1
 619 1501 l 1,1,-1
 619 597 l 1,2,-1
 1034 597 l 1,3,-1
 1034 463 l 1,4,-1
 405 463 l 1,5,-1
 405 1501 l 1,0,-1
EndSplineSet
EndChar

StartChar: uni2517
Encoding: 9495 9495 23
Width: 1024
Flags: W
LayerCount: 2
Fore
SplineSet
405 1501 m 1,0,-1
 619 1501 l 1,1,-1
 619 637 l 1,2,-1
 1034 637 l 1,3,-1
 1034 423 l 1,4,-1
 405 423 l 1,5,-1
 405 1501 l 1,0,-1
EndSplineSet
EndChar

StartChar: SF040000
Encoding: 9496 9496 24
Width: 1024
Flags: W
LayerCount: 2
Fore
SplineSet
579 463 m 1,0,-1
 -10 463 l 1,1,-1
 -10 597 l 1,2,-1
 445 597 l 1,3,-1
 445 1501 l 1,4,-1
 579 1501 l 1,5,-1
 579 463 l 1,0,-1
EndSplineSet
EndChar

StartChar: uni2519
Encoding: 9497 9497 25
Width: 1024
Flags: W
LayerCount: 2
Fore
SplineSet
579 423 m 1,0,-1
 -10 423 l 1,1,-1
 -10 637 l 1,2,-1
 445 637 l 1,3,-1
 445 1501 l 1,4,-1
 579 1501 l 1,5,-1
 579 423 l 1,0,-1
EndSplineSet
EndChar

StartChar: uni251A
Encoding: 9498 9498 26
Width: 1024
Flags: W
LayerCount: 2
Fore
SplineSet
619 463 m 1,0,-1
 -10 463 l 1,1,-1
 -10 597 l 1,2,-1
 405 597 l 1,3,-1
 405 1501 l 1,4,-1
 619 1501 l 1,5,-1
 619 463 l 1,0,-1
EndSplineSet
EndChar

StartChar: uni251B
Encoding: 9499 9499 27
Width: 1024
Flags: W
LayerCount: 2
Fore
SplineSet
619 423 m 1,0,-1
 -10 423 l 1,1,-1
 -10 637 l 1,2,-1
 405 637 l 1,3,-1
 405 1501 l 1,4,-1
 619 1501 l 1,5,-1
 619 423 l 1,0,-1
EndSplineSet
EndChar

StartChar: SF080000
Encoding: 9500 9500 28
Width: 1024
Flags: W
LayerCount: 2
Fore
SplineSet
579 463 m 1,0,-1
 579 -440 l 1,1,-1
 445 -440 l 1,2,-1
 445 1501 l 1,3,-1
 579 1501 l 1,4,-1
 579 597 l 1,5,-1
 1034 597 l 1,6,-1
 1034 463 l 1,7,-1
 579 463 l 1,0,-1
EndSplineSet
EndChar

StartChar: uni251D
Encoding: 9501 9501 29
Width: 1024
Flags: W
LayerCount: 2
Fore
SplineSet
579 423 m 1,0,-1
 579 -440 l 1,1,-1
 445 -440 l 1,2,-1
 445 1501 l 1,3,-1
 579 1501 l 1,4,-1
 579 637 l 1,5,-1
 1034 637 l 1,6,-1
 1034 423 l 1,7,-1
 579 423 l 1,0,-1
EndSplineSet
EndChar

StartChar: uni251E
Encoding: 9502 9502 30
Width: 1024
Flags: W
LayerCount: 2
Fore
SplineSet
579 463 m 1,0,-1
 579 -440 l 1,1,-1
 445 -440 l 1,2,-1
 445 463 l 1,3,-1
 405 463 l 1,4,-1
 405 1501 l 1,5,-1
 619 1501 l 1,6,-1
 619 597 l 1,7,-1
 1034 597 l 1,8,-1
 1034 463 l 1,9,-1
 579 463 l 1,0,-1
EndSplineSet
EndChar

StartChar: uni251F
Encoding: 9503 9503 31
Width: 1024
Flags: W
LayerCount: 2
Fore
SplineSet
619 463 m 1,0,-1
 619 -440 l 1,1,-1
 405 -440 l 1,2,-1
 405 597 l 1,3,-1
 445 597 l 1,4,-1
 445 1501 l 1,5,-1
 579 1501 l 1,6,-1
 579 597 l 1,7,-1
 1034 597 l 1,8,-1
 1034 463 l 1,9,-1
 619 463 l 1,0,-1
EndSplineSet
EndChar

StartChar: uni2520
Encoding: 9504 9504 32
Width: 1024
Flags: W
LayerCount: 2
Fore
SplineSet
619 463 m 1,0,-1
 619 -440 l 1,1,-1
 405 -440 l 1,2,-1
 405 1501 l 1,3,-1
 619 1501 l 1,4,-1
 619 597 l 1,5,-1
 1034 597 l 1,6,-1
 1034 463 l 1,7,-1
 619 463 l 1,0,-1
EndSplineSet
EndChar

StartChar: uni2521
Encoding: 9505 9505 33
Width: 1024
Flags: W
LayerCount: 2
Fore
SplineSet
579 423 m 1,0,-1
 579 -438 l 1,1,-1
 445 -438 l 1,2,-1
 445 423 l 1,3,-1
 405 423 l 1,4,-1
 405 1501 l 1,5,-1
 619 1501 l 1,6,-1
 619 637 l 1,7,-1
 1034 637 l 1,8,-1
 1034 423 l 1,9,-1
 579 423 l 1,0,-1
EndSplineSet
EndChar

StartChar: uni2522
Encoding: 9506 9506 34
Width: 1024
Flags: W
LayerCount: 2
Fore
SplineSet
405 637 m 1,0,-1
 445 637 l 1,1,-1
 445 1501 l 1,2,-1
 579 1501 l 1,3,-1
 579 637 l 1,4,-1
 1034 637 l 1,5,-1
 1034 423 l 1,6,-1
 619 423 l 1,7,-1
 619 -441 l 1,8,-1
 405 -441 l 1,9,-1
 405 637 l 1,0,-1
EndSplineSet
EndChar

StartChar: uni2523
Encoding: 9507 9507 35
Width: 1024
Flags: W
LayerCount: 2
Fore
SplineSet
1034 637 m 1,0,-1
 1034 423 l 1,1,-1
 619 423 l 1,2,-1
 619 -441 l 1,3,-1
 405 -441 l 1,4,-1
 405 1501 l 1,5,-1
 619 1501 l 1,6,-1
 619 637 l 1,7,-1
 1034 637 l 1,0,-1
EndSplineSet
EndChar

StartChar: SF090000
Encoding: 9508 9508 36
Width: 1024
Flags: W
LayerCount: 2
Fore
SplineSet
445 463 m 1,0,-1
 -10 463 l 1,1,-1
 -10 597 l 1,2,-1
 445 597 l 1,3,-1
 445 1501 l 1,4,-1
 579 1501 l 1,5,-1
 579 -440 l 1,6,-1
 445 -440 l 1,7,-1
 445 463 l 1,0,-1
EndSplineSet
EndChar

StartChar: uni2525
Encoding: 9509 9509 37
Width: 1024
Flags: W
LayerCount: 2
Fore
SplineSet
445 423 m 1,0,-1
 -10 423 l 1,1,-1
 -10 637 l 1,2,-1
 445 637 l 1,3,-1
 445 1501 l 1,4,-1
 579 1501 l 1,5,-1
 579 -440 l 1,6,-1
 445 -440 l 1,7,-1
 445 423 l 1,0,-1
EndSplineSet
EndChar

StartChar: uni2526
Encoding: 9510 9510 38
Width: 1024
Flags: W
LayerCount: 2
Fore
SplineSet
579 463 m 1,0,-1
 579 -440 l 1,1,-1
 445 -440 l 1,2,-1
 445 463 l 1,3,-1
 -10 463 l 1,4,-1
 -10 597 l 1,5,-1
 405 597 l 1,6,-1
 405 1501 l 1,7,-1
 619 1501 l 1,8,-1
 619 463 l 1,9,-1
 579 463 l 1,0,-1
EndSplineSet
EndChar

StartChar: uni2527
Encoding: 9511 9511 39
Width: 1024
Flags: W
LayerCount: 2
Fore
SplineSet
619 597 m 1,0,-1
 619 -440 l 1,1,-1
 405 -440 l 1,2,-1
 405 463 l 1,3,-1
 -10 463 l 1,4,-1
 -10 597 l 1,5,-1
 445 597 l 1,6,-1
 445 1501 l 1,7,-1
 579 1501 l 1,8,-1
 579 597 l 1,9,-1
 619 597 l 1,0,-1
EndSplineSet
EndChar

StartChar: uni2528
Encoding: 9512 9512 40
Width: 1024
Flags: W
LayerCount: 2
Fore
SplineSet
405 463 m 1,0,-1
 -10 463 l 1,1,-1
 -10 597 l 1,2,-1
 405 597 l 1,3,-1
 405 1501 l 1,4,-1
 619 1501 l 1,5,-1
 619 -440 l 1,6,-1
 405 -440 l 1,7,-1
 405 463 l 1,0,-1
EndSplineSet
EndChar

StartChar: uni2529
Encoding: 9513 9513 41
Width: 1024
Flags: W
LayerCount: 2
Fore
SplineSet
405 1501 m 1,0,-1
 619 1501 l 1,1,-1
 619 423 l 1,2,-1
 579 423 l 1,3,-1
 579 -440 l 1,4,-1
 445 -440 l 1,5,-1
 445 423 l 1,6,-1
 -10 423 l 1,7,-1
 -10 637 l 1,8,-1
 405 637 l 1,9,-1
 405 1501 l 1,0,-1
EndSplineSet
EndChar

StartChar: uni252A
Encoding: 9514 9514 42
Width: 1024
Flags: W
LayerCount: 2
Fore
SplineSet
405 423 m 1,0,-1
 -10 423 l 1,1,-1
 -10 637 l 1,2,-1
 445 637 l 1,3,-1
 445 1501 l 1,4,-1
 579 1501 l 1,5,-1
 579 637 l 1,6,-1
 619 637 l 1,7,-1
 619 -440 l 1,8,-1
 405 -440 l 1,9,-1
 405 423 l 1,0,-1
EndSplineSet
EndChar

StartChar: uni252B
Encoding: 9515 9515 43
Width: 1024
Flags: W
LayerCount: 2
Fore
SplineSet
405 423 m 1,0,-1
 -10 423 l 1,1,-1
 -10 637 l 1,2,-1
 405 637 l 1,3,-1
 405 1501 l 1,4,-1
 619 1501 l 1,5,-1
 619 -440 l 1,6,-1
 405 -440 l 1,7,-1
 405 423 l 1,0,-1
EndSplineSet
EndChar

StartChar: SF060000
Encoding: 9516 9516 44
Width: 1024
Flags: W
LayerCount: 2
Fore
SplineSet
579 463 m 1,0,-1
 579 -440 l 1,1,-1
 445 -440 l 1,2,-1
 445 463 l 1,3,-1
 -10 463 l 1,4,-1
 -10 597 l 1,5,-1
 1034 597 l 1,6,-1
 1034 463 l 1,7,-1
 579 463 l 1,0,-1
EndSplineSet
EndChar

StartChar: uni252D
Encoding: 9517 9517 45
Width: 1024
Flags: W
LayerCount: 2
Fore
SplineSet
579 463 m 1,0,-1
 579 -440 l 1,1,-1
 445 -440 l 1,2,-1
 445 423 l 1,3,-1
 -10 423 l 1,4,-1
 -10 637 l 1,5,-1
 579 637 l 1,6,-1
 579 597 l 1,7,-1
 1034 597 l 1,8,-1
 1034 463 l 1,9,-1
 579 463 l 1,0,-1
EndSplineSet
EndChar

StartChar: uni252E
Encoding: 9518 9518 46
Width: 1024
Flags: W
LayerCount: 2
Fore
SplineSet
-10 463 m 1,0,-1
 -10 597 l 1,1,-1
 445 597 l 1,2,-1
 445 637 l 1,3,-1
 1034 637 l 1,4,-1
 1034 423 l 1,5,-1
 579 423 l 1,6,-1
 579 -440 l 1,7,-1
 445 -440 l 1,8,-1
 445 463 l 1,9,-1
 -10 463 l 1,0,-1
EndSplineSet
EndChar

StartChar: uni252F
Encoding: 9519 9519 47
Width: 1024
Flags: W
LayerCount: 2
Fore
SplineSet
579 423 m 1,0,-1
 579 -440 l 1,1,-1
 445 -440 l 1,2,-1
 445 423 l 1,3,-1
 -10 423 l 1,4,-1
 -10 637 l 1,5,-1
 1034 637 l 1,6,-1
 1034 423 l 1,7,-1
 579 423 l 1,0,-1
EndSplineSet
EndChar

StartChar: uni2530
Encoding: 9520 9520 48
Width: 1024
Flags: W
LayerCount: 2
Fore
SplineSet
619 463 m 1,0,-1
 619 -440 l 1,1,-1
 405 -440 l 1,2,-1
 405 463 l 1,3,-1
 -10 463 l 1,4,-1
 -10 597 l 1,5,-1
 1034 597 l 1,6,-1
 1034 463 l 1,7,-1
 619 463 l 1,0,-1
EndSplineSet
EndChar

StartChar: uni2531
Encoding: 9521 9521 49
Width: 1024
Flags: W
LayerCount: 2
Fore
SplineSet
619 463 m 1,0,-1
 619 -440 l 1,1,-1
 405 -440 l 1,2,-1
 405 423 l 1,3,-1
 -10 423 l 1,4,-1
 -10 637 l 1,5,-1
 619 637 l 1,6,-1
 619 597 l 1,7,-1
 1034 597 l 1,8,-1
 1034 463 l 1,9,-1
 619 463 l 1,0,-1
EndSplineSet
EndChar

StartChar: uni2532
Encoding: 9522 9522 50
Width: 1024
Flags: W
LayerCount: 2
Fore
SplineSet
-10 463 m 1,0,-1
 -10 597 l 1,1,-1
 405 597 l 1,2,-1
 405 637 l 1,3,-1
 1034 637 l 1,4,-1
 1034 423 l 1,5,-1
 619 423 l 1,6,-1
 619 -440 l 1,7,-1
 405 -440 l 1,8,-1
 405 463 l 1,9,-1
 -10 463 l 1,0,-1
EndSplineSet
EndChar

StartChar: uni2533
Encoding: 9523 9523 51
Width: 1024
Flags: W
LayerCount: 2
Fore
SplineSet
619 423 m 1,0,-1
 619 -440 l 1,1,-1
 405 -440 l 1,2,-1
 405 423 l 1,3,-1
 -10 423 l 1,4,-1
 -10 637 l 1,5,-1
 1034 637 l 1,6,-1
 1034 423 l 1,7,-1
 619 423 l 1,0,-1
EndSplineSet
EndChar

StartChar: SF070000
Encoding: 9524 9524 52
Width: 1024
Flags: W
LayerCount: 2
Fore
SplineSet
-10 463 m 1,0,-1
 -10 597 l 1,1,-1
 445 597 l 1,2,-1
 445 1501 l 1,3,-1
 579 1501 l 1,4,-1
 579 597 l 1,5,-1
 1034 597 l 1,6,-1
 1034 463 l 1,7,-1
 -10 463 l 1,0,-1
EndSplineSet
EndChar

StartChar: uni2535
Encoding: 9525 9525 53
Width: 1024
Flags: W
LayerCount: 2
Fore
SplineSet
-10 423 m 1,0,-1
 -10 637 l 1,1,-1
 445 637 l 1,2,-1
 445 1501 l 1,3,-1
 579 1501 l 1,4,-1
 579 597 l 1,5,-1
 1034 597 l 1,6,-1
 1034 463 l 1,7,-1
 579 463 l 1,8,-1
 579 423 l 1,9,-1
 -10 423 l 1,0,-1
EndSplineSet
EndChar

StartChar: uni2536
Encoding: 9526 9526 54
Width: 1024
Flags: W
LayerCount: 2
Fore
SplineSet
445 423 m 1,0,-1
 445 463 l 1,1,-1
 -10 463 l 1,2,-1
 -10 597 l 1,3,-1
 445 597 l 1,4,-1
 445 1501 l 1,5,-1
 579 1501 l 1,6,-1
 579 637 l 1,7,-1
 1034 637 l 1,8,-1
 1034 423 l 1,9,-1
 445 423 l 1,0,-1
EndSplineSet
EndChar

StartChar: uni2537
Encoding: 9527 9527 55
Width: 1024
Flags: W
LayerCount: 2
Fore
SplineSet
-10 423 m 1,0,-1
 -10 637 l 1,1,-1
 445 637 l 1,2,-1
 445 1501 l 1,3,-1
 579 1501 l 1,4,-1
 579 637 l 1,5,-1
 1034 637 l 1,6,-1
 1034 423 l 1,7,-1
 -10 423 l 1,0,-1
EndSplineSet
EndChar

StartChar: uni2538
Encoding: 9528 9528 56
Width: 1024
Flags: W
LayerCount: 2
Fore
SplineSet
-10 463 m 1,0,-1
 -10 597 l 1,1,-1
 405 597 l 1,2,-1
 405 1501 l 1,3,-1
 619 1501 l 1,4,-1
 619 597 l 1,5,-1
 1034 597 l 1,6,-1
 1034 463 l 1,7,-1
 -10 463 l 1,0,-1
EndSplineSet
EndChar

StartChar: uni2539
Encoding: 9529 9529 57
Width: 1024
Flags: W
LayerCount: 2
Fore
SplineSet
-10 423 m 1,0,-1
 -10 637 l 1,1,-1
 405 637 l 1,2,-1
 405 1501 l 1,3,-1
 619 1501 l 1,4,-1
 619 597 l 1,5,-1
 1034 597 l 1,6,-1
 1034 463 l 1,7,-1
 619 463 l 1,8,-1
 619 423 l 1,9,-1
 -10 423 l 1,0,-1
EndSplineSet
EndChar

StartChar: uni253A
Encoding: 9530 9530 58
Width: 1024
Flags: W
LayerCount: 2
Fore
SplineSet
405 423 m 1,0,-1
 405 463 l 1,1,-1
 -10 463 l 1,2,-1
 -10 597 l 1,3,-1
 405 597 l 1,4,-1
 405 1501 l 1,5,-1
 619 1501 l 1,6,-1
 619 637 l 1,7,-1
 1034 637 l 1,8,-1
 1034 423 l 1,9,-1
 405 423 l 1,0,-1
EndSplineSet
EndChar

StartChar: uni253B
Encoding: 9531 9531 59
Width: 1024
Flags: W
LayerCount: 2
Fore
SplineSet
-10 423 m 1,0,-1
 -10 637 l 1,1,-1
 405 637 l 1,2,-1
 405 1501 l 1,3,-1
 619 1501 l 1,4,-1
 619 637 l 1,5,-1
 1034 637 l 1,6,-1
 1034 423 l 1,7,-1
 -10 423 l 1,0,-1
EndSplineSet
EndChar

StartChar: SF050000
Encoding: 9532 9532 60
Width: 1024
Flags: W
LayerCount: 2
Fore
SplineSet
579 463 m 1,0,-1
 579 -440 l 1,1,-1
 445 -440 l 1,2,-1
 445 463 l 1,3,-1
 -10 463 l 1,4,-1
 -10 597 l 1,5,-1
 445 597 l 1,6,-1
 445 1501 l 1,7,-1
 579 1501 l 1,8,-1
 579 597 l 1,9,-1
 1034 597 l 1,10,-1
 1034 463 l 1,11,-1
 579 463 l 1,0,-1
EndSplineSet
EndChar

StartChar: uni253D
Encoding: 9533 9533 61
Width: 1024
Flags: W
LayerCount: 2
Fore
SplineSet
445 423 m 1,0,-1
 -10 423 l 1,1,-1
 -10 637 l 1,2,-1
 445 637 l 1,3,-1
 445 1501 l 1,4,-1
 579 1501 l 1,5,-1
 579 597 l 1,6,-1
 1034 597 l 1,7,-1
 1034 463 l 1,8,-1
 579 463 l 1,9,-1
 579 -440 l 1,10,-1
 445 -440 l 1,11,-1
 445 423 l 1,0,-1
EndSplineSet
EndChar

StartChar: uni253E
Encoding: 9534 9534 62
Width: 1024
Flags: W
LayerCount: 2
Fore
SplineSet
579 -440 m 1,0,-1
 445 -440 l 1,1,-1
 445 463 l 1,2,-1
 -10 463 l 1,3,-1
 -10 597 l 1,4,-1
 445 597 l 1,5,-1
 445 1501 l 1,6,-1
 579 1501 l 1,7,-1
 579 637 l 1,8,-1
 1034 637 l 1,9,-1
 1034 423 l 1,10,-1
 579 423 l 1,11,-1
 579 -440 l 1,0,-1
EndSplineSet
EndChar

StartChar: uni253F
Encoding: 9535 9535 63
Width: 1024
Flags: W
LayerCount: 2
Fore
SplineSet
579 423 m 1,0,-1
 579 -440 l 1,1,-1
 445 -440 l 1,2,-1
 445 423 l 1,3,-1
 -10 423 l 1,4,-1
 -10 637 l 1,5,-1
 445 637 l 1,6,-1
 445 1501 l 1,7,-1
 579 1501 l 1,8,-1
 579 637 l 1,9,-1
 1034 637 l 1,10,-1
 1034 423 l 1,11,-1
 579 423 l 1,0,-1
EndSplineSet
EndChar

StartChar: uni2540
Encoding: 9536 9536 64
Width: 1024
Flags: W
LayerCount: 2
Fore
SplineSet
445 463 m 1,0,-1
 -10 463 l 1,1,-1
 -10 597 l 1,2,-1
 405 597 l 1,3,-1
 405 1501 l 1,4,-1
 619 1501 l 1,5,-1
 619 597 l 1,6,-1
 1034 597 l 1,7,-1
 1034 463 l 1,8,-1
 579 463 l 1,9,-1
 579 -440 l 1,10,-1
 445 -440 l 1,11,-1
 445 463 l 1,0,-1
EndSplineSet
EndChar

StartChar: uni2541
Encoding: 9537 9537 65
Width: 1024
Flags: W
LayerCount: 2
Fore
SplineSet
405 463 m 1,0,-1
 -10 463 l 1,1,-1
 -10 597 l 1,2,-1
 445 597 l 1,3,-1
 445 1501 l 1,4,-1
 579 1501 l 1,5,-1
 579 597 l 1,6,-1
 1034 597 l 1,7,-1
 1034 463 l 1,8,-1
 619 463 l 1,9,-1
 619 -440 l 1,10,-1
 405 -440 l 1,11,-1
 405 463 l 1,0,-1
EndSplineSet
EndChar

StartChar: uni2542
Encoding: 9538 9538 66
Width: 1024
Flags: W
LayerCount: 2
Fore
SplineSet
405 463 m 1,0,-1
 -10 463 l 1,1,-1
 -10 597 l 1,2,-1
 405 597 l 1,3,-1
 405 1501 l 1,4,-1
 619 1501 l 1,5,-1
 619 597 l 1,6,-1
 1034 597 l 1,7,-1
 1034 463 l 1,8,-1
 619 463 l 1,9,-1
 619 -440 l 1,10,-1
 405 -440 l 1,11,-1
 405 463 l 1,0,-1
EndSplineSet
EndChar

StartChar: uni2543
Encoding: 9539 9539 67
Width: 1024
Flags: W
LayerCount: 2
Fore
SplineSet
445 423 m 1,0,-1
 -10 423 l 1,1,-1
 -10 637 l 1,2,-1
 405 637 l 1,3,-1
 405 1501 l 1,4,-1
 619 1501 l 1,5,-1
 619 597 l 1,6,-1
 1034 597 l 1,7,-1
 1034 463 l 1,8,-1
 619 463 l 1,9,-1
 619 423 l 1,10,-1
 579 423 l 1,11,-1
 579 -440 l 1,12,-1
 445 -440 l 1,13,-1
 445 423 l 1,0,-1
EndSplineSet
EndChar

StartChar: uni2544
Encoding: 9540 9540 68
Width: 1024
Flags: W
LayerCount: 2
Fore
SplineSet
579 -440 m 1,0,-1
 445 -440 l 1,1,-1
 445 423 l 1,2,-1
 405 423 l 1,3,-1
 405 463 l 1,4,-1
 -10 463 l 1,5,-1
 -10 597 l 1,6,-1
 405 597 l 1,7,-1
 405 1501 l 1,8,-1
 619 1501 l 1,9,-1
 619 637 l 1,10,-1
 1034 637 l 1,11,-1
 1034 423 l 1,12,-1
 579 423 l 1,13,-1
 579 -440 l 1,0,-1
EndSplineSet
EndChar

StartChar: uni2545
Encoding: 9541 9541 69
Width: 1024
Flags: W
LayerCount: 2
Fore
SplineSet
405 -440 m 1,0,-1
 405 423 l 1,1,-1
 -10 423 l 1,2,-1
 -10 637 l 1,3,-1
 445 637 l 1,4,-1
 445 1501 l 1,5,-1
 579 1501 l 1,6,-1
 579 637 l 1,7,-1
 619 637 l 1,8,-1
 619 597 l 1,9,-1
 1034 597 l 1,10,-1
 1034 463 l 1,11,-1
 619 463 l 1,12,-1
 619 -440 l 1,13,-1
 405 -440 l 1,0,-1
EndSplineSet
EndChar

StartChar: uni2546
Encoding: 9542 9542 70
Width: 1024
Flags: W
LayerCount: 2
Fore
SplineSet
405 -440 m 1,0,-1
 405 423 l 1,1,-1
 -10 423 l 1,2,-1
 -10 637 l 1,3,-1
 445 637 l 1,4,-1
 445 1501 l 1,5,-1
 579 1501 l 1,6,-1
 579 637 l 1,7,-1
 619 637 l 1,8,-1
 619 597 l 1,9,-1
 1034 597 l 1,10,-1
 1034 463 l 1,11,-1
 619 463 l 1,12,-1
 619 -440 l 1,13,-1
 405 -440 l 1,0,-1
EndSplineSet
EndChar

StartChar: uni2547
Encoding: 9543 9543 71
Width: 1024
Flags: W
LayerCount: 2
Fore
SplineSet
579 -440 m 1,0,-1
 445 -440 l 1,1,-1
 445 423 l 1,2,-1
 -10 423 l 1,3,-1
 -10 637 l 1,4,-1
 405 637 l 1,5,-1
 405 1501 l 1,6,-1
 619 1501 l 1,7,-1
 619 637 l 1,8,-1
 1034 637 l 1,9,-1
 1034 423 l 1,10,-1
 579 423 l 1,11,-1
 579 -440 l 1,0,-1
EndSplineSet
EndChar

StartChar: uni2548
Encoding: 9544 9544 72
Width: 1024
Flags: W
LayerCount: 2
Fore
SplineSet
579 637 m 1,0,-1
 1034 637 l 1,1,-1
 1034 423 l 1,2,-1
 619 423 l 1,3,-1
 619 -440 l 1,4,-1
 405 -440 l 1,5,-1
 405 423 l 1,6,-1
 -10 423 l 1,7,-1
 -10 637 l 1,8,-1
 445 637 l 1,9,-1
 445 1501 l 1,10,-1
 579 1501 l 1,11,-1
 579 637 l 1,0,-1
EndSplineSet
EndChar

StartChar: uni2549
Encoding: 9545 9545 73
Width: 1024
Flags: W
LayerCount: 2
Fore
SplineSet
405 423 m 1,0,-1
 -10 423 l 1,1,-1
 -10 637 l 1,2,-1
 405 637 l 1,3,-1
 405 1501 l 1,4,-1
 619 1501 l 1,5,-1
 619 597 l 1,6,-1
 1034 597 l 1,7,-1
 1034 463 l 1,8,-1
 619 463 l 1,9,-1
 619 -440 l 1,10,-1
 405 -440 l 1,11,-1
 405 423 l 1,0,-1
EndSplineSet
EndChar

StartChar: uni254A
Encoding: 9546 9546 74
Width: 1024
Flags: W
LayerCount: 2
Fore
SplineSet
405 -440 m 1,0,-1
 405 463 l 1,1,-1
 -10 463 l 1,2,-1
 -10 597 l 1,3,-1
 405 597 l 1,4,-1
 405 1501 l 1,5,-1
 619 1501 l 1,6,-1
 619 637 l 1,7,-1
 1034 637 l 1,8,-1
 1034 423 l 1,9,-1
 619 423 l 1,10,-1
 619 -440 l 1,11,-1
 405 -440 l 1,0,-1
EndSplineSet
EndChar

StartChar: uni254B
Encoding: 9547 9547 75
Width: 1024
Flags: W
LayerCount: 2
Fore
SplineSet
619 423 m 1,0,-1
 619 -440 l 1,1,-1
 405 -440 l 1,2,-1
 405 423 l 1,3,-1
 -10 423 l 1,4,-1
 -10 637 l 1,5,-1
 405 637 l 1,6,-1
 405 1501 l 1,7,-1
 619 1501 l 1,8,-1
 619 637 l 1,9,-1
 1034 637 l 1,10,-1
 1034 423 l 1,11,-1
 619 423 l 1,0,-1
EndSplineSet
EndChar

StartChar: uni2581
Encoding: 9601 9601 76
Width: 1921
Flags: W
LayerCount: 2
Fore
SplineSet
-10 -180 m 1,0,-1
 1931 -180 l 1,1,-1
 1931 -440 l 1,2,-1
 -10 -440 l 1,3,-1
 -10 -180 l 1,0,-1
EndSplineSet
EndChar

StartChar: uni2582
Encoding: 9602 9602 77
Width: 1921
Flags: W
LayerCount: 2
Fore
SplineSet
-10 45 m 1,0,-1
 1931 45 l 1,1,-1
 1931 -440 l 1,2,-1
 -10 -440 l 1,3,-1
 -10 45 l 1,0,-1
EndSplineSet
EndChar

StartChar: uni2583
Encoding: 9603 9603 78
Width: 1921
Flags: W
LayerCount: 2
Fore
SplineSet
-10 288 m 1,0,-1
 1931 288 l 1,1,-1
 1931 -440 l 1,2,-1
 -10 -440 l 1,3,-1
 -10 288 l 1,0,-1
EndSplineSet
EndChar

StartChar: dnblock
Encoding: 9604 9604 79
Width: 1921
Flags: W
LayerCount: 2
Fore
SplineSet
-10 530 m 1,0,-1
 1931 530 l 1,1,-1
 1931 -440 l 1,2,-1
 -10 -440 l 1,3,-1
 -10 530 l 1,0,-1
EndSplineSet
EndChar

StartChar: uni2585
Encoding: 9605 9605 80
Width: 1921
Flags: W
LayerCount: 2
Fore
SplineSet
-10 773 m 1,0,-1
 1931 773 l 1,1,-1
 1931 -440 l 1,2,-1
 -10 -440 l 1,3,-1
 -10 773 l 1,0,-1
EndSplineSet
EndChar

StartChar: uni2586
Encoding: 9606 9606 81
Width: 1921
Flags: W
LayerCount: 2
Fore
SplineSet
-10 1016 m 1,0,-1
 1931 1016 l 1,1,-1
 1931 -440 l 1,2,-1
 -10 -440 l 1,3,-1
 -10 1016 l 1,0,-1
EndSplineSet
EndChar

StartChar: uni2587
Encoding: 9607 9607 82
Width: 1921
Flags: W
LayerCount: 2
Fore
SplineSet
-10 1258 m 1,0,-1
 1931 1258 l 1,1,-1
 1931 -440 l 1,2,-1
 -10 -440 l 1,3,-1
 -10 1258 l 1,0,-1
EndSplineSet
EndChar

StartChar: block
Encoding: 9608 9608 83
Width: 1921
Flags: W
LayerCount: 2
Fore
SplineSet
-10 1501 m 1,0,-1
 1931 1501 l 1,1,-1
 1931 -440 l 1,2,-1
 -10 -440 l 1,3,-1
 -10 1501 l 1,0,-1
EndSplineSet
EndChar

StartChar: uni2589
Encoding: 9609 9609 84
Width: 1678
Flags: W
LayerCount: 2
Fore
SplineSet
-10 1501 m 1,0,-1
 1688 1501 l 1,1,-1
 1688 -440 l 1,2,-1
 -10 -440 l 1,3,-1
 -10 1501 l 1,0,-1
EndSplineSet
EndChar

StartChar: uni258A
Encoding: 9610 9610 85
Width: 1436
Flags: W
LayerCount: 2
Fore
SplineSet
-10 1501 m 1,0,-1
 1446 1501 l 1,1,-1
 1446 -440 l 1,2,-1
 -10 -440 l 1,3,-1
 -10 1501 l 1,0,-1
EndSplineSet
EndChar

StartChar: uni258B
Encoding: 9611 9611 86
Width: 1193
Flags: W
LayerCount: 2
Fore
SplineSet
-10 1501 m 1,0,-1
 1203 1501 l 1,1,-1
 1203 -440 l 1,2,-1
 -10 -440 l 1,3,-1
 -10 1501 l 1,0,-1
EndSplineSet
EndChar

StartChar: lfblock
Encoding: 9612 9612 87
Width: 950
Flags: W
LayerCount: 2
Fore
SplineSet
-10 1501 m 1,0,-1
 960 1501 l 1,1,-1
 960 -440 l 1,2,-1
 -10 -440 l 1,3,-1
 -10 1501 l 1,0,-1
EndSplineSet
EndChar

StartChar: uni258D
Encoding: 9613 9613 88
Width: 708
Flags: W
LayerCount: 2
Fore
SplineSet
-10 1501 m 1,0,-1
 718 1501 l 1,1,-1
 718 -440 l 1,2,-1
 -10 -440 l 1,3,-1
 -10 1501 l 1,0,-1
EndSplineSet
EndChar

StartChar: uni258E
Encoding: 9614 9614 89
Width: 465
Flags: W
LayerCount: 2
Fore
SplineSet
-10 1501 m 1,0,-1
 475 1501 l 1,1,-1
 475 -440 l 1,2,-1
 -10 -440 l 1,3,-1
 -10 1501 l 1,0,-1
EndSplineSet
EndChar

StartChar: uni258F
Encoding: 9615 9615 90
Width: 223
Flags: W
LayerCount: 2
Fore
SplineSet
-10 1501 m 1,0,-1
 233 1501 l 1,1,-1
 233 -440 l 1,2,-1
 -10 -440 l 1,3,-1
 -10 1501 l 1,0,-1
EndSplineSet
EndChar

StartChar: uni2669
Encoding: 9833 9833 91
Width: 803
Flags: W
LayerCount: 2
Fore
SplineSet
144 169 m 0,0,1
 144 225 144 225 167 273.5 c 128,-1,2
 190 322 190 322 229.5 357.5 c 128,-1,3
 269 393 269 393 321 413.5 c 128,-1,4
 373 434 373 434 431 434 c 0,5,6
 476 434 476 434 512 423 c 1,7,-1
 512 1434 l 1,8,-1
 615 1434 l 1,9,-1
 615 289 l 2,10,11
 615 226 615 226 595.5 169 c 128,-1,12
 576 112 576 112 541 69 c 128,-1,13
 506 26 506 26 457 0.5 c 128,-1,14
 408 -25 408 -25 349 -25 c 0,15,16
 250 -25 250 -25 197 27 c 128,-1,17
 144 79 144 79 144 169 c 0,0,1
EndSplineSet
EndChar

StartChar: musicalnote
Encoding: 9834 9834 92
Width: 1087
Flags: W
LayerCount: 2
Fore
SplineSet
144 169 m 0,0,1
 144 225 144 225 167 273.5 c 128,-1,2
 190 322 190 322 229.5 357.5 c 128,-1,3
 269 393 269 393 321 413.5 c 128,-1,4
 373 434 373 434 431 434 c 0,5,6
 476 434 476 434 512 423 c 1,7,-1
 512 1434 l 1,8,-1
 615 1434 l 1,9,-1
 615 1407 l 2,10,11
 615 1383 615 1383 623 1364 c 128,-1,12
 631 1345 631 1345 651 1324.5 c 128,-1,13
 671 1304 671 1304 704 1279 c 128,-1,14
 737 1254 737 1254 787 1220 c 0,15,16
 835 1187 835 1187 867 1154.5 c 128,-1,17
 899 1122 899 1122 918 1087.5 c 128,-1,18
 937 1053 937 1053 944.5 1015.5 c 128,-1,19
 952 978 952 978 952 933 c 0,20,21
 952 876 952 876 936.5 825 c 128,-1,22
 921 774 921 774 894 726 c 1,23,-1
 816 752 l 1,24,25
 826 789 826 789 830.5 819.5 c 128,-1,26
 835 850 835 850 835 882 c 0,27,28
 835 919 835 919 829 948.5 c 128,-1,29
 823 978 823 978 808.5 1004.5 c 128,-1,30
 794 1031 794 1031 768.5 1055.5 c 128,-1,31
 743 1080 743 1080 704 1108 c 0,32,33
 673 1130 673 1130 651.5 1143.5 c 128,-1,34
 630 1157 630 1157 615 1173 c 1,35,-1
 615 289 l 2,36,37
 615 226 615 226 595.5 169 c 128,-1,38
 576 112 576 112 541 69 c 128,-1,39
 506 26 506 26 457 0.5 c 128,-1,40
 408 -25 408 -25 349 -25 c 0,41,42
 250 -25 250 -25 197 27 c 128,-1,43
 144 79 144 79 144 169 c 0,0,1
EndSplineSet
EndChar

StartChar: musicalnotedbl
Encoding: 9835 9835 93
Width: 1718
Flags: W
LayerCount: 2
Fore
SplineSet
855 -27 m 0,0,1
 855 29 855 29 878 77.5 c 128,-1,2
 901 126 901 126 940.5 161.5 c 128,-1,3
 980 197 980 197 1032 217.5 c 128,-1,4
 1084 238 1084 238 1142 238 c 0,5,6
 1187 238 1187 238 1223 227 c 1,7,-1
 1223 1109 l 1,8,-1
 615 1255 l 1,9,-1
 615 289 l 2,10,11
 615 226 615 226 595.5 169 c 128,-1,12
 576 112 576 112 541 69 c 128,-1,13
 506 26 506 26 457 0.5 c 128,-1,14
 408 -25 408 -25 349 -25 c 0,15,16
 250 -25 250 -25 197 27 c 128,-1,17
 144 79 144 79 144 169 c 0,18,19
 144 225 144 225 167 273.5 c 128,-1,20
 190 322 190 322 229.5 357.5 c 128,-1,21
 269 393 269 393 321 413.5 c 128,-1,22
 373 434 373 434 431 434 c 0,23,24
 476 434 476 434 512 423 c 1,25,-1
 512 1434 l 1,26,-1
 1326 1238 l 1,27,-1
 1326 93 l 2,28,29
 1326 30 1326 30 1306.5 -27 c 128,-1,30
 1287 -84 1287 -84 1252 -127 c 128,-1,31
 1217 -170 1217 -170 1168 -195.5 c 128,-1,32
 1119 -221 1119 -221 1060 -221 c 0,33,34
 961 -221 961 -221 908 -169 c 128,-1,35
 855 -117 855 -117 855 -27 c 0,0,1
EndSplineSet
EndChar

StartChar: uni266C
Encoding: 9836 9836 94
Width: 1856
Flags: W
LayerCount: 2
Fore
SplineSet
993 169 m 0,0,1
 993 225 993 225 1016 273.5 c 128,-1,2
 1039 322 1039 322 1078.5 357.5 c 128,-1,3
 1118 393 1118 393 1170 413.5 c 128,-1,4
 1222 434 1222 434 1280 434 c 0,5,6
 1325 434 1325 434 1361 423 c 1,7,-1
 1361 966 l 1,8,-1
 615 966 l 1,9,-1
 615 289 l 2,10,11
 615 226 615 226 595.5 169 c 128,-1,12
 576 112 576 112 541 69 c 128,-1,13
 506 26 506 26 457 0.5 c 128,-1,14
 408 -25 408 -25 349 -25 c 0,15,16
 250 -25 250 -25 197 27 c 128,-1,17
 144 79 144 79 144 169 c 0,18,19
 144 225 144 225 167 273.5 c 128,-1,20
 190 322 190 322 229.5 357.5 c 128,-1,21
 269 393 269 393 321 413.5 c 128,-1,22
 373 434 373 434 431 434 c 0,23,24
 476 434 476 434 512 423 c 1,25,-1
 512 1434 l 1,26,-1
 1464 1434 l 1,27,-1
 1464 289 l 2,28,29
 1464 226 1464 226 1444.5 169 c 128,-1,30
 1425 112 1425 112 1390 69 c 128,-1,31
 1355 26 1355 26 1306 0.5 c 128,-1,32
 1257 -25 1257 -25 1198 -25 c 0,33,34
 1099 -25 1099 -25 1046 27 c 128,-1,35
 993 79 993 79 993 169 c 0,0,1
615 1118 m 1,36,-1
 1361 1118 l 1,37,-1
 1361 1282 l 1,38,-1
 615 1282 l 1,39,-1
 615 1118 l 1,36,-1
EndSplineSet
EndChar

StartChar: uni266D
Encoding: 9837 9837 95
Width: 924
Flags: W
LayerCount: 2
Fore
SplineSet
780 414 m 0,0,1
 780 333 780 333 754 271.5 c 128,-1,2
 728 210 728 210 684.5 164 c 128,-1,3
 641 118 641 118 584.5 86.5 c 128,-1,4
 528 55 528 55 466.5 36 c 128,-1,5
 405 17 405 17 343 8.5 c 128,-1,6
 281 0 281 0 226 0 c 2,7,-1
 188 0 l 1,8,-1
 188 1434 l 1,9,-1
 291 1434 l 1,10,-1
 291 588 l 1,11,12
 347 638 347 638 406 666.5 c 128,-1,13
 465 695 465 695 544 695 c 0,14,15
 601 695 601 695 645 674.5 c 128,-1,16
 689 654 689 654 719 617 c 128,-1,17
 749 580 749 580 764.5 528 c 128,-1,18
 780 476 780 476 780 414 c 0,0,1
291 54 m 1,19,20
 370 62 370 62 429.5 92.5 c 128,-1,21
 489 123 489 123 528.5 170.5 c 128,-1,22
 568 218 568 218 587.5 280 c 128,-1,23
 607 342 607 342 607 414 c 0,24,25
 607 452 607 452 598 485.5 c 128,-1,26
 589 519 589 519 570.5 543.5 c 128,-1,27
 552 568 552 568 524 582.5 c 128,-1,28
 496 597 496 597 458 597 c 0,29,30
 412 597 412 597 370.5 577.5 c 128,-1,31
 329 558 329 558 291 528 c 1,32,-1
 291 54 l 1,19,20
EndSplineSet
EndChar

StartChar: uni266E
Encoding: 9838 9838 96
Width: 843
Flags: W
LayerCount: 2
Fore
SplineSet
188 243 m 1,0,-1
 188 1434 l 1,1,-1
 291 1434 l 1,2,-1
 291 1021 l 1,3,-1
 592 1190 l 1,4,-1
 655 1190 l 1,5,-1
 655 -1 l 1,6,-1
 552 -1 l 1,7,-1
 552 411 l 1,8,-1
 249 243 l 1,9,-1
 188 243 l 1,0,-1
291 418 m 1,10,-1
 552 563 l 1,11,-1
 552 1016 l 1,12,-1
 291 871 l 1,13,-1
 291 418 l 1,10,-1
EndSplineSet
EndChar

StartChar: uni267A
Encoding: 9850 9850 97
Width: 1801
Flags: W
LayerCount: 2
Fore
SplineSet
912 -197 m 1,0,-1
 907 -197 l 1,1,-1
 713 69 l 1,2,-1
 907 332 l 1,3,-1
 912 332 l 1,4,-1
 912 137 l 1,5,-1
 1450 137 l 2,6,7
 1513 137 1513 137 1541.5 162.5 c 128,-1,8
 1570 188 1570 188 1570 230 c 0,9,10
 1570 262 1570 262 1558 296.5 c 128,-1,11
 1546 331 1546 331 1515 384 c 2,12,-1
 1418 547 l 1,13,-1
 1535 618 l 1,14,-1
 1644 431 l 2,15,16
 1675 378 1675 378 1691 326 c 128,-1,17
 1707 274 1707 274 1707 226 c 256,18,19
 1707 178 1707 178 1691 137 c 128,-1,20
 1675 96 1675 96 1643 65.5 c 128,-1,21
 1611 35 1611 35 1563 17.5 c 128,-1,22
 1515 0 1515 0 1450 0 c 2,23,-1
 910 0 l 1,24,-1
 912 -197 l 1,0,-1
237 947 m 1,25,-1
 240 953 l 1,26,-1
 568 983 l 1,27,-1
 696 685 l 1,28,-1
 694 682 l 1,29,-1
 529 780 l 1,30,-1
 260 316 l 2,31,32
 246 291 246 291 239.5 272.5 c 128,-1,33
 233 254 233 254 233 237 c 0,34,35
 233 183 233 183 267.5 160 c 128,-1,36
 302 137 302 137 378 137 c 2,37,-1
 632 137 l 1,38,-1
 632 0 l 1,39,-1
 378 0 l 2,40,41
 317 0 317 0 265 13.5 c 128,-1,42
 213 27 213 27 175 54.5 c 128,-1,43
 137 82 137 82 115.5 125 c 128,-1,44
 94 168 94 168 94 228 c 0,45,46
 94 263 94 263 105.5 302.5 c 128,-1,47
 117 342 117 342 143 386 c 2,48,-1
 411 851 l 1,49,-1
 237 947 l 1,25,-1
1572 950 m 1,50,-1
 1575 945 l 1,51,-1
 1443 642 l 1,52,-1
 1122 673 l 1,53,-1
 1120 678 l 1,54,-1
 1285 776 l 1,55,-1
 1023 1218 l 2,56,57
 993 1268 993 1268 970 1291.5 c 128,-1,58
 947 1315 947 1315 911 1315 c 0,59,60
 874 1315 874 1315 848 1292 c 128,-1,61
 822 1269 822 1269 793 1220 c 2,62,-1
 665 1004 l 1,63,-1
 549 1075 l 1,64,-1
 677 1289 l 2,65,66
 703 1332 703 1332 727.5 1364 c 128,-1,67
 752 1396 752 1396 779 1417 c 128,-1,68
 806 1438 806 1438 838 1448 c 128,-1,69
 870 1458 870 1458 912 1458 c 0,70,71
 950 1458 950 1458 981 1447.5 c 128,-1,72
 1012 1437 1012 1437 1039 1416 c 128,-1,73
 1066 1395 1066 1395 1090 1363 c 128,-1,74
 1114 1331 1114 1331 1140 1288 c 2,75,-1
 1401 847 l 1,76,-1
 1572 950 l 1,50,-1
EndSplineSet
EndChar

StartChar: uni26A0
Encoding: 9888 9888 98
Width: 1764
Flags: W
LayerCount: 2
Fore
SplineSet
1693 -62 m 2,0,-1
 67 -62 l 2,1,2
 50 -62 50 -62 36.5 -52 c 128,-1,3
 23 -42 23 -42 15 -28 c 256,4,5
 7 -14 7 -14 7 2 c 0,6,7
 7 17 7 17 15 33 c 2,8,-1
 827 1475 l 2,9,10
 835 1489 835 1489 849 1496 c 128,-1,11
 863 1503 863 1503 879 1503 c 256,12,13
 895 1503 895 1503 909 1496 c 128,-1,14
 923 1489 923 1489 931 1475 c 2,15,-1
 1745 33 l 2,16,17
 1753 17 1753 17 1753 2 c 0,18,19
 1753 -14 1753 -14 1745 -28 c 256,20,21
 1737 -42 1737 -42 1723.5 -52 c 128,-1,22
 1710 -62 1710 -62 1693 -62 c 2,0,-1
171 66 m 1,23,-1
 1587 66 l 1,24,-1
 879 1320 l 1,25,-1
 171 66 l 1,23,-1
972 430 m 1,26,-1
 786 430 l 1,27,-1
 786 985 l 1,28,-1
 972 985 l 1,29,-1
 972 430 l 1,26,-1
1000 248 m 0,30,31
 1000 222 1000 222 990.5 200 c 128,-1,32
 981 178 981 178 964.5 161.5 c 128,-1,33
 948 145 948 145 926 135.5 c 128,-1,34
 904 126 904 126 879 126 c 256,35,36
 854 126 854 126 832 135.5 c 128,-1,37
 810 145 810 145 794 161.5 c 128,-1,38
 778 178 778 178 769 200 c 128,-1,39
 760 222 760 222 760 248 c 0,40,41
 760 273 760 273 769 296 c 128,-1,42
 778 319 778 319 794 335.5 c 128,-1,43
 810 352 810 352 832 362 c 128,-1,44
 854 372 854 372 879 372 c 256,45,46
 904 372 904 372 926 362 c 128,-1,47
 948 352 948 352 964.5 335.5 c 128,-1,48
 981 319 981 319 990.5 296 c 128,-1,49
 1000 273 1000 273 1000 248 c 0,30,31
EndSplineSet
EndChar

StartChar: .notdef
Encoding: 1114112 -1 99
Width: 1322
GlyphClass: 2
Flags: W
LayerCount: 2
Fore
SplineSet
166 1398 m 1,0,-1
 1156 1398 l 1,1,-1
 1156 0 l 1,2,-1
 166 0 l 1,3,-1
 166 1398 l 1,0,-1
1008 148 m 1,4,-1
 1008 1250 l 1,5,-1
 314 1250 l 1,6,-1
 314 148 l 1,7,-1
 1008 148 l 1,4,-1
EndSplineSet
EndChar

StartChar: exclam
Encoding: 33 33 103
Width: 590
GlyphClass: 2
Flags: W
LayerCount: 2
Fore
SplineSet
415 1434 m 1,0,-1
 552 1434 l 1,1,-1
 320 403 l 1,2,-1
 210 403 l 1,3,-1
 415 1434 l 1,0,-1
112 76 m 0,4,5
 112 117 112 117 139 144 c 128,-1,6
 166 171 166 171 206 171 c 0,7,8
 244 171 244 171 272.5 144 c 128,-1,9
 301 117 301 117 301 76 c 0,10,11
 301 36 301 36 273 9 c 128,-1,12
 245 -18 245 -18 206 -18 c 0,13,14
 166 -18 166 -18 139 9.5 c 128,-1,15
 112 37 112 37 112 76 c 0,4,5
EndSplineSet
Substitution2: "SegoeUI-SemilightItalic-'ss19' Style Set 19 lookup 6 subtable" exclam.ss19
EndChar

StartChar: quotedbl
Encoding: 34 34 104
Width: 710
GlyphClass: 2
Flags: W
LayerCount: 2
Fore
SplineSet
545 1434 m 1,0,-1
 660 1434 l 1,1,-1
 650 986 l 1,2,-1
 554 986 l 1,3,-1
 545 1434 l 1,0,-1
281 1434 m 1,4,-1
 396 1434 l 1,5,-1
 386 986 l 1,6,-1
 291 986 l 1,7,-1
 281 1434 l 1,4,-1
EndSplineSet
EndChar

StartChar: numbersign
Encoding: 35 35 105
Width: 1225
GlyphClass: 2
Flags: W
LayerCount: 2
Fore
SplineSet
379 521 m 1,0,-1
 107 521 l 1,1,-1
 126 612 l 1,2,-1
 399 612 l 1,3,-1
 468 936 l 1,4,-1
 183 936 l 1,5,-1
 202 1028 l 1,6,-1
 487 1028 l 1,7,-1
 573 1434 l 1,8,-1
 674 1434 l 1,9,-1
 589 1028 l 1,10,-1
 849 1028 l 1,11,-1
 936 1434 l 1,12,-1
 1036 1434 l 1,13,-1
 950 1028 l 1,14,-1
 1218 1028 l 1,15,-1
 1198 937 l 1,16,-1
 931 937 l 1,17,-1
 861 612 l 1,18,-1
 1143 612 l 1,19,-1
 1122 521 l 1,20,-1
 842 521 l 1,21,-1
 755 123 l 1,22,-1
 654 123 l 1,23,-1
 740 521 l 1,24,-1
 480 521 l 1,25,-1
 395 123 l 1,26,-1
 294 123 l 1,27,-1
 379 521 l 1,0,-1
760 612 m 1,28,-1
 830 937 l 1,29,-1
 569 937 l 1,30,-1
 499 612 l 1,31,-1
 760 612 l 1,28,-1
EndSplineSet
EndChar

StartChar: dollar
Encoding: 36 36 106
Width: 1078
GlyphClass: 2
Flags: W
LayerCount: 2
Fore
SplineSet
94 201 m 1,0,1
 153 163 153 163 235 136.5 c 128,-1,2
 317 110 317 110 399 102 c 1,3,-1
 522 670 l 1,4,5
 371 780 371 780 315 865 c 128,-1,6
 259 950 259 950 259 1060 c 0,7,8
 259 1218 259 1218 376.5 1325.5 c 128,-1,9
 494 1433 494 1433 685 1441 c 1,10,-1
 722 1615 l 1,11,-1
 813 1615 l 1,12,-1
 775 1438 l 1,13,14
 899 1430 899 1430 1020 1384 c 1,15,-1
 996 1260 l 1,16,17
 890 1322 890 1322 752 1332 c 1,18,-1
 627 747 l 1,19,20
 774 639 774 639 832 556 c 128,-1,21
 890 473 890 473 890 376 c 0,22,23
 890 208 890 208 778 104 c 128,-1,24
 666 0 666 0 469 -7 c 1,25,-1
 424 -209 l 1,26,-1
 335 -209 l 1,27,-1
 378 -5 l 1,28,29
 297 -1 297 -1 211 21 c 128,-1,30
 125 43 125 43 72 72 c 1,31,-1
 94 201 l 1,0,1
661 1332 m 1,32,33
 537 1322 537 1322 463 1248 c 128,-1,34
 389 1174 389 1174 389 1066 c 0,35,36
 389 993 389 993 424 934 c 128,-1,37
 459 875 459 875 550 804 c 1,38,-1
 661 1332 l 1,32,33
492 102 m 1,39,40
 620 112 620 112 690.5 182 c 128,-1,41
 761 252 761 252 761 361 c 0,42,43
 761 427 761 427 723.5 486 c 128,-1,44
 686 545 686 545 600 612 c 1,45,-1
 492 102 l 1,39,40
EndSplineSet
EndChar

StartChar: percent
Encoding: 37 37 107
Width: 1657
GlyphClass: 2
Flags: W
LayerCount: 2
Fore
SplineSet
1188 -20 m 0,0,1
 1060 -20 1060 -20 986 58 c 128,-1,2
 912 136 912 136 912 265 c 0,3,4
 912 385 912 385 963.5 490 c 128,-1,5
 1015 595 1015 595 1104.5 655.5 c 128,-1,6
 1194 716 1194 716 1300 716 c 0,7,8
 1425 716 1425 716 1497 639 c 128,-1,9
 1569 562 1569 562 1569 431 c 0,10,11
 1569 242 1569 242 1459.5 111 c 128,-1,12
 1350 -20 1350 -20 1188 -20 c 0,0,1
1406 1434 m 1,13,-1
 1532 1434 l 1,14,-1
 336 0 l 1,15,-1
 209 0 l 1,16,-1
 1406 1434 l 1,13,-1
437 718 m 0,17,18
 309 718 309 718 235 795.5 c 128,-1,19
 161 873 161 873 161 1004 c 0,20,21
 161 1124 161 1124 212.5 1229 c 128,-1,22
 264 1334 264 1334 353.5 1394 c 128,-1,23
 443 1454 443 1454 549 1454 c 0,24,25
 671 1454 671 1454 744.5 1378.5 c 128,-1,26
 818 1303 818 1303 818 1170 c 0,27,28
 818 1048 818 1048 769 944 c 128,-1,29
 720 840 720 840 631.5 779 c 128,-1,30
 543 718 543 718 437 718 c 0,17,18
1193 73 m 0,31,32
 1307 73 1307 73 1382.5 176.5 c 128,-1,33
 1458 280 1458 280 1458 425 c 0,34,35
 1458 518 1458 518 1415 569.5 c 128,-1,36
 1372 621 1372 621 1294 621 c 0,37,38
 1181 621 1181 621 1103 517 c 128,-1,39
 1025 413 1025 413 1025 268 c 0,40,41
 1025 177 1025 177 1069.5 125 c 128,-1,42
 1114 73 1114 73 1193 73 c 0,31,32
442 812 m 0,43,44
 555 812 555 812 631 914 c 128,-1,45
 707 1016 707 1016 707 1163 c 0,46,47
 707 1257 707 1257 663.5 1308.5 c 128,-1,48
 620 1360 620 1360 542 1360 c 0,49,50
 429 1360 429 1360 351 1256 c 128,-1,51
 273 1152 273 1152 273 1007 c 0,52,53
 273 916 273 916 318 864 c 128,-1,54
 363 812 363 812 442 812 c 0,43,44
EndSplineSet
EndChar

StartChar: ampersand
Encoding: 38 38 108
Width: 1530
GlyphClass: 2
Flags: W
LayerCount: 2
Fore
SplineSet
990 156 m 1,0,1
 774 -28 774 -28 498 -28 c 0,2,3
 312 -28 312 -28 202 73 c 128,-1,4
 92 174 92 174 92 333 c 0,5,6
 92 486 92 486 194.5 593.5 c 128,-1,7
 297 701 297 701 531 789 c 1,8,9
 457 894 457 894 431.5 963.5 c 128,-1,10
 406 1033 406 1033 406 1104 c 0,11,12
 406 1257 406 1257 517 1358 c 128,-1,13
 628 1459 628 1459 795 1459 c 0,14,15
 950 1459 950 1459 1044.5 1378.5 c 128,-1,16
 1139 1298 1139 1298 1139 1166 c 0,17,18
 1139 1026 1139 1026 1035 929 c 128,-1,19
 931 832 931 832 710 748 c 1,20,-1
 1016 330 l 1,21,22
 1176 509 1176 509 1248 759 c 1,23,-1
 1369 759 l 1,24,25
 1286 451 1286 451 1082 239 c 1,26,-1
 1259 0 l 1,27,-1
 1104 0 l 1,28,-1
 990 156 l 1,0,1
1014 1159 m 0,29,30
 1014 1246 1014 1246 955.5 1299 c 128,-1,31
 897 1352 897 1352 792 1352 c 0,32,33
 677 1352 677 1352 604 1283.5 c 128,-1,34
 531 1215 531 1215 531 1104 c 0,35,36
 531 1047 531 1047 556.5 984.5 c 128,-1,37
 582 922 582 922 646 832 c 1,38,39
 846 905 846 905 930 977.5 c 128,-1,40
 1014 1050 1014 1050 1014 1159 c 0,29,30
926 243 m 1,41,-1
 591 703 l 1,42,43
 377 619 377 619 298.5 540.5 c 128,-1,44
 220 462 220 462 220 339 c 0,45,46
 220 226 220 226 300 154 c 128,-1,47
 380 82 380 82 511 82 c 0,48,49
 738 82 738 82 926 243 c 1,41,-1
EndSplineSet
Substitution2: "SegoeUI-SemilightItalic-'smcp' Lowercase to Small Capitals lookup 14 subtable" ampersand.c2sc
Substitution2: "SegoeUI-SemilightItalic-'c2sc' Capitals to Small Capitals lookup 13 subtable" ampersand.c2sc
Substitution2: "SegoeUI-SemilightItalic-'ss20' Style Set 20 lookup 7 subtable" ampersand.ss20
EndChar

StartChar: quotesingle
Encoding: 39 39 109
Width: 437
GlyphClass: 2
Flags: W
LayerCount: 2
Fore
SplineSet
278 1434 m 1,0,-1
 392 1434 l 1,1,-1
 382 986 l 1,2,-1
 289 986 l 1,3,-1
 278 1434 l 1,0,-1
EndSplineSet
EndChar

StartChar: parenleft
Encoding: 40 40 110
Width: 604
GlyphClass: 2
Flags: W
LayerCount: 2
Fore
SplineSet
292 -289 m 1,0,1
 125 -14 125 -14 125 311 c 0,2,3
 125 632 125 632 251 900 c 128,-1,4
 377 1168 377 1168 651 1434 c 1,5,-1
 781 1434 l 1,6,7
 503 1160 503 1160 372.5 892.5 c 128,-1,8
 242 625 242 625 242 322 c 0,9,10
 242 157 242 157 286 -2 c 128,-1,11
 330 -161 330 -161 408 -289 c 1,12,-1
 292 -289 l 1,0,1
EndSplineSet
Position2: "SegoeUI-SemilightItalic-'case' Case-Sensitive Forms lookup 15 subtable" dx=30 dy=140 dh=0 dv=0
EndChar

StartChar: parenright
Encoding: 41 41 111
Width: 604
GlyphClass: 2
Flags: W
LayerCount: 2
Fore
SplineSet
-162 -289 m 1,0,1
 120 -11 120 -11 248.5 256.5 c 128,-1,2
 377 524 377 524 377 822 c 0,3,4
 377 1157 377 1157 211 1434 c 1,5,-1
 328 1434 l 1,6,7
 495 1146 495 1146 495 833 c 0,8,9
 495 519 495 519 372.5 253 c 128,-1,10
 250 -13 250 -13 -32 -289 c 1,11,-1
 -162 -289 l 1,0,1
EndSplineSet
Position2: "SegoeUI-SemilightItalic-'case' Case-Sensitive Forms lookup 15 subtable" dx=30 dy=140 dh=0 dv=0
EndChar

StartChar: asterisk
Encoding: 42 42 112
Width: 843
GlyphClass: 2
Flags: W
LayerCount: 2
Fore
SplineSet
473 1050 m 1,0,-1
 187 1116 l 1,1,-1
 220 1220 l 1,2,-1
 497 1119 l 1,3,-1
 478 1434 l 1,4,-1
 592 1434 l 1,5,-1
 574 1119 l 1,6,-1
 849 1220 l 1,7,-1
 883 1116 l 1,8,-1
 599 1050 l 1,9,-1
 794 794 l 1,10,-1
 702 731 l 1,11,-1
 536 1002 l 1,12,-1
 368 731 l 1,13,-1
 277 794 l 1,14,-1
 473 1050 l 1,0,-1
EndSplineSet
EndChar

StartChar: plus
Encoding: 43 43 113
Width: 1364
GlyphClass: 2
Flags: W
LayerCount: 2
Fore
SplineSet
244 651 m 1,0,-1
 653 651 l 1,1,-1
 653 1058 l 1,2,-1
 758 1058 l 1,3,-1
 758 651 l 1,4,-1
 1166 651 l 1,5,-1
 1166 543 l 1,6,-1
 758 543 l 1,7,-1
 758 136 l 1,8,-1
 653 136 l 1,9,-1
 653 543 l 1,10,-1
 244 543 l 1,11,-1
 244 651 l 1,0,-1
EndSplineSet
EndChar

StartChar: comma
Encoding: 44 44 114
Width: 451
GlyphClass: 2
Flags: W
LayerCount: 2
Fore
SplineSet
143 227 m 1,0,-1
 276 227 l 1,1,-1
 56 -255 l 1,2,-1
 -49 -255 l 1,3,-1
 143 227 l 1,0,-1
EndSplineSet
Substitution2: "SegoeUI-SemilightItalic-'ss19' Style Set 19 lookup 6 subtable" comma.ss19
EndChar

StartChar: hyphen
Encoding: 45 45 115
AltUni2: 002010.ffffffff.0 002010.ffffffff.0
Width: 817
GlyphClass: 2
Flags: W
LayerCount: 2
Fore
SplineSet
162 640 m 1,0,-1
 709 640 l 1,1,-1
 684 532 l 1,2,-1
 137 532 l 1,3,-1
 162 640 l 1,0,-1
EndSplineSet
Position2: "SegoeUI-SemilightItalic-'case' Case-Sensitive Forms lookup 15 subtable" dx=23 dy=110 dh=0 dv=0
EndChar

StartChar: period
Encoding: 46 46 116
Width: 451
GlyphClass: 2
Flags: W
LayerCount: 2
Fore
SplineSet
138 -20 m 0,0,1
 101 -20 101 -20 73 7 c 128,-1,2
 45 34 45 34 45 75 c 0,3,4
 45 115 45 115 72 142 c 128,-1,5
 99 169 99 169 138 169 c 0,6,7
 178 169 178 169 206 142 c 128,-1,8
 234 115 234 115 234 75 c 0,9,10
 234 36 234 36 205.5 8 c 128,-1,11
 177 -20 177 -20 138 -20 c 0,0,1
EndSplineSet
EndChar

StartChar: slash
Encoding: 47 47 117
Width: 800
GlyphClass: 2
Flags: W
LayerCount: 2
Fore
SplineSet
875 1434 m 1,0,-1
 1007 1434 l 1,1,-1
 -34 -238 l 1,2,-1
 -165 -238 l 1,3,-1
 875 1434 l 1,0,-1
EndSplineSet
Substitution2: "SegoeUI-SemilightItalic-'frac' Diagonal Fractions lookup 17 subtable" fraction
EndChar

StartChar: zero
Encoding: 48 48 118
Width: 1111
GlyphClass: 2
Flags: W
LayerCount: 2
Fore
SplineSet
1089 1035 m 0,0,1
 1089 745 1089 745 1007 499 c 128,-1,2
 925 253 925 253 783 114 c 128,-1,3
 641 -25 641 -25 464 -25 c 0,4,5
 295 -25 295 -25 205 98.5 c 128,-1,6
 115 222 115 222 115 447 c 0,7,8
 115 716 115 716 203 958 c 128,-1,9
 291 1200 291 1200 433 1329 c 128,-1,10
 575 1458 575 1458 750 1458 c 0,11,12
 912 1458 912 1458 1000.5 1348.5 c 128,-1,13
 1089 1239 1089 1239 1089 1035 c 0,0,1
962 1025 m 0,14,15
 962 1181 962 1181 904 1265 c 128,-1,16
 846 1349 846 1349 738 1349 c 0,17,18
 633 1349 633 1349 543.5 1274.5 c 128,-1,19
 454 1200 454 1200 388 1064 c 128,-1,20
 322 928 322 928 283.5 761 c 128,-1,21
 245 594 245 594 245 450 c 0,22,23
 245 261 245 261 307.5 173 c 128,-1,24
 370 85 370 85 480 85 c 0,25,26
 610 85 610 85 716 208 c 128,-1,27
 822 331 822 331 892 562.5 c 128,-1,28
 962 794 962 794 962 1025 c 0,14,15
EndSplineSet
Substitution2: "SegoeUI-SemilightItalic-Single Substitution lookup 31 subtable" glyph2828
Substitution2: "SegoeUI-SemilightItalic-'pnum' Proportional Numbers lookup 24 subtable" zero.pnum
Substitution2: "SegoeUI-SemilightItalic-'onum' Oldstyle Figures lookup 22 subtable" zero.oldstyle
Substitution2: "SegoeUI-SemilightItalic-'frac' Diagonal Fractions lookup 19 subtable" zero.frac
Substitution2: "SegoeUI-SemilightItalic-'ss20' Style Set 20 lookup 5 subtable" zero.ss20
Substitution2: "SegoeUI-SemilightItalic-'sups' Superscript lookup 3 subtable" uni2070
Substitution2: "SegoeUI-SemilightItalic-'subs' Subscript lookup 2 subtable" uni2080
EndChar

StartChar: one
Encoding: 49 49 119
Width: 818
GlyphClass: 2
Flags: W
LayerCount: 2
Fore
SplineSet
549 1293 m 1,0,-1
 183 1187 l 1,1,-1
 209 1313 l 1,2,-1
 708 1458 l 1,3,-1
 400 0 l 1,4,-1
 273 0 l 1,5,-1
 549 1293 l 1,0,-1
EndSplineSet
Substitution2: "SegoeUI-SemilightItalic-Single Substitution lookup 31 subtable" glyph2829
Substitution2: "SegoeUI-SemilightItalic-'pnum' Proportional Numbers lookup 24 subtable" one.pnum
Substitution2: "SegoeUI-SemilightItalic-'onum' Oldstyle Figures lookup 22 subtable" one.oldstyle
Substitution2: "SegoeUI-SemilightItalic-'frac' Diagonal Fractions lookup 19 subtable" one.frac
Substitution2: "SegoeUI-SemilightItalic-'ss20' Style Set 20 lookup 5 subtable" one.ss20
Substitution2: "SegoeUI-SemilightItalic-'sups' Superscript lookup 3 subtable" uni00B9
Substitution2: "SegoeUI-SemilightItalic-'subs' Subscript lookup 2 subtable" uni2081
EndChar

StartChar: two
Encoding: 50 50 120
Width: 978
GlyphClass: 2
Flags: W
LayerCount: 2
Fore
SplineSet
852 1127 m 0,0,1
 852 1228 852 1228 787.5 1288.5 c 128,-1,2
 723 1349 723 1349 609 1349 c 0,3,4
 442 1349 442 1349 249 1210 c 1,5,-1
 280 1354 l 1,6,7
 433 1458 433 1458 632 1458 c 0,8,9
 793 1458 793 1458 888 1373.5 c 128,-1,10
 983 1289 983 1289 983 1143 c 0,11,12
 983 1020 983 1020 945.5 935 c 128,-1,13
 908 850 908 850 821 769 c 128,-1,14
 734 688 734 688 541 566 c 0,15,16
 383 468 383 468 288.5 398.5 c 128,-1,17
 194 329 194 329 149 268 c 128,-1,18
 104 207 104 207 83 113 c 1,19,-1
 794 113 l 1,20,-1
 770 0 l 1,21,-1
 -73 0 l 1,22,-1
 -59 69 l 2,23,24
 -35 179 -35 179 -4.5 240 c 128,-1,25
 26 301 26 301 76.5 356 c 128,-1,26
 127 411 127 411 219.5 480 c 128,-1,27
 312 549 312 549 455 638 c 0,28,29
 629 748 629 748 706.5 818 c 128,-1,30
 784 888 784 888 818 959.5 c 128,-1,31
 852 1031 852 1031 852 1127 c 0,0,1
EndSplineSet
Substitution2: "SegoeUI-SemilightItalic-Single Substitution lookup 31 subtable" glyph2830
Substitution2: "SegoeUI-SemilightItalic-'pnum' Proportional Numbers lookup 24 subtable" two.pnum
Substitution2: "SegoeUI-SemilightItalic-'onum' Oldstyle Figures lookup 22 subtable" two.oldstyle
Substitution2: "SegoeUI-SemilightItalic-'frac' Diagonal Fractions lookup 19 subtable" two.frac
Substitution2: "SegoeUI-SemilightItalic-'ss20' Style Set 20 lookup 5 subtable" two.ss20
Substitution2: "SegoeUI-SemilightItalic-'sups' Superscript lookup 3 subtable" uni00B2
Substitution2: "SegoeUI-SemilightItalic-'subs' Subscript lookup 2 subtable" uni2082
EndChar

StartChar: three
Encoding: 51 51 121
Width: 940
GlyphClass: 2
Flags: W
LayerCount: 2
Fore
SplineSet
-26 180 m 1,0,1
 38 137 38 137 129 111 c 128,-1,2
 220 85 220 85 297 85 c 0,3,4
 480 85 480 85 582.5 169 c 128,-1,5
 685 253 685 253 685 410 c 0,6,7
 685 544 685 544 596 614.5 c 128,-1,8
 507 685 507 685 327 685 c 2,9,-1
 221 685 l 1,10,-1
 247 799 l 1,11,-1
 352 799 l 2,12,13
 575 799 575 799 688.5 883.5 c 128,-1,14
 802 968 802 968 802 1123 c 0,15,16
 802 1228 802 1228 736.5 1288.5 c 128,-1,17
 671 1349 671 1349 559 1349 c 0,18,19
 408 1349 408 1349 250 1262 c 1,20,-1
 275 1392 l 1,21,22
 418 1458 418 1458 577 1458 c 0,23,24
 741 1458 741 1458 836.5 1371.5 c 128,-1,25
 932 1285 932 1285 932 1140 c 0,26,27
 932 983 932 983 833.5 878 c 128,-1,28
 735 773 735 773 556 740 c 1,29,-1
 556 736 l 1,30,31
 671 716 671 716 742 629.5 c 128,-1,32
 813 543 813 543 813 419 c 0,33,34
 813 217 813 217 671.5 96 c 128,-1,35
 530 -25 530 -25 288 -25 c 0,36,37
 202 -25 202 -25 106.5 -2.5 c 128,-1,38
 11 20 11 20 -55 54 c 1,39,-1
 -26 180 l 1,0,1
EndSplineSet
Substitution2: "SegoeUI-SemilightItalic-Single Substitution lookup 31 subtable" glyph2831
Substitution2: "SegoeUI-SemilightItalic-'pnum' Proportional Numbers lookup 24 subtable" three.pnum
Substitution2: "SegoeUI-SemilightItalic-'onum' Oldstyle Figures lookup 22 subtable" three.oldstyle
Substitution2: "SegoeUI-SemilightItalic-'frac' Diagonal Fractions lookup 19 subtable" three.frac
Substitution2: "SegoeUI-SemilightItalic-'ss20' Style Set 20 lookup 5 subtable" three.ss20
Substitution2: "SegoeUI-SemilightItalic-'sups' Superscript lookup 3 subtable" uni00B3
Substitution2: "SegoeUI-SemilightItalic-'subs' Subscript lookup 2 subtable" uni2083
EndChar

StartChar: four
Encoding: 52 52 122
Width: 1087
GlyphClass: 2
Flags: W
LayerCount: 2
Fore
SplineSet
916 1434 m 1,0,-1
 1052 1434 l 1,1,-1
 847 471 l 1,2,-1
 1071 471 l 1,3,-1
 1047 357 l 1,4,-1
 823 357 l 1,5,-1
 747 0 l 1,6,-1
 623 0 l 1,7,-1
 699 357 l 1,8,-1
 21 357 l 1,9,-1
 45 471 l 1,10,11
 273 679 273 679 515.5 947 c 128,-1,12
 758 1215 758 1215 916 1434 c 1,0,-1
723 471 m 1,13,-1
 882 1219 l 1,14,15
 583 842 583 842 195 471 c 1,16,-1
 723 471 l 1,13,-1
EndSplineSet
Substitution2: "SegoeUI-SemilightItalic-Single Substitution lookup 31 subtable" glyph2832
Substitution2: "SegoeUI-SemilightItalic-'pnum' Proportional Numbers lookup 24 subtable" four.pnum
Substitution2: "SegoeUI-SemilightItalic-'onum' Oldstyle Figures lookup 22 subtable" four.oldstyle
Substitution2: "SegoeUI-SemilightItalic-'frac' Diagonal Fractions lookup 19 subtable" four.frac
Substitution2: "SegoeUI-SemilightItalic-'ss20' Style Set 20 lookup 5 subtable" four.ss20
Substitution2: "SegoeUI-SemilightItalic-'sups' Superscript lookup 3 subtable" uni2074
Substitution2: "SegoeUI-SemilightItalic-'subs' Subscript lookup 2 subtable" uni2084
EndChar

StartChar: five
Encoding: 53 53 123
Width: 962
GlyphClass: 2
Flags: W
LayerCount: 2
Fore
SplineSet
40 153 m 1,0,1
 90 123 90 123 169 104 c 128,-1,2
 248 85 248 85 320 85 c 0,3,4
 448 85 448 85 541.5 132 c 128,-1,5
 635 179 635 179 685 266 c 128,-1,6
 735 353 735 353 735 467 c 0,7,8
 735 746 735 746 415 746 c 0,9,10
 301 746 301 746 181 734 c 1,11,-1
 371 1434 l 1,12,-1
 997 1434 l 1,13,-1
 973 1317 l 1,14,-1
 459 1317 l 1,15,-1
 331 852 l 1,16,-1
 448 857 l 1,17,18
 645 857 645 857 755 760 c 128,-1,19
 865 663 865 663 865 488 c 0,20,21
 865 338 865 338 798.5 220.5 c 128,-1,22
 732 103 732 103 607 39 c 128,-1,23
 482 -25 482 -25 311 -25 c 0,24,25
 130 -25 130 -25 11 26 c 1,26,-1
 40 153 l 1,0,1
EndSplineSet
Substitution2: "SegoeUI-SemilightItalic-Single Substitution lookup 31 subtable" glyph2833
Substitution2: "SegoeUI-SemilightItalic-'pnum' Proportional Numbers lookup 24 subtable" five.pnum
Substitution2: "SegoeUI-SemilightItalic-'onum' Oldstyle Figures lookup 22 subtable" five.oldstyle
Substitution2: "SegoeUI-SemilightItalic-'frac' Diagonal Fractions lookup 19 subtable" five.frac
Substitution2: "SegoeUI-SemilightItalic-'ss20' Style Set 20 lookup 5 subtable" five.ss20
Substitution2: "SegoeUI-SemilightItalic-'sups' Superscript lookup 3 subtable" uni2075
Substitution2: "SegoeUI-SemilightItalic-'subs' Subscript lookup 2 subtable" uni2085
EndChar

StartChar: six
Encoding: 54 54 124
Width: 1063
GlyphClass: 2
Flags: W
LayerCount: 2
Fore
SplineSet
270 680 m 1,0,1
 328 780 328 780 423 838 c 128,-1,2
 518 896 518 896 634 896 c 0,3,4
 799 896 799 896 894.5 794 c 128,-1,5
 990 692 990 692 990 513 c 0,6,7
 990 364 990 364 929 239.5 c 128,-1,8
 868 115 868 115 760.5 45 c 128,-1,9
 653 -25 653 -25 520 -25 c 0,10,11
 335 -25 335 -25 232 107.5 c 128,-1,12
 129 240 129 240 129 479 c 0,13,14
 129 745 129 745 228 975 c 128,-1,15
 327 1205 327 1205 495 1331.5 c 128,-1,16
 663 1458 663 1458 870 1458 c 0,17,18
 992 1458 992 1458 1096 1418 c 1,19,-1
 1071 1298 l 1,20,21
 971 1349 971 1349 853 1349 c 0,22,23
 711 1349 711 1349 588.5 1263.5 c 128,-1,24
 466 1178 466 1178 379.5 1018.5 c 128,-1,25
 293 859 293 859 266 680 c 1,26,-1
 270 680 l 1,0,1
526 85 m 0,27,28
 620 85 620 85 697 139.5 c 128,-1,29
 774 194 774 194 817.5 292 c 128,-1,30
 861 390 861 390 861 502 c 0,31,32
 861 633 861 633 791 709.5 c 128,-1,33
 721 786 721 786 600 786 c 0,34,35
 504 786 504 786 426 738.5 c 128,-1,36
 348 691 348 691 304 607.5 c 128,-1,37
 260 524 260 524 260 426 c 0,38,39
 260 272 260 272 332.5 178.5 c 128,-1,40
 405 85 405 85 526 85 c 0,27,28
EndSplineSet
Substitution2: "SegoeUI-SemilightItalic-Single Substitution lookup 31 subtable" glyph2834
Substitution2: "SegoeUI-SemilightItalic-'pnum' Proportional Numbers lookup 24 subtable" six.pnum
Substitution2: "SegoeUI-SemilightItalic-'onum' Oldstyle Figures lookup 22 subtable" six.oldstyle
Substitution2: "SegoeUI-SemilightItalic-'frac' Diagonal Fractions lookup 19 subtable" six.frac
Substitution2: "SegoeUI-SemilightItalic-'ss20' Style Set 20 lookup 5 subtable" six.ss20
Substitution2: "SegoeUI-SemilightItalic-'sups' Superscript lookup 3 subtable" uni2076
Substitution2: "SegoeUI-SemilightItalic-'subs' Subscript lookup 2 subtable" uni2086
EndChar

StartChar: seven
Encoding: 55 55 125
Width: 964
GlyphClass: 2
Flags: W
LayerCount: 2
Fore
SplineSet
97 0 m 1,0,1
 196 271 196 271 383.5 585 c 128,-1,2
 571 899 571 899 894 1317 c 1,3,-1
 162 1317 l 1,4,-1
 186 1434 l 1,5,-1
 1082 1434 l 1,6,-1
 1068 1366 l 1,7,8
 789 1001 789 1001 649 791 c 128,-1,9
 509 581 509 581 408 388 c 128,-1,10
 307 195 307 195 239 0 c 1,11,-1
 97 0 l 1,0,1
EndSplineSet
Substitution2: "SegoeUI-SemilightItalic-Single Substitution lookup 31 subtable" glyph2835
Substitution2: "SegoeUI-SemilightItalic-'pnum' Proportional Numbers lookup 24 subtable" seven.pnum
Substitution2: "SegoeUI-SemilightItalic-'onum' Oldstyle Figures lookup 22 subtable" seven.oldstyle
Substitution2: "SegoeUI-SemilightItalic-'frac' Diagonal Fractions lookup 19 subtable" seven.frac
Substitution2: "SegoeUI-SemilightItalic-'ss20' Style Set 20 lookup 5 subtable" seven.ss20
Substitution2: "SegoeUI-SemilightItalic-'sups' Superscript lookup 3 subtable" uni2077
Substitution2: "SegoeUI-SemilightItalic-'subs' Subscript lookup 2 subtable" uni2087
EndChar

StartChar: eight
Encoding: 56 56 126
Width: 1049
GlyphClass: 2
Flags: W
LayerCount: 2
Fore
SplineSet
410 777 m 1,0,1
 338 818 338 818 294.5 888 c 128,-1,2
 251 958 251 958 251 1054 c 0,3,4
 251 1163 251 1163 308 1256.5 c 128,-1,5
 365 1350 365 1350 467.5 1404 c 128,-1,6
 570 1458 570 1458 693 1458 c 0,7,8
 848 1458 848 1458 945 1371.5 c 128,-1,9
 1042 1285 1042 1285 1042 1147 c 0,10,11
 1042 1008 1042 1008 964.5 911 c 128,-1,12
 887 814 887 814 751 769 c 1,13,14
 844 729 844 729 896.5 644.5 c 128,-1,15
 949 560 949 560 949 457 c 0,16,17
 949 326 949 326 881.5 215 c 128,-1,18
 814 104 814 104 696 40.5 c 128,-1,19
 578 -23 578 -23 442 -23 c 0,20,21
 256 -23 256 -23 151 73 c 128,-1,22
 46 169 46 169 46 339 c 0,23,24
 46 496 46 496 144 616 c 128,-1,25
 242 736 242 736 410 777 c 1,0,1
181 343 m 0,26,27
 181 225 181 225 254.5 156.5 c 128,-1,28
 328 88 328 88 453 88 c 0,29,30
 549 88 549 88 633 138 c 128,-1,31
 717 188 717 188 765.5 273.5 c 128,-1,32
 814 359 814 359 814 458 c 0,33,34
 814 573 814 573 744 643 c 128,-1,35
 674 713 674 713 559 713 c 0,36,37
 458 713 458 713 370.5 664.5 c 128,-1,38
 283 616 283 616 232 530.5 c 128,-1,39
 181 445 181 445 181 343 c 0,26,27
380 1043 m 0,40,41
 380 944 380 944 440 882.5 c 128,-1,42
 500 821 500 821 597 821 c 0,43,44
 675 821 675 821 748.5 863 c 128,-1,45
 822 905 822 905 866 977.5 c 128,-1,46
 910 1050 910 1050 910 1133 c 0,47,48
 910 1229 910 1229 846.5 1289 c 128,-1,49
 783 1349 783 1349 682 1349 c 0,50,51
 558 1349 558 1349 469 1258.5 c 128,-1,52
 380 1168 380 1168 380 1043 c 0,40,41
EndSplineSet
Substitution2: "SegoeUI-SemilightItalic-Single Substitution lookup 31 subtable" glyph2836
Substitution2: "SegoeUI-SemilightItalic-'pnum' Proportional Numbers lookup 24 subtable" eight.pnum
Substitution2: "SegoeUI-SemilightItalic-'onum' Oldstyle Figures lookup 22 subtable" eight.oldstyle
Substitution2: "SegoeUI-SemilightItalic-'frac' Diagonal Fractions lookup 19 subtable" eight.frac
Substitution2: "SegoeUI-SemilightItalic-'ss20' Style Set 20 lookup 5 subtable" eight.ss20
Substitution2: "SegoeUI-SemilightItalic-'sups' Superscript lookup 3 subtable" uni2078
Substitution2: "SegoeUI-SemilightItalic-'subs' Subscript lookup 2 subtable" uni2088
EndChar

StartChar: nine
Encoding: 57 57 127
Width: 1072
GlyphClass: 2
Flags: W
LayerCount: 2
Fore
SplineSet
81 135 m 1,0,1
 181 85 181 85 293 85 c 0,2,3
 522 85 522 85 682.5 263.5 c 128,-1,4
 843 442 843 442 893 740 c 1,5,-1
 889 740 l 1,6,7
 831 638 831 638 736.5 581 c 128,-1,8
 642 524 642 524 531 524 c 0,9,10
 422 524 422 524 339 576 c 128,-1,11
 256 628 256 628 211 720.5 c 128,-1,12
 166 813 166 813 166 925 c 0,13,14
 166 1066 166 1066 227 1190 c 128,-1,15
 288 1314 288 1314 398 1386 c 128,-1,16
 508 1458 508 1458 641 1458 c 0,17,18
 826 1458 826 1458 927.5 1326 c 128,-1,19
 1029 1194 1029 1194 1029 957 c 0,20,21
 1029 691 1029 691 928.5 456 c 128,-1,22
 828 221 828 221 661 98 c 128,-1,23
 494 -25 494 -25 284 -25 c 0,24,25
 152 -25 152 -25 61 15 c 1,26,-1
 81 135 l 1,0,1
554 634 m 0,27,28
 653 634 653 634 732.5 683 c 128,-1,29
 812 732 812 732 856 817.5 c 128,-1,30
 900 903 900 903 900 1000 c 0,31,32
 900 1161 900 1161 829 1255 c 128,-1,33
 758 1349 758 1349 636 1349 c 0,34,35
 541 1349 541 1349 462 1293 c 128,-1,36
 383 1237 383 1237 339 1142 c 128,-1,37
 295 1047 295 1047 295 937 c 0,38,39
 295 801 295 801 366.5 717.5 c 128,-1,40
 438 634 438 634 554 634 c 0,27,28
EndSplineSet
Substitution2: "SegoeUI-SemilightItalic-Single Substitution lookup 31 subtable" glyph2837
Substitution2: "SegoeUI-SemilightItalic-'pnum' Proportional Numbers lookup 24 subtable" nine.pnum
Substitution2: "SegoeUI-SemilightItalic-'onum' Oldstyle Figures lookup 22 subtable" nine.oldstyle
Substitution2: "SegoeUI-SemilightItalic-'frac' Diagonal Fractions lookup 19 subtable" nine.frac
Substitution2: "SegoeUI-SemilightItalic-'ss20' Style Set 20 lookup 5 subtable" nine.ss20
Substitution2: "SegoeUI-SemilightItalic-'sups' Superscript lookup 3 subtable" uni2079
Substitution2: "SegoeUI-SemilightItalic-'subs' Subscript lookup 2 subtable" uni2089
EndChar

StartChar: colon
Encoding: 58 58 128
Width: 451
GlyphClass: 2
Flags: W
LayerCount: 2
Fore
SplineSet
322 855 m 0,0,1
 285 855 285 855 257 882 c 128,-1,2
 229 909 229 909 229 951 c 0,3,4
 229 991 229 991 257 1017.5 c 128,-1,5
 285 1044 285 1044 322 1044 c 0,6,7
 361 1044 361 1044 389.5 1017 c 128,-1,8
 418 990 418 990 418 951 c 0,9,10
 418 910 418 910 389 882.5 c 128,-1,11
 360 855 360 855 322 855 c 0,0,1
138 -20 m 0,12,13
 101 -20 101 -20 73 7 c 128,-1,14
 45 34 45 34 45 75 c 0,15,16
 45 115 45 115 72 142 c 128,-1,17
 99 169 99 169 138 169 c 0,18,19
 178 169 178 169 206 142 c 128,-1,20
 234 115 234 115 234 75 c 0,21,22
 234 36 234 36 205.5 8 c 128,-1,23
 177 -20 177 -20 138 -20 c 0,12,13
EndSplineSet
EndChar

StartChar: semicolon
Encoding: 59 59 129
Width: 451
GlyphClass: 2
Flags: W
LayerCount: 2
Fore
SplineSet
322 855 m 0,0,1
 285 855 285 855 257 882 c 128,-1,2
 229 909 229 909 229 951 c 0,3,4
 229 991 229 991 257 1017.5 c 128,-1,5
 285 1044 285 1044 322 1044 c 0,6,7
 361 1044 361 1044 389.5 1017 c 128,-1,8
 418 990 418 990 418 951 c 0,9,10
 418 910 418 910 389 882.5 c 128,-1,11
 360 855 360 855 322 855 c 0,0,1
122 227 m 1,12,-1
 255 227 l 1,13,-1
 36 -255 l 1,14,-1
 -70 -255 l 1,15,-1
 122 227 l 1,12,-1
EndSplineSet
Substitution2: "SegoeUI-SemilightItalic-'ss19' Style Set 19 lookup 6 subtable" semicolon.ss19
EndChar

StartChar: less
Encoding: 60 60 130
Width: 1364
GlyphClass: 2
Flags: W
LayerCount: 2
Fore
SplineSet
227 607 m 1,0,-1
 1073 1081 l 1,1,-1
 1073 961 l 1,2,-1
 411 593 l 1,3,-1
 411 589 l 1,4,-1
 1073 264 l 1,5,-1
 1073 144 l 1,6,-1
 227 570 l 1,7,-1
 227 607 l 1,0,-1
EndSplineSet
EndChar

StartChar: equal
Encoding: 61 61 131
Width: 1364
GlyphClass: 2
Flags: W
LayerCount: 2
Fore
SplineSet
244 854 m 1,0,-1
 1166 854 l 1,1,-1
 1166 747 l 1,2,-1
 244 747 l 1,3,-1
 244 854 l 1,0,-1
244 448 m 1,4,-1
 1166 448 l 1,5,-1
 1166 341 l 1,6,-1
 244 341 l 1,7,-1
 244 448 l 1,4,-1
357 651 m 1024,8,-1
EndSplineSet
EndChar

StartChar: greater
Encoding: 62 62 132
Width: 1364
GlyphClass: 2
Flags: W
LayerCount: 2
Fore
SplineSet
308 264 m 1,0,-1
 970 588 l 1,1,-1
 970 593 l 1,2,-1
 308 960 l 1,3,-1
 308 1081 l 1,4,-1
 1152 607 l 1,5,-1
 1152 570 l 1,6,-1
 308 144 l 1,7,-1
 308 264 l 1,0,-1
EndSplineSet
EndChar

StartChar: question
Encoding: 63 63 133
Width: 814
GlyphClass: 2
Flags: W
LayerCount: 2
Fore
SplineSet
277 403 m 1,0,1
 304 556 304 556 356.5 639.5 c 128,-1,2
 409 723 409 723 523 801 c 0,3,4
 654 891 654 891 703.5 968 c 128,-1,5
 753 1045 753 1045 753 1137 c 0,6,7
 753 1235 753 1235 692.5 1293 c 128,-1,8
 632 1351 632 1351 532 1351 c 0,9,10
 401 1351 401 1351 257 1268 c 1,11,-1
 280 1400 l 1,12,13
 414 1460 414 1460 552 1460 c 0,14,15
 698 1460 698 1460 788 1374.5 c 128,-1,16
 878 1289 878 1289 878 1150 c 0,17,18
 878 1027 878 1027 814.5 927.5 c 128,-1,19
 751 828 751 828 609 729 c 0,20,21
 506 658 506 658 463.5 595.5 c 128,-1,22
 421 533 421 533 396 403 c 1,23,-1
 277 403 l 1,0,1
187 76 m 0,24,25
 187 117 187 117 214.5 144 c 128,-1,26
 242 171 242 171 281 171 c 0,27,28
 319 171 319 171 347.5 144 c 128,-1,29
 376 117 376 117 376 76 c 0,30,31
 376 36 376 36 348 9 c 128,-1,32
 320 -18 320 -18 281 -18 c 256,33,34
 242 -18 242 -18 214.5 9.5 c 128,-1,35
 187 37 187 37 187 76 c 0,24,25
EndSplineSet
Substitution2: "SegoeUI-SemilightItalic-'ss19' Style Set 19 lookup 6 subtable" question.ss19
EndChar

StartChar: at
Encoding: 64 64 134
Width: 1966
GlyphClass: 2
Flags: W
LayerCount: 2
Fore
SplineSet
1000 -187 m 0,0,1
 634 -187 634 -187 425.5 12 c 128,-1,2
 217 211 217 211 217 567 c 0,3,4
 217 815 217 815 334 1019.5 c 128,-1,5
 451 1224 451 1224 658.5 1340 c 128,-1,6
 866 1456 866 1456 1111 1456 c 0,7,8
 1326 1456 1326 1456 1489 1373 c 128,-1,9
 1652 1290 1652 1290 1739 1137.5 c 128,-1,10
 1826 985 1826 985 1826 788 c 0,11,12
 1826 629 1826 629 1767 489 c 128,-1,13
 1708 349 1708 349 1605.5 266.5 c 128,-1,14
 1503 184 1503 184 1379 184 c 0,15,16
 1279 184 1279 184 1224.5 236 c 128,-1,17
 1170 288 1170 288 1170 378 c 1,18,-1
 1174 423 l 1,19,-1
 1170 423 l 1,20,21
 1104 305 1104 305 1027 245 c 128,-1,22
 950 185 950 185 847 185 c 0,23,24
 737 185 737 185 669.5 266 c 128,-1,25
 602 347 602 347 602 483 c 0,26,27
 602 640 602 640 665 780 c 128,-1,28
 728 920 728 920 836 1001.5 c 128,-1,29
 944 1083 944 1083 1070 1083 c 0,30,31
 1232 1083 1232 1083 1281 941 c 1,32,-1
 1285 941 l 1,33,-1
 1319 1069 l 1,34,-1
 1427 1069 l 1,35,-1
 1302 571 l 2,36,37
 1275 468 1275 468 1275 412 c 0,38,39
 1275 344 1275 344 1301 313.5 c 128,-1,40
 1327 283 1327 283 1391 283 c 0,41,42
 1525 283 1525 283 1621 428.5 c 128,-1,43
 1717 574 1717 574 1717 771 c 0,44,45
 1717 1046 1717 1046 1556 1201 c 128,-1,46
 1395 1356 1395 1356 1097 1356 c 0,47,48
 883 1356 883 1356 706 1253 c 128,-1,49
 529 1150 529 1150 429.5 970 c 128,-1,50
 330 790 330 790 330 567 c 0,51,52
 330 254 330 254 505.5 83 c 128,-1,53
 681 -88 681 -88 1007 -88 c 0,54,55
 1138 -88 1138 -88 1267.5 -59.5 c 128,-1,56
 1397 -31 1397 -31 1478 8 c 1,57,-1
 1455 -103 l 1,58,59
 1259 -187 1259 -187 1000 -187 c 0,0,1
1230 809 m 0,60,61
 1230 897 1230 897 1187.5 942.5 c 128,-1,62
 1145 988 1145 988 1067 988 c 0,63,64
 976 988 976 988 895.5 921.5 c 128,-1,65
 815 855 815 855 767.5 738.5 c 128,-1,66
 720 622 720 622 720 487 c 0,67,68
 720 395 720 395 762 339.5 c 128,-1,69
 804 284 804 284 871 284 c 0,70,71
 969 284 969 284 1048.5 361 c 128,-1,72
 1128 438 1128 438 1179 577.5 c 128,-1,73
 1230 717 1230 717 1230 809 c 0,60,61
EndSplineSet
EndChar

StartChar: A
Encoding: 65 65 135
Width: 1247
GlyphClass: 2
Flags: W
AnchorPoint: "Anchor-15" 180 2100 basechar 0
AnchorPoint: "Anchor-14" 1474 2100 basechar 0
AnchorPoint: "Anchor-11" 975 0 basechar 0
AnchorPoint: "Anchor-10" 510 -50 basechar 0
AnchorPoint: "Anchor-9" 1000 1434 basechar 0
AnchorPoint: "Anchor-8" 1026 -420 basechar 0
AnchorPoint: "Anchor-7" 1356 1900 basechar 0
AnchorPoint: "Anchor-6" 660 717 basechar 0
AnchorPoint: "Anchor-5" 960 1434 basechar 0
AnchorPoint: "Anchor-2" 500 -15 basechar 0
AnchorPoint: "Anchor-1" 1095 1500 basechar 0
AnchorPoint: "Anchor-0" 850 1600 basechar 0
LayerCount: 2
Fore
SplineSet
749 1434 m 1,0,-1
 880 1434 l 1,1,-1
 1120 0 l 1,2,-1
 985 0 l 1,3,-1
 916 425 l 1,4,-1
 304 425 l 1,5,-1
 54 0 l 1,6,-1
 -93 0 l 1,7,-1
 749 1434 l 1,0,-1
897 544 m 1,8,-1
 799 1183 l 2,9,10
 792 1237 792 1237 792 1286 c 1,11,-1
 788 1286 l 1,12,-1
 779 1264 l 2,13,14
 773 1248 773 1248 751 1206.5 c 128,-1,15
 729 1165 729 1165 370 544 c 1,16,-1
 897 544 l 1,8,-1
EndSplineSet
Substitution2: "SegoeUI-SemilightItalic-'c2sc' Capitals to Small Capitals lookup 13 subtable" A.c2sc
Position2: "SegoeUI-SemilightItalic-'cpsp' Capital Spacing lookup 12 subtable" dx=36 dy=0 dh=72 dv=0
EndChar

StartChar: B
Encoding: 66 66 136
Width: 1137
GlyphClass: 2
Flags: W
AnchorPoint: "Anchor-15" 180 2100 basechar 0
AnchorPoint: "Anchor-14" 1354 2100 basechar 0
AnchorPoint: "Anchor-11" 450 0 basechar 0
AnchorPoint: "Anchor-9" 1160 1274 basechar 0
AnchorPoint: "Anchor-8" 976 -420 basechar 0
AnchorPoint: "Anchor-7" 1306 1900 basechar 0
AnchorPoint: "Anchor-6" 587 717 basechar 0
AnchorPoint: "Anchor-5" 1110 1314 basechar 0
AnchorPoint: "Anchor-2" 390 -15 basechar 0
AnchorPoint: "Anchor-1" 1180 1500 basechar 0
AnchorPoint: "Anchor-0" 720 1600 basechar 0
LayerCount: 2
Fore
SplineSet
378 1434 m 1,0,-1
 748 1434 l 2,1,2
 906 1434 906 1434 998 1350 c 128,-1,3
 1090 1266 1090 1266 1090 1126 c 0,4,5
 1090 975 1090 975 1005.5 873 c 128,-1,6
 921 771 921 771 769 742 c 1,7,-1
 769 738 l 1,8,9
 880 717 880 717 944 638.5 c 128,-1,10
 1008 560 1008 560 1008 444 c 0,11,12
 1008 234 1008 234 872 117 c 128,-1,13
 736 0 736 0 495 0 c 2,14,-1
 75 0 l 1,15,-1
 378 1434 l 1,0,-1
586 802 m 2,16,17
 760 802 760 802 856.5 883 c 128,-1,18
 953 964 953 964 953 1106 c 0,19,20
 953 1202 953 1202 891.5 1258.5 c 128,-1,21
 830 1315 830 1315 715 1315 c 2,22,-1
 487 1315 l 1,23,-1
 376 802 l 1,24,-1
 586 802 l 2,16,17
489 119 m 2,25,26
 871 119 871 119 871 434 c 0,27,28
 871 553 871 553 790.5 618.5 c 128,-1,29
 710 684 710 684 552 684 c 2,30,-1
 351 684 l 1,31,-1
 234 119 l 1,32,-1
 489 119 l 2,25,26
EndSplineSet
Substitution2: "SegoeUI-SemilightItalic-'c2sc' Capitals to Small Capitals lookup 13 subtable" B.c2sc
Position2: "SegoeUI-SemilightItalic-'cpsp' Capital Spacing lookup 12 subtable" dx=36 dy=0 dh=72 dv=0
EndChar

StartChar: C
Encoding: 67 67 137
Width: 1301
GlyphClass: 2
Flags: W
AnchorPoint: "Anchor-15" 180 2100 basechar 0
AnchorPoint: "Anchor-14" 1489 2100 basechar 0
AnchorPoint: "Anchor-11" 710 -15 basechar 0
AnchorPoint: "Anchor-10" 584 -15 basechar 0
AnchorPoint: "Anchor-9" 1333 1401 basechar 0
AnchorPoint: "Anchor-8" 1212 -420 basechar 0
AnchorPoint: "Anchor-7" 1542 1900 basechar 0
AnchorPoint: "Anchor-6" 800 741 basechar 0
AnchorPoint: "Anchor-5" 1350 1410 basechar 0
AnchorPoint: "Anchor-2" 650 -25 basechar 0
AnchorPoint: "Anchor-1" 1400 1500 basechar 0
AnchorPoint: "Anchor-0" 900 1600 basechar 0
LayerCount: 2
Fore
SplineSet
722 -25 m 2,0,1
 457 -25 457 -25 301 142.5 c 128,-1,2
 145 310 145 310 145 592 c 0,3,4
 145 845 145 845 248.5 1042.5 c 128,-1,5
 352 1240 352 1240 538 1349 c 128,-1,6
 724 1458 724 1458 956 1458 c 0,7,8
 1169 1458 1169 1458 1343 1365 c 1,9,-1
 1315 1227 l 1,10,11
 1158 1340 1158 1340 945 1340 c 0,12,13
 754 1340 754 1340 602.5 1246.5 c 128,-1,14
 451 1153 451 1153 366 985 c 128,-1,15
 281 817 281 817 281 609 c 0,16,17
 281 366 281 366 405.5 230 c 128,-1,18
 530 94 530 94 749 94 c 0,19,20
 956 94 956 94 1133 195 c 1,21,-1
 1102 54 l 1,22,23
 1011 12 1011 12 924 -6.5 c 128,-1,24
 837 -25 837 -25 728 -25 c 2,25,-1
 722 -25 l 2,0,1
EndSplineSet
Substitution2: "SegoeUI-SemilightItalic-'c2sc' Capitals to Small Capitals lookup 13 subtable" C.c2sc
Position2: "SegoeUI-SemilightItalic-'cpsp' Capital Spacing lookup 12 subtable" dx=36 dy=0 dh=72 dv=0
EndChar

StartChar: D
Encoding: 68 68 138
Width: 1419
GlyphClass: 2
Flags: W
AnchorPoint: "Anchor-15" 180 2100 basechar 0
AnchorPoint: "Anchor-14" 1638 2100 basechar 0
AnchorPoint: "Anchor-11" 450 0 basechar 0
AnchorPoint: "Anchor-9" 1320 1274 basechar 0
AnchorPoint: "Anchor-8" 1251 -420 basechar 0
AnchorPoint: "Anchor-7" 1581 1900 basechar 0
AnchorPoint: "Anchor-6" 780 717 basechar 0
AnchorPoint: "Anchor-5" 1290 1287 basechar 0
AnchorPoint: "Anchor-2" 550 -15 basechar 0
AnchorPoint: "Anchor-1" 1410 1500 basechar 0
AnchorPoint: "Anchor-0" 880 1600 basechar 0
LayerCount: 2
Fore
SplineSet
381 1434 m 1,0,-1
 744 1434 l 2,1,2
 1040 1434 1040 1434 1203 1280.5 c 128,-1,3
 1366 1127 1366 1127 1366 852 c 0,4,5
 1366 597 1366 597 1262 403.5 c 128,-1,6
 1158 210 1158 210 962.5 105 c 128,-1,7
 767 0 767 0 504 0 c 2,8,-1
 75 0 l 1,9,-1
 381 1434 l 1,0,-1
511 119 m 2,10,11
 845 119 845 119 1037.5 311.5 c 128,-1,12
 1230 504 1230 504 1230 842 c 0,13,14
 1230 1315 1230 1315 715 1315 c 2,15,-1
 487 1315 l 1,16,-1
 232 119 l 1,17,-1
 511 119 l 2,10,11
EndSplineSet
Substitution2: "SegoeUI-SemilightItalic-'c2sc' Capitals to Small Capitals lookup 13 subtable" D.c2sc
Position2: "SegoeUI-SemilightItalic-'cpsp' Capital Spacing lookup 12 subtable" dx=36 dy=0 dh=72 dv=0
EndChar

StartChar: E
Encoding: 69 69 139
Width: 1004
GlyphClass: 2
Flags: W
AnchorPoint: "Anchor-15" 180 2100 basechar 0
AnchorPoint: "Anchor-14" 1202 2100 basechar 0
AnchorPoint: "Anchor-11" 610 0 basechar 0
AnchorPoint: "Anchor-10" 410 0 basechar 0
AnchorPoint: "Anchor-9" 1060 1434 basechar 0
AnchorPoint: "Anchor-8" 954 -420 basechar 0
AnchorPoint: "Anchor-7" 1284 1900 basechar 0
AnchorPoint: "Anchor-6" 550 717 basechar 0
AnchorPoint: "Anchor-5" 1090 1434 basechar 0
AnchorPoint: "Anchor-2" 450 -15 basechar 0
AnchorPoint: "Anchor-1" 1160 1500 basechar 0
AnchorPoint: "Anchor-0" 780 1600 basechar 0
LayerCount: 2
Fore
SplineSet
378 1434 m 1,0,-1
 1074 1434 l 1,1,-1
 1049 1315 l 1,2,-1
 486 1315 l 1,3,-1
 372 780 l 1,4,-1
 894 780 l 1,5,-1
 869 661 l 1,6,-1
 346 661 l 1,7,-1
 231 119 l 1,8,-1
 828 119 l 1,9,-1
 804 0 l 1,10,-1
 75 0 l 1,11,-1
 378 1434 l 1,0,-1
EndSplineSet
Substitution2: "SegoeUI-SemilightItalic-'c2sc' Capitals to Small Capitals lookup 13 subtable" E.c2sc
Position2: "SegoeUI-SemilightItalic-'cpsp' Capital Spacing lookup 12 subtable" dx=36 dy=0 dh=72 dv=0
EndChar

StartChar: F
Encoding: 70 70 140
Width: 975
GlyphClass: 2
Flags: W
AnchorPoint: "Anchor-15" 180 2100 basechar 0
AnchorPoint: "Anchor-14" 1181 2100 basechar 0
AnchorPoint: "Anchor-11" 50 0 basechar 0
AnchorPoint: "Anchor-9" 1060 1434 basechar 0
AnchorPoint: "Anchor-8" 954 -420 basechar 0
AnchorPoint: "Anchor-7" 1284 1900 basechar 0
AnchorPoint: "Anchor-6" 540 717 basechar 0
AnchorPoint: "Anchor-5" 1080 1434 basechar 0
AnchorPoint: "Anchor-2" 450 -15 basechar 0
AnchorPoint: "Anchor-1" 1160 1500 basechar 0
AnchorPoint: "Anchor-0" 780 1600 basechar 0
LayerCount: 2
Fore
SplineSet
378 1434 m 1,0,-1
 1074 1434 l 1,1,-1
 1049 1313 l 1,2,-1
 486 1313 l 1,3,-1
 370 772 l 1,4,-1
 893 772 l 1,5,-1
 868 652 l 1,6,-1
 344 652 l 1,7,-1
 207 0 l 1,8,-1
 75 0 l 1,9,-1
 378 1434 l 1,0,-1
EndSplineSet
Substitution2: "SegoeUI-SemilightItalic-'c2sc' Capitals to Small Capitals lookup 13 subtable" F.c2sc
Position2: "SegoeUI-SemilightItalic-'cpsp' Capital Spacing lookup 12 subtable" dx=36 dy=0 dh=72 dv=0
EndChar

StartChar: G
Encoding: 71 71 141
Width: 1415
GlyphClass: 2
Flags: W
AnchorPoint: "Anchor-15" 180 2100 basechar 0
AnchorPoint: "Anchor-14" 1589 2100 basechar 0
AnchorPoint: "Anchor-11" 785 0 basechar 0
AnchorPoint: "Anchor-10" 630 -15 basechar 0
AnchorPoint: "Anchor-9" 1416 1385 basechar 0
AnchorPoint: "Anchor-8" 1232 -420 basechar 0
AnchorPoint: "Anchor-7" 1562 1900 basechar 0
AnchorPoint: "Anchor-6" 702 741 basechar 0
AnchorPoint: "Anchor-5" 1360 1344 basechar 0
AnchorPoint: "Anchor-2" 650 -25 basechar 0
AnchorPoint: "Anchor-1" 1430 1500 basechar 0
AnchorPoint: "Anchor-0" 950 1600 basechar 0
LayerCount: 2
Fore
SplineSet
1148 608 m 1,0,-1
 800 608 l 1,1,-1
 826 725 l 1,2,-1
 1308 725 l 1,3,-1
 1170 77 l 1,4,5
 977 -26 977 -26 758 -26 c 0,6,7
 574 -26 574 -26 434.5 52 c 128,-1,8
 295 130 295 130 220 276.5 c 128,-1,9
 145 423 145 423 145 609 c 0,10,11
 145 859 145 859 247 1053 c 128,-1,12
 349 1247 349 1247 536 1352.5 c 128,-1,13
 723 1458 723 1458 964 1458 c 0,14,15
 1179 1458 1179 1458 1379 1364 c 1,16,-1
 1351 1230 l 1,17,18
 1161 1340 1161 1340 943 1340 c 0,19,20
 643 1340 643 1340 462 1142 c 128,-1,21
 281 944 281 944 281 621 c 0,22,23
 281 373 281 373 410.5 233.5 c 128,-1,24
 540 94 540 94 771 94 c 0,25,26
 920 94 920 94 1051 148 c 1,27,-1
 1148 608 l 1,0,-1
EndSplineSet
Substitution2: "SegoeUI-SemilightItalic-'c2sc' Capitals to Small Capitals lookup 13 subtable" G.c2sc
Position2: "SegoeUI-SemilightItalic-'cpsp' Capital Spacing lookup 12 subtable" dx=36 dy=0 dh=72 dv=0
EndChar

StartChar: H
Encoding: 72 72 142
Width: 1415
GlyphClass: 2
Flags: W
AnchorPoint: "Anchor-15" 180 2100 basechar 0
AnchorPoint: "Anchor-14" 1630 2100 basechar 0
AnchorPoint: "Anchor-11" 950 0 basechar 0
AnchorPoint: "Anchor-9" 1474 1434 basechar 0
AnchorPoint: "Anchor-8" 1306 -420 basechar 0
AnchorPoint: "Anchor-7" 1636 1900 basechar 0
AnchorPoint: "Anchor-6" 727 717 basechar 0
AnchorPoint: "Anchor-5" 1440 1434 basechar 0
AnchorPoint: "Anchor-2" 570 -15 basechar 0
AnchorPoint: "Anchor-1" 1500 1500 basechar 0
AnchorPoint: "Anchor-0" 900 1600 basechar 0
LayerCount: 2
Fore
SplineSet
378 1434 m 1,0,-1
 511 1434 l 1,1,-1
 374 790 l 1,2,-1
 1154 790 l 1,3,-1
 1292 1434 l 1,4,-1
 1424 1434 l 1,5,-1
 1120 0 l 1,6,-1
 988 0 l 1,7,-1
 1129 669 l 1,8,-1
 348 669 l 1,9,-1
 208 0 l 1,10,-1
 75 0 l 1,11,-1
 378 1434 l 1,0,-1
EndSplineSet
Substitution2: "SegoeUI-SemilightItalic-'c2sc' Capitals to Small Capitals lookup 13 subtable" H.c2sc
Position2: "SegoeUI-SemilightItalic-'cpsp' Capital Spacing lookup 12 subtable" dx=36 dy=0 dh=72 dv=0
EndChar

StartChar: I
Encoding: 73 73 143
Width: 503
GlyphClass: 2
Flags: W
AnchorPoint: "Anchor-15" 180 2100 basechar 0
AnchorPoint: "Anchor-14" 725 2100 basechar 0
AnchorPoint: "Anchor-11" 50 0 basechar 0
AnchorPoint: "Anchor-10" 135 0 basechar 0
AnchorPoint: "Anchor-9" 565 1434 basechar 0
AnchorPoint: "Anchor-8" 401 -420 basechar 0
AnchorPoint: "Anchor-7" 731 1900 basechar 0
AnchorPoint: "Anchor-6" 310 717 basechar 0
AnchorPoint: "Anchor-5" 533 1434 basechar 0
AnchorPoint: "Anchor-2" 115 -15 basechar 0
AnchorPoint: "Anchor-1" 580 1500 basechar 0
AnchorPoint: "Anchor-0" 490 1600 basechar 0
LayerCount: 2
Fore
SplineSet
378 1434 m 1,0,-1
 511 1434 l 1,1,-1
 207 0 l 1,2,-1
 75 0 l 1,3,-1
 378 1434 l 1,0,-1
EndSplineSet
Substitution2: "SegoeUI-SemilightItalic-'c2sc' Capitals to Small Capitals lookup 13 subtable" I.c2sc
Position2: "SegoeUI-SemilightItalic-'cpsp' Capital Spacing lookup 12 subtable" dx=36 dy=0 dh=72 dv=0
EndChar

StartChar: J
Encoding: 74 74 144
Width: 680
GlyphClass: 2
Flags: W
AnchorPoint: "Anchor-15" 180 2100 basechar 0
AnchorPoint: "Anchor-14" 889 2100 basechar 0
AnchorPoint: "Anchor-11" 50 0 basechar 0
AnchorPoint: "Anchor-9" 751 1434 basechar 0
AnchorPoint: "Anchor-8" 581 -420 basechar 0
AnchorPoint: "Anchor-7" 911 1900 basechar 0
AnchorPoint: "Anchor-6" 500 729 basechar 0
AnchorPoint: "Anchor-5" 730 1440 basechar 0
AnchorPoint: "Anchor-2" 230 -15 basechar 0
AnchorPoint: "Anchor-1" 780 1500 basechar 0
AnchorPoint: "Anchor-0" 680 1600 basechar 0
LayerCount: 2
Fore
SplineSet
-78 132 m 1,0,1
 -59 116 -59 116 -16.5 104.5 c 128,-1,2
 26 93 26 93 53 93 c 0,3,4
 182 93 182 93 255 182.5 c 128,-1,5
 328 272 328 272 371 476 c 2,6,-1
 575 1434 l 1,7,-1
 707 1434 l 1,8,-1
 504 482 l 2,9,10
 445 209 445 209 338.5 92 c 128,-1,11
 232 -25 232 -25 46 -25 c 0,12,13
 17 -25 17 -25 -33.5 -14.5 c 128,-1,14
 -84 -4 -84 -4 -102 6 c 1,15,-1
 -78 132 l 1,0,1
EndSplineSet
Substitution2: "SegoeUI-SemilightItalic-'c2sc' Capitals to Small Capitals lookup 13 subtable" J.c2sc
Position2: "SegoeUI-SemilightItalic-'cpsp' Capital Spacing lookup 12 subtable" dx=36 dy=0 dh=72 dv=0
EndChar

StartChar: K
Encoding: 75 75 145
Width: 1148
GlyphClass: 2
Flags: W
AnchorPoint: "Anchor-15" 180 2100 basechar 0
AnchorPoint: "Anchor-14" 1408 2100 basechar 0
AnchorPoint: "Anchor-11" 820 0 basechar 0
AnchorPoint: "Anchor-10" 444 -50 basechar 0
AnchorPoint: "Anchor-9" 1220 1434 basechar 0
AnchorPoint: "Anchor-8" 1196 -420 basechar 0
AnchorPoint: "Anchor-7" 1526 1900 basechar 0
AnchorPoint: "Anchor-6" 350 1003 basechar 0
AnchorPoint: "Anchor-5" 1248 1434 basechar 0
AnchorPoint: "Anchor-2" 500 -15 basechar 0
AnchorPoint: "Anchor-1" 1380 1500 basechar 0
AnchorPoint: "Anchor-0" 830 1600 basechar 0
LayerCount: 2
Fore
SplineSet
378 1434 m 1,0,-1
 511 1434 l 1,1,-1
 368 759 l 1,2,-1
 372 759 l 1,3,-1
 393 781 l 1,4,-1
 1107 1434 l 1,5,-1
 1284 1434 l 1,6,-1
 496 728 l 1,7,-1
 1004 0 l 1,8,-1
 841 0 l 1,9,-1
 389 666 l 1,10,-1
 362 716 l 1,11,-1
 358 716 l 1,12,-1
 207 0 l 1,13,-1
 75 0 l 1,14,-1
 378 1434 l 1,0,-1
EndSplineSet
Substitution2: "SegoeUI-SemilightItalic-'c2sc' Capitals to Small Capitals lookup 13 subtable" K.c2sc
Position2: "SegoeUI-SemilightItalic-'cpsp' Capital Spacing lookup 12 subtable" dx=36 dy=0 dh=72 dv=0
EndChar

StartChar: L
Encoding: 76 76 146
Width: 905
GlyphClass: 2
Flags: W
AnchorPoint: "Anchor-15" 180 2100 basechar 0
AnchorPoint: "Anchor-14" 1128 2100 basechar 0
AnchorPoint: "Anchor-11" 580 0 basechar 0
AnchorPoint: "Anchor-10" 412 0 basechar 0
AnchorPoint: "Anchor-9" 502 1434 basechar 0
AnchorPoint: "Anchor-8" 700 -420 basechar 0
AnchorPoint: "Anchor-7" 1030 1900 basechar 0
AnchorPoint: "Anchor-6" 310 717 basechar 0
AnchorPoint: "Anchor-5" 542 1434 basechar 0
AnchorPoint: "Anchor-2" 440 -15 basechar 0
AnchorPoint: "Anchor-1" 1080 1500 basechar 0
AnchorPoint: "Anchor-0" 770 1600 basechar 0
LayerCount: 2
Fore
SplineSet
378 1434 m 1,0,-1
 511 1434 l 1,1,-1
 233 120 l 1,2,-1
 806 120 l 1,3,-1
 781 0 l 1,4,-1
 75 0 l 1,5,-1
 378 1434 l 1,0,-1
EndSplineSet
Substitution2: "SegoeUI-SemilightItalic-'c2sc' Capitals to Small Capitals lookup 13 subtable" L.c2sc
Position2: "SegoeUI-SemilightItalic-'cpsp' Capital Spacing lookup 12 subtable" dx=36 dy=0 dh=72 dv=0
EndChar

StartChar: M
Encoding: 77 77 147
Width: 1692
GlyphClass: 2
Flags: W
AnchorPoint: "Anchor-15" 180 2100 basechar 0
AnchorPoint: "Anchor-14" 1855 2100 basechar 0
AnchorPoint: "Anchor-11" 1180 0 basechar 0
AnchorPoint: "Anchor-9" 1698 1434 basechar 0
AnchorPoint: "Anchor-8" 1530 -420 basechar 0
AnchorPoint: "Anchor-7" 1860 1900 basechar 0
AnchorPoint: "Anchor-6" 880 834 basechar 0
AnchorPoint: "Anchor-5" 1665 1434 basechar 0
AnchorPoint: "Anchor-2" 690 -15 basechar 0
AnchorPoint: "Anchor-1" 1730 1500 basechar 0
AnchorPoint: "Anchor-0" 1020 1600 basechar 0
LayerCount: 2
Fore
SplineSet
379 1434 m 1,0,-1
 516 1434 l 1,1,-1
 793 692 l 2,2,3
 824 606 824 606 830 553 c 1,4,-1
 836 553 l 1,5,6
 894 642 894 642 927 682 c 2,7,-1
 1545 1434 l 1,8,-1
 1699 1434 l 1,9,-1
 1394 0 l 1,10,-1
 1267 0 l 1,11,-1
 1487 1034 l 2,12,13
 1511 1143 1511 1143 1543 1258 c 1,14,-1
 1539 1258 l 1,15,16
 1535 1249 1535 1249 1528 1237.5 c 128,-1,17
 1521 1226 1521 1226 1446 1120 c 1,18,-1
 832 374 l 1,19,-1
 776 374 l 1,20,-1
 499 1116 l 2,21,22
 496 1126 496 1126 490.5 1142.5 c 128,-1,23
 485 1159 485 1159 480 1178 c 128,-1,24
 475 1197 475 1197 470.5 1217.5 c 128,-1,25
 466 1238 466 1238 465 1258 c 1,26,-1
 461 1258 l 1,27,28
 456 1218 456 1218 442 1140 c 128,-1,29
 428 1062 428 1062 201 0 c 1,30,-1
 75 0 l 1,31,-1
 379 1434 l 1,0,-1
EndSplineSet
Substitution2: "SegoeUI-SemilightItalic-'c2sc' Capitals to Small Capitals lookup 13 subtable" M.c2sc
Position2: "SegoeUI-SemilightItalic-'cpsp' Capital Spacing lookup 12 subtable" dx=36 dy=0 dh=72 dv=0
EndChar

StartChar: N
Encoding: 78 78 148
Width: 1492
GlyphClass: 2
Flags: W
AnchorPoint: "Anchor-15" 180 2100 basechar 0
AnchorPoint: "Anchor-14" 1718 2100 basechar 0
AnchorPoint: "Anchor-11" 1010 0 basechar 0
AnchorPoint: "Anchor-10" 616 -50 basechar 0
AnchorPoint: "Anchor-9" 1552 1434 basechar 0
AnchorPoint: "Anchor-8" 1396 -420 basechar 0
AnchorPoint: "Anchor-7" 1726 1900 basechar 0
AnchorPoint: "Anchor-6" 800 717 basechar 0
AnchorPoint: "Anchor-5" 1529 1434 basechar 0
AnchorPoint: "Anchor-2" 650 -15 basechar 0
AnchorPoint: "Anchor-1" 1580 1500 basechar 0
AnchorPoint: "Anchor-0" 980 1600 basechar 0
LayerCount: 2
Fore
SplineSet
378 1434 m 1,0,-1
 507 1434 l 1,1,-1
 1071 296 l 2,2,3
 1095 250 1095 250 1111 202 c 1,4,-1
 1115 202 l 1,5,-1
 1134 325 l 1,6,-1
 1370 1434 l 1,7,-1
 1501 1434 l 1,8,-1
 1196 0 l 1,9,-1
 1080 0 l 1,10,-1
 502 1154 l 2,11,12
 482 1194 482 1194 468 1243 c 1,13,-1
 463 1243 l 1,14,-1
 450 1159 l 1,15,-1
 203 0 l 1,16,-1
 75 0 l 1,17,-1
 378 1434 l 1,0,-1
EndSplineSet
Substitution2: "SegoeUI-SemilightItalic-'c2sc' Capitals to Small Capitals lookup 13 subtable" N.c2sc
Position2: "SegoeUI-SemilightItalic-'cpsp' Capital Spacing lookup 12 subtable" dx=36 dy=0 dh=72 dv=0
EndChar

StartChar: O
Encoding: 79 79 149
Width: 1544
GlyphClass: 2
Flags: W
AnchorPoint: "Anchor-15" 180 2100 basechar 0
AnchorPoint: "Anchor-14" 1724 2100 basechar 0
AnchorPoint: "Anchor-11" 680 -15 basechar 0
AnchorPoint: "Anchor-10" 640 -15 basechar 0
AnchorPoint: "Anchor-9" 1380 1320 basechar 0
AnchorPoint: "Anchor-8" 1337 -420 basechar 0
AnchorPoint: "Anchor-7" 1667 1900 basechar 0
AnchorPoint: "Anchor-6" 790 741 basechar 0
AnchorPoint: "Anchor-5" 1450 1172 basechar 0
AnchorPoint: "Anchor-2" 620 -25 basechar 0
AnchorPoint: "Anchor-1" 1480 1500 basechar 0
AnchorPoint: "Anchor-0" 950 1600 basechar 0
LayerCount: 2
Fore
SplineSet
722 -25 m 0,0,1
 457 -25 457 -25 301 144.5 c 128,-1,2
 145 314 145 314 145 590 c 0,3,4
 145 835 145 835 246.5 1033.5 c 128,-1,5
 348 1232 348 1232 524 1345 c 128,-1,6
 700 1458 700 1458 917 1458 c 0,7,8
 1176 1458 1176 1458 1332 1289.5 c 128,-1,9
 1488 1121 1488 1121 1488 849 c 0,10,11
 1488 608 1488 608 1390 405.5 c 128,-1,12
 1292 203 1292 203 1117.5 89 c 128,-1,13
 943 -25 943 -25 722 -25 c 0,0,1
728 94 m 0,14,15
 908 94 908 94 1048.5 188 c 128,-1,16
 1189 282 1189 282 1270 461 c 128,-1,17
 1351 640 1351 640 1351 843 c 0,18,19
 1351 1073 1351 1073 1231 1206.5 c 128,-1,20
 1111 1340 1111 1340 909 1340 c 0,21,22
 732 1340 732 1340 586.5 1242.5 c 128,-1,23
 441 1145 441 1145 361 971 c 128,-1,24
 281 797 281 797 281 590 c 0,25,26
 281 359 281 359 400.5 226.5 c 128,-1,27
 520 94 520 94 728 94 c 0,14,15
EndSplineSet
Substitution2: "SegoeUI-SemilightItalic-'c2sc' Capitals to Small Capitals lookup 13 subtable" O.c2sc
Position2: "SegoeUI-SemilightItalic-'cpsp' Capital Spacing lookup 12 subtable" dx=36 dy=0 dh=72 dv=0
EndChar

StartChar: P
Encoding: 80 80 150
Width: 1143
GlyphClass: 2
Flags: W
AnchorPoint: "Anchor-15" 180 2100 basechar 0
AnchorPoint: "Anchor-14" 1358 2100 basechar 0
AnchorPoint: "Anchor-11" 50 0 basechar 0
AnchorPoint: "Anchor-9" 1167 1274 basechar 0
AnchorPoint: "Anchor-8" 1026 -420 basechar 0
AnchorPoint: "Anchor-7" 1356 1900 basechar 0
AnchorPoint: "Anchor-6" 690 1003 basechar 0
AnchorPoint: "Anchor-5" 1140 1314 basechar 0
AnchorPoint: "Anchor-2" 460 -15 basechar 0
AnchorPoint: "Anchor-1" 1180 1500 basechar 0
AnchorPoint: "Anchor-0" 790 1600 basechar 0
LayerCount: 2
Fore
SplineSet
378 1434 m 1,0,-1
 718 1434 l 2,1,2
 917 1434 917 1434 1027.5 1334.5 c 128,-1,3
 1138 1235 1138 1235 1138 1059 c 0,4,5
 1138 828 1138 828 985.5 694 c 128,-1,6
 833 560 833 560 570 560 c 2,7,-1
 326 560 l 1,8,-1
 207 0 l 1,9,-1
 75 0 l 1,10,-1
 378 1434 l 1,0,-1
581 679 m 2,11,12
 786 679 786 679 894 776 c 128,-1,13
 1002 873 1002 873 1002 1048 c 0,14,15
 1002 1173 1002 1173 923 1244 c 128,-1,16
 844 1315 844 1315 691 1315 c 2,17,-1
 486 1315 l 1,18,-1
 351 679 l 1,19,-1
 581 679 l 2,11,12
EndSplineSet
Substitution2: "SegoeUI-SemilightItalic-'c2sc' Capitals to Small Capitals lookup 13 subtable" P.c2sc
Position2: "SegoeUI-SemilightItalic-'cpsp' Capital Spacing lookup 12 subtable" dx=36 dy=0 dh=72 dv=0
EndChar

StartChar: Q
Encoding: 81 81 151
Width: 1544
GlyphClass: 2
Flags: W
AnchorPoint: "Anchor-15" 180 2100 basechar 0
AnchorPoint: "Anchor-14" 1724 2100 basechar 0
AnchorPoint: "Anchor-11" 780 -180 basechar 0
AnchorPoint: "Anchor-9" 1380 1320 basechar 0
AnchorPoint: "Anchor-8" 1337 -420 basechar 0
AnchorPoint: "Anchor-7" 1667 1900 basechar 0
AnchorPoint: "Anchor-6" 790 738 basechar 0
AnchorPoint: "Anchor-5" 1450 1172 basechar 0
AnchorPoint: "Anchor-2" 620 -270 basechar 0
AnchorPoint: "Anchor-1" 1480 1500 basechar 0
AnchorPoint: "Anchor-0" 950 1600 basechar 0
LayerCount: 2
Fore
SplineSet
958 -346 m 1,0,-1
 724 -25 l 1,1,2
 456 -23 456 -23 300.5 143 c 128,-1,3
 145 309 145 309 145 588 c 0,4,5
 145 834 145 834 249.5 1038.5 c 128,-1,6
 354 1243 354 1243 528 1350.5 c 128,-1,7
 702 1458 702 1458 919 1458 c 0,8,9
 1177 1458 1177 1458 1332.5 1291.5 c 128,-1,10
 1488 1125 1488 1125 1488 847 c 0,11,12
 1488 638 1488 638 1409 452 c 128,-1,13
 1330 266 1330 266 1187.5 143.5 c 128,-1,14
 1045 21 1045 21 865 -11 c 1,15,-1
 1131 -346 l 1,16,-1
 958 -346 l 1,0,-1
728 94 m 0,17,18
 907 94 907 94 1049 190 c 128,-1,19
 1191 286 1191 286 1271 460.5 c 128,-1,20
 1351 635 1351 635 1351 841 c 0,21,22
 1351 1069 1351 1069 1232 1204.5 c 128,-1,23
 1113 1340 1113 1340 911 1340 c 0,24,25
 734 1340 734 1340 590.5 1244 c 128,-1,26
 447 1148 447 1148 364 974 c 128,-1,27
 281 800 281 800 281 590 c 0,28,29
 281 359 281 359 399.5 226.5 c 128,-1,30
 518 94 518 94 728 94 c 0,17,18
EndSplineSet
Substitution2: "SegoeUI-SemilightItalic-'c2sc' Capitals to Small Capitals lookup 13 subtable" Q.c2sc
Substitution2: "SegoeUI-SemilightItalic-'ss20' Style Set 20 lookup 7 subtable" Q.ss20
Position2: "SegoeUI-SemilightItalic-'cpsp' Capital Spacing lookup 12 subtable" dx=36 dy=0 dh=72 dv=0
EndChar

StartChar: R
Encoding: 82 82 152
Width: 1162
GlyphClass: 2
Flags: W
AnchorPoint: "Anchor-15" 180 2100 basechar 0
AnchorPoint: "Anchor-14" 1372 2100 basechar 0
AnchorPoint: "Anchor-11" 790 0 basechar 0
AnchorPoint: "Anchor-10" 462 -50 basechar 0
AnchorPoint: "Anchor-9" 1167 1274 basechar 0
AnchorPoint: "Anchor-8" 1019 -420 basechar 0
AnchorPoint: "Anchor-7" 1349 1900 basechar 0
AnchorPoint: "Anchor-6" 690 1003 basechar 0
AnchorPoint: "Anchor-5" 1140 1314 basechar 0
AnchorPoint: "Anchor-2" 520 -15 basechar 0
AnchorPoint: "Anchor-1" 1220 1500 basechar 0
AnchorPoint: "Anchor-0" 790 1600 basechar 0
LayerCount: 2
Fore
SplineSet
378 1434 m 1,0,-1
 757 1434 l 2,1,2
 939 1434 939 1434 1038.5 1341.5 c 128,-1,3
 1138 1249 1138 1249 1138 1082 c 0,4,5
 1138 904 1138 904 1018 787.5 c 128,-1,6
 898 671 898 671 703 657 c 1,7,-1
 703 653 l 1,8,9
 801 616 801 616 840 458 c 2,10,-1
 957 0 l 1,11,-1
 816 0 l 1,12,-1
 710 430 l 2,13,14
 685 530 685 530 632 578 c 128,-1,15
 579 626 579 626 483 626 c 2,16,-1
 340 626 l 1,17,-1
 207 0 l 1,18,-1
 75 0 l 1,19,-1
 378 1434 l 1,0,-1
600 744 m 2,20,21
 788 744 788 744 895 832 c 128,-1,22
 1002 920 1002 920 1002 1072 c 0,23,24
 1002 1183 1002 1183 934 1249 c 128,-1,25
 866 1315 866 1315 735 1315 c 2,26,-1
 486 1315 l 1,27,-1
 365 744 l 1,28,-1
 600 744 l 2,20,21
EndSplineSet
Substitution2: "SegoeUI-SemilightItalic-'c2sc' Capitals to Small Capitals lookup 13 subtable" R.c2sc
Position2: "SegoeUI-SemilightItalic-'cpsp' Capital Spacing lookup 12 subtable" dx=36 dy=0 dh=72 dv=0
EndChar

StartChar: S
Encoding: 83 83 153
Width: 1018
GlyphClass: 2
Flags: W
AnchorPoint: "Anchor-15" 180 2100 basechar 0
AnchorPoint: "Anchor-14" 1198 2100 basechar 0
AnchorPoint: "Anchor-11" 460 0 basechar 0
AnchorPoint: "Anchor-10" 394 -15 basechar 0
AnchorPoint: "Anchor-9" 1040 1428 basechar 0
AnchorPoint: "Anchor-8" 874 -420 basechar 0
AnchorPoint: "Anchor-7" 1204 1900 basechar 0
AnchorPoint: "Anchor-6" 544 741 basechar 0
AnchorPoint: "Anchor-5" 1020 1410 basechar 0
AnchorPoint: "Anchor-2" 400 -25 basechar 0
AnchorPoint: "Anchor-1" 1100 1500 basechar 0
AnchorPoint: "Anchor-0" 700 1600 basechar 0
LayerCount: 2
Fore
SplineSet
64 199 m 1,0,1
 128 155 128 155 222 124.5 c 128,-1,2
 316 94 316 94 409 94 c 0,3,4
 561 94 561 94 644 162.5 c 128,-1,5
 727 231 727 231 727 353 c 0,6,7
 727 438 727 438 678.5 505.5 c 128,-1,8
 630 573 630 573 495 671 c 0,9,10
 359 769 359 769 302.5 860.5 c 128,-1,11
 246 952 246 952 246 1063 c 0,12,13
 246 1237 246 1237 375.5 1347.5 c 128,-1,14
 505 1458 505 1458 710 1458 c 0,15,16
 865 1458 865 1458 1015 1399 c 1,17,-1
 989 1264 l 1,18,19
 870 1340 870 1340 699 1340 c 0,20,21
 557 1340 557 1340 470.5 1267 c 128,-1,22
 384 1194 384 1194 384 1077 c 0,23,24
 384 984 384 984 430 917 c 128,-1,25
 476 850 476 850 603 757 c 0,26,27
 752 649 752 649 808 563 c 128,-1,28
 864 477 864 477 864 370 c 0,29,30
 864 254 864 254 808.5 164 c 128,-1,31
 753 74 753 74 648.5 24.5 c 128,-1,32
 544 -25 544 -25 401 -25 c 0,33,34
 309 -25 309 -25 214 -2 c 128,-1,35
 119 21 119 21 41 62 c 1,36,-1
 64 199 l 1,0,1
EndSplineSet
Substitution2: "SegoeUI-SemilightItalic-'c2sc' Capitals to Small Capitals lookup 13 subtable" S.c2sc
Position2: "SegoeUI-SemilightItalic-'cpsp' Capital Spacing lookup 12 subtable" dx=36 dy=0 dh=72 dv=0
EndChar

StartChar: T
Encoding: 84 84 154
Width: 1061
GlyphClass: 2
Flags: W
AnchorPoint: "Anchor-15" 180 2100 basechar 0
AnchorPoint: "Anchor-14" 1257 2100 basechar 0
AnchorPoint: "Anchor-11" 310 0 basechar 0
AnchorPoint: "Anchor-10" 405 0 basechar 0
AnchorPoint: "Anchor-9" 1210 1443 basechar 0
AnchorPoint: "Anchor-8" 1073 -420 basechar 0
AnchorPoint: "Anchor-7" 1403 1900 basechar 0
AnchorPoint: "Anchor-6" 580 717 basechar 0
AnchorPoint: "Anchor-5" 1205 1434 basechar 0
AnchorPoint: "Anchor-2" 400 -15 basechar 0
AnchorPoint: "Anchor-1" 1280 1500 basechar 0
AnchorPoint: "Anchor-0" 730 1600 basechar 0
LayerCount: 2
Fore
SplineSet
632 1315 m 1,0,-1
 217 1315 l 1,1,-1
 242 1434 l 1,2,-1
 1200 1434 l 1,3,-1
 1174 1315 l 1,4,-1
 764 1315 l 1,5,-1
 486 0 l 1,6,-1
 353 0 l 1,7,-1
 632 1315 l 1,0,-1
EndSplineSet
Substitution2: "SegoeUI-SemilightItalic-'c2sc' Capitals to Small Capitals lookup 13 subtable" T.c2sc
Position2: "SegoeUI-SemilightItalic-'cpsp' Capital Spacing lookup 12 subtable" dx=36 dy=0 dh=72 dv=0
EndChar

StartChar: U
Encoding: 85 85 155
Width: 1366
GlyphClass: 2
Flags: W
AnchorPoint: "Anchor-15" 180 2100 basechar 0
AnchorPoint: "Anchor-14" 1591 2100 basechar 0
AnchorPoint: "Anchor-11" 610 0 basechar 0
AnchorPoint: "Anchor-10" 553 -15 basechar 0
AnchorPoint: "Anchor-9" 1422 1439 basechar 0
AnchorPoint: "Anchor-8" 1284 -420 basechar 0
AnchorPoint: "Anchor-7" 1614 1900 basechar 0
AnchorPoint: "Anchor-6" 720 729 basechar 0
AnchorPoint: "Anchor-5" 1413 1440 basechar 0
AnchorPoint: "Anchor-2" 550 -25 basechar 0
AnchorPoint: "Anchor-1" 1480 1500 basechar 0
AnchorPoint: "Anchor-0" 880 1600 basechar 0
LayerCount: 2
Fore
SplineSet
360 1434 m 1,0,-1
 493 1434 l 1,1,-1
 325 645 l 2,2,3
 297 518 297 518 297 428 c 0,4,5
 297 261 297 261 385.5 177.5 c 128,-1,6
 474 94 474 94 630 94 c 0,7,8
 811 94 811 94 915 198 c 128,-1,9
 1019 302 1019 302 1069 532 c 2,10,-1
 1261 1434 l 1,11,-1
 1393 1434 l 1,12,-1
 1206 554 l 2,13,14
 1139 240 1139 240 1001 107.5 c 128,-1,15
 863 -25 863 -25 611 -25 c 0,16,17
 405 -25 405 -25 285 93 c 128,-1,18
 165 211 165 211 165 413 c 0,19,20
 165 520 165 520 187 622 c 2,21,-1
 360 1434 l 1,0,-1
EndSplineSet
Substitution2: "SegoeUI-SemilightItalic-'c2sc' Capitals to Small Capitals lookup 13 subtable" U.c2sc
Position2: "SegoeUI-SemilightItalic-'cpsp' Capital Spacing lookup 12 subtable" dx=36 dy=0 dh=72 dv=0
EndChar

StartChar: V
Encoding: 86 86 156
Width: 1284
GlyphClass: 2
Flags: W
AnchorPoint: "Anchor-15" 180 2100 basechar 0
AnchorPoint: "Anchor-14" 1466 2100 basechar 0
AnchorPoint: "Anchor-11" 410 0 basechar 0
AnchorPoint: "Anchor-9" 1373 1434 basechar 0
AnchorPoint: "Anchor-8" 1298 -420 basechar 0
AnchorPoint: "Anchor-7" 1628 1900 basechar 0
AnchorPoint: "Anchor-6" 660 717 basechar 0
AnchorPoint: "Anchor-5" 1410 1434 basechar 0
AnchorPoint: "Anchor-2" 490 -15 basechar 0
AnchorPoint: "Anchor-1" 1480 1500 basechar 0
AnchorPoint: "Anchor-0" 820 1600 basechar 0
LayerCount: 2
Fore
SplineSet
238 1434 m 1,0,-1
 376 1434 l 1,1,-1
 541 298 l 2,2,3
 548 255 548 255 548 168 c 1,4,-1
 552 168 l 1,5,6
 563 198 563 198 589.5 246 c 128,-1,7
 616 294 616 294 1279 1434 c 1,8,-1
 1430 1434 l 1,9,-1
 574 0 l 1,10,-1
 457 0 l 1,11,-1
 238 1434 l 1,0,-1
EndSplineSet
Substitution2: "SegoeUI-SemilightItalic-'c2sc' Capitals to Small Capitals lookup 13 subtable" V.c2sc
Position2: "SegoeUI-SemilightItalic-'cpsp' Capital Spacing lookup 12 subtable" dx=36 dy=0 dh=72 dv=0
EndChar

StartChar: W
Encoding: 87 87 157
Width: 1830
GlyphClass: 2
Flags: W
AnchorPoint: "Anchor-15" 180 2100 basechar 0
AnchorPoint: "Anchor-14" 2083 2100 basechar 0
AnchorPoint: "Anchor-11" 1155 0 basechar 0
AnchorPoint: "Anchor-9" 2060 1434 basechar 0
AnchorPoint: "Anchor-8" 1927 -420 basechar 0
AnchorPoint: "Anchor-7" 2257 1900 basechar 0
AnchorPoint: "Anchor-6" 990 717 basechar 0
AnchorPoint: "Anchor-5" 2043 1434 basechar 0
AnchorPoint: "Anchor-2" 820 -15 basechar 0
AnchorPoint: "Anchor-1" 2130 1500 basechar 0
AnchorPoint: "Anchor-0" 1150 1600 basechar 0
LayerCount: 2
Fore
SplineSet
207 1434 m 1,0,-1
 345 1434 l 1,1,-1
 426 311 l 1,2,-1
 430 185 l 1,3,-1
 434 185 l 1,4,5
 456 248 456 248 489 311 c 2,6,-1
 1068 1434 l 1,7,-1
 1166 1434 l 1,8,-1
 1251 308 l 1,9,-1
 1257 184 l 1,10,-1
 1261 184 l 1,11,12
 1295 268 1295 268 1334 348 c 2,13,-1
 1860 1434 l 1,14,-1
 2006 1434 l 1,15,-1
 1287 0 l 1,16,-1
 1161 0 l 1,17,-1
 1070 1072 l 1,18,-1
 1067 1209 l 1,19,-1
 1062 1209 l 1,20,21
 1043 1132 1043 1132 1012 1074 c 2,22,-1
 455 0 l 1,23,-1
 326 0 l 1,24,-1
 207 1434 l 1,0,-1
EndSplineSet
Substitution2: "SegoeUI-SemilightItalic-'c2sc' Capitals to Small Capitals lookup 13 subtable" W.c2sc
Position2: "SegoeUI-SemilightItalic-'cpsp' Capital Spacing lookup 12 subtable" dx=36 dy=0 dh=72 dv=0
EndChar

StartChar: X
Encoding: 88 88 158
Width: 1179
GlyphClass: 2
Flags: W
AnchorPoint: "Anchor-15" 180 2100 basechar 0
AnchorPoint: "Anchor-14" 1390 2100 basechar 0
AnchorPoint: "Anchor-11" 820 0 basechar 0
AnchorPoint: "Anchor-9" 1260 1434 basechar 0
AnchorPoint: "Anchor-8" 1214 -420 basechar 0
AnchorPoint: "Anchor-7" 1544 1900 basechar 0
AnchorPoint: "Anchor-6" 640 717 basechar 0
AnchorPoint: "Anchor-5" 1300 1434 basechar 0
AnchorPoint: "Anchor-2" 470 -15 basechar 0
AnchorPoint: "Anchor-1" 1410 1500 basechar 0
AnchorPoint: "Anchor-0" 800 1600 basechar 0
LayerCount: 2
Fore
SplineSet
-71 0 m 1,0,-1
 555 730 l 1,1,2
 536 786 536 786 408 1097 c 2,3,-1
 270 1434 l 1,4,-1
 422 1434 l 1,5,-1
 623 897 l 2,6,7
 639 857 639 857 651 809 c 1,8,-1
 655 809 l 1,9,10
 678 852 678 852 717 898 c 2,11,-1
 1160 1434 l 1,12,-1
 1317 1434 l 1,13,-1
 720 722 l 1,14,-1
 737 678 l 1,15,-1
 1008 0 l 1,16,-1
 857 0 l 1,17,-1
 649 548 l 1,18,-1
 635 593 l 1,19,-1
 622 639 l 1,20,-1
 618 639 l 1,21,22
 589 588 589 588 553 546 c 2,23,-1
 97 0 l 1,24,-1
 -71 0 l 1,0,-1
EndSplineSet
Substitution2: "SegoeUI-SemilightItalic-'c2sc' Capitals to Small Capitals lookup 13 subtable" X.c2sc
Position2: "SegoeUI-SemilightItalic-'cpsp' Capital Spacing lookup 12 subtable" dx=36 dy=0 dh=72 dv=0
EndChar

StartChar: Y
Encoding: 89 89 159
Width: 1119
GlyphClass: 2
Flags: W
AnchorPoint: "Anchor-15" 180 2100 basechar 0
AnchorPoint: "Anchor-14" 1315 2100 basechar 0
AnchorPoint: "Anchor-11" 340 0 basechar 0
AnchorPoint: "Anchor-9" 1260 1434 basechar 0
AnchorPoint: "Anchor-8" 1163 -420 basechar 0
AnchorPoint: "Anchor-7" 1493 1900 basechar 0
AnchorPoint: "Anchor-6" 550 430 basechar 0
AnchorPoint: "Anchor-5" 1250 1434 basechar 0
AnchorPoint: "Anchor-2" 430 -15 basechar 0
AnchorPoint: "Anchor-1" 1380 1500 basechar 0
AnchorPoint: "Anchor-0" 760 1600 basechar 0
LayerCount: 2
Fore
SplineSet
488 542 m 1,0,-1
 231 1434 l 1,1,-1
 371 1434 l 1,2,-1
 553 760 l 1,3,-1
 575 662 l 1,4,-1
 579 662 l 1,5,-1
 632 745 l 1,6,-1
 1125 1434 l 1,7,-1
 1276 1434 l 1,8,-1
 622 545 l 1,9,-1
 508 0 l 1,10,-1
 374 0 l 1,11,-1
 488 542 l 1,0,-1
EndSplineSet
Substitution2: "SegoeUI-SemilightItalic-'c2sc' Capitals to Small Capitals lookup 13 subtable" Y.c2sc
Position2: "SegoeUI-SemilightItalic-'cpsp' Capital Spacing lookup 12 subtable" dx=36 dy=0 dh=72 dv=0
EndChar

StartChar: Z
Encoding: 90 90 160
Width: 1167
GlyphClass: 2
Flags: W
AnchorPoint: "Anchor-15" 180 2100 basechar 0
AnchorPoint: "Anchor-14" 1347 2100 basechar 0
AnchorPoint: "Anchor-11" 760 0 basechar 0
AnchorPoint: "Anchor-9" 1260 1434 basechar 0
AnchorPoint: "Anchor-8" 1169 -420 basechar 0
AnchorPoint: "Anchor-7" 1499 1900 basechar 0
AnchorPoint: "Anchor-6" 610 717 basechar 0
AnchorPoint: "Anchor-5" 1270 1434 basechar 0
AnchorPoint: "Anchor-2" 430 -15 basechar 0
AnchorPoint: "Anchor-1" 1380 1500 basechar 0
AnchorPoint: "Anchor-0" 830 1600 basechar 0
LayerCount: 2
Fore
SplineSet
1059 1314 m 1,0,-1
 287 1314 l 1,1,-1
 312 1434 l 1,2,-1
 1298 1434 l 1,3,-1
 1290 1394 l 1,4,-1
 173 120 l 1,5,-1
 1002 120 l 1,6,-1
 977 0 l 1,7,-1
 -60 0 l 1,8,-1
 -51 46 l 1,9,-1
 1059 1314 l 1,0,-1
EndSplineSet
Substitution2: "SegoeUI-SemilightItalic-'c2sc' Capitals to Small Capitals lookup 13 subtable" Z.c2sc
Position2: "SegoeUI-SemilightItalic-'cpsp' Capital Spacing lookup 12 subtable" dx=36 dy=0 dh=72 dv=0
EndChar

StartChar: bracketleft
Encoding: 91 91 161
Width: 604
GlyphClass: 2
Flags: W
LayerCount: 2
Fore
SplineSet
408 1434 m 1,0,-1
 748 1434 l 1,1,-1
 728 1334 l 1,2,-1
 504 1334 l 1,3,-1
 171 -226 l 1,4,-1
 395 -226 l 1,5,-1
 374 -326 l 1,6,-1
 34 -326 l 1,7,-1
 408 1434 l 1,0,-1
EndSplineSet
Position2: "SegoeUI-SemilightItalic-'case' Case-Sensitive Forms lookup 15 subtable" dx=30 dy=140 dh=0 dv=0
EndChar

StartChar: backslash
Encoding: 92 92 162
Width: 791
GlyphClass: 2
Flags: W
LayerCount: 2
Fore
SplineSet
181 1434 m 1,0,-1
 296 1434 l 1,1,-1
 640 -240 l 1,2,-1
 529 -240 l 1,3,-1
 181 1434 l 1,0,-1
EndSplineSet
EndChar

StartChar: bracketright
Encoding: 93 93 163
Width: 604
GlyphClass: 2
Flags: W
LayerCount: 2
Fore
SplineSet
-123 -226 m 1,0,-1
 100 -226 l 1,1,-1
 433 1333 l 1,2,-1
 210 1333 l 1,3,-1
 230 1434 l 1,4,-1
 571 1434 l 1,5,-1
 197 -326 l 1,6,-1
 -143 -326 l 1,7,-1
 -123 -226 l 1,0,-1
EndSplineSet
Position2: "SegoeUI-SemilightItalic-'case' Case-Sensitive Forms lookup 15 subtable" dx=30 dy=140 dh=0 dv=0
EndChar

StartChar: asciicircum
Encoding: 94 94 164
Width: 1364
GlyphClass: 2
Flags: W
LayerCount: 2
Fore
SplineSet
681 1458 m 1,0,-1
 733 1458 l 1,1,-1
 1151 667 l 1,2,-1
 1030 667 l 1,3,-1
 711 1282 l 1,4,-1
 706 1282 l 1,5,-1
 399 667 l 1,6,-1
 279 667 l 1,7,-1
 681 1458 l 1,0,-1
EndSplineSet
EndChar

StartChar: underscore
Encoding: 95 95 165
Width: 850
GlyphClass: 2
Flags: W
LayerCount: 2
Fore
SplineSet
-149 -178 m 1,0,-1
 701 -178 l 1,1,-1
 677 -297 l 1,2,-1
 -173 -297 l 1,3,-1
 -149 -178 l 1,0,-1
EndSplineSet
EndChar

StartChar: grave
Encoding: 96 96 166
Width: 661
GlyphClass: 2
Flags: W
LayerCount: 2
Fore
SplineSet
285 1530 m 1,0,-1
 408 1530 l 1,1,-1
 607 1202 l 1,2,-1
 506 1202 l 1,3,-1
 285 1530 l 1,0,-1
EndSplineSet
EndChar

StartChar: a
Encoding: 97 97 167
Width: 1089
GlyphClass: 2
Flags: W
AnchorPoint: "Anchor-15" 180 2100 basechar 0
AnchorPoint: "Anchor-14" 1290 2100 basechar 0
AnchorPoint: "Anchor-11" 670 0 basechar 0
AnchorPoint: "Anchor-10" 370 -15 basechar 0
AnchorPoint: "Anchor-9" 1040 1009 basechar 0
AnchorPoint: "Anchor-8" 897 -420 basechar 0
AnchorPoint: "Anchor-7" 1227 1900 basechar 0
AnchorPoint: "Anchor-6" 521 536 basechar 0
AnchorPoint: "Anchor-5" 1040 990 basechar 0
AnchorPoint: "Anchor-2" 370 -25 basechar 0
AnchorPoint: "Anchor-1" 1080 1200 basechar 0
AnchorPoint: "Anchor-0" 700 1300 basechar 0
LayerCount: 2
Fore
SplineSet
718 0 m 1,0,1
 722 105 722 105 752 276 c 1,2,-1
 748 276 l 1,3,4
 656 114 656 114 567.5 44.5 c 128,-1,5
 479 -25 479 -25 371 -25 c 0,6,7
 233 -25 233 -25 156.5 72.5 c 128,-1,8
 80 170 80 170 80 347 c 0,9,10
 80 538 80 538 162.5 704.5 c 128,-1,11
 245 871 245 871 387.5 960 c 128,-1,12
 530 1049 530 1049 706 1049 c 0,13,14
 835 1049 835 1049 1028 1010 c 1,15,-1
 891 349 l 2,16,17
 877 283 877 283 862.5 169 c 128,-1,18
 848 55 848 55 848 0 c 1,19,-1
 718 0 l 1,0,1
883 918 m 1,20,21
 788 939 788 939 690 939 c 0,22,23
 554 939 554 939 445 865 c 128,-1,24
 336 791 336 791 272.5 655 c 128,-1,25
 209 519 209 519 209 356 c 0,26,27
 209 85 209 85 401 85 c 0,28,29
 482 85 482 85 567 155.5 c 128,-1,30
 652 226 652 226 722 355 c 128,-1,31
 792 484 792 484 821 615 c 2,32,-1
 883 918 l 1,20,21
EndSplineSet
Substitution2: "SegoeUI-SemilightItalic-'smcp' Lowercase to Small Capitals lookup 14 subtable" A.c2sc
EndChar

StartChar: b
Encoding: 98 98 168
Width: 1089
GlyphClass: 2
Flags: W
AnchorPoint: "Anchor-15" 180 2100 basechar 0
AnchorPoint: "Anchor-14" 1290 2100 basechar 0
AnchorPoint: "Anchor-13" 692 80 basechar 0
AnchorPoint: "Anchor-12" 692 80 basechar 0
AnchorPoint: "Anchor-11" 500 0 basechar 0
AnchorPoint: "Anchor-9" 1030 950 basechar 0
AnchorPoint: "Anchor-8" 882 -420 basechar 0
AnchorPoint: "Anchor-7" 1212 1900 basechar 0
AnchorPoint: "Anchor-6" 580 462 basechar 0
AnchorPoint: "Anchor-5" 1010 914 basechar 0
AnchorPoint: "Anchor-2" 470 -25 basechar 0
AnchorPoint: "Anchor-1" 1150 1400 basechar 0
AnchorPoint: "Anchor-0" 770 1650 basechar 0
LayerCount: 2
Fore
SplineSet
375 1516 m 1,0,-1
 501 1516 l 1,1,-1
 392 1004 l 1,2,-1
 339 768 l 1,3,-1
 342 768 l 1,4,5
 496 1049 496 1049 718 1049 c 0,6,7
 861 1049 861 1049 935 952.5 c 128,-1,8
 1009 856 1009 856 1009 675 c 0,9,10
 1009 480 1009 480 928 315.5 c 128,-1,11
 847 151 847 151 708.5 63 c 128,-1,12
 570 -25 570 -25 398 -25 c 0,13,14
 317 -25 317 -25 223.5 -0.5 c 128,-1,15
 130 24 130 24 67 63 c 1,16,-1
 375 1516 l 1,0,-1
209 136 m 1,17,18
 298 85 298 85 412 85 c 0,19,20
 543 85 543 85 650.5 162.5 c 128,-1,21
 758 240 758 240 819 375 c 128,-1,22
 880 510 880 510 880 666 c 0,23,24
 880 805 880 805 831.5 872 c 128,-1,25
 783 939 783 939 681 939 c 0,26,27
 597 939 597 939 512.5 867.5 c 128,-1,28
 428 796 428 796 361 671 c 128,-1,29
 294 546 294 546 270 424 c 2,30,-1
 209 136 l 1,17,18
EndSplineSet
Substitution2: "SegoeUI-SemilightItalic-'smcp' Lowercase to Small Capitals lookup 14 subtable" B.c2sc
EndChar

StartChar: c
Encoding: 99 99 169
Width: 863
GlyphClass: 2
Flags: W
AnchorPoint: "Anchor-15" 180 2100 basechar 0
AnchorPoint: "Anchor-14" 1073 2100 basechar 0
AnchorPoint: "Anchor-13" 570 26 basechar 0
AnchorPoint: "Anchor-12" 570 26 basechar 0
AnchorPoint: "Anchor-11" 510 0 basechar 0
AnchorPoint: "Anchor-10" 420 -15 basechar 0
AnchorPoint: "Anchor-9" 940 1009 basechar 0
AnchorPoint: "Anchor-8" 751 -420 basechar 0
AnchorPoint: "Anchor-7" 1081 1900 basechar 0
AnchorPoint: "Anchor-6" 573 536 basechar 0
AnchorPoint: "Anchor-5" 890 991 basechar 0
AnchorPoint: "Anchor-2" 420 -25 basechar 0
AnchorPoint: "Anchor-1" 970 1200 basechar 0
AnchorPoint: "Anchor-0" 650 1300 basechar 0
LayerCount: 2
Fore
SplineSet
443 -25 m 0,0,1
 273 -25 273 -25 176.5 85.5 c 128,-1,2
 80 196 80 196 80 387 c 0,3,4
 80 569 80 569 152.5 722.5 c 128,-1,5
 225 876 225 876 354 962.5 c 128,-1,6
 483 1049 483 1049 638 1049 c 0,7,8
 783 1049 783 1049 882 981 c 1,9,-1
 852 851 l 1,10,11
 762 939 762 939 624 939 c 0,12,13
 507 939 507 939 410.5 865 c 128,-1,14
 314 791 314 791 260 664 c 128,-1,15
 206 537 206 537 206 395 c 0,16,17
 206 247 206 247 274 166 c 128,-1,18
 342 85 342 85 463 85 c 0,19,20
 586 85 586 85 728 188 c 1,21,-1
 698 50 l 1,22,23
 618 7 618 7 563 -9 c 128,-1,24
 508 -25 508 -25 443 -25 c 0,0,1
EndSplineSet
Substitution2: "SegoeUI-SemilightItalic-'smcp' Lowercase to Small Capitals lookup 14 subtable" C.c2sc
EndChar

StartChar: d
Encoding: 100 100 170
Width: 1089
GlyphClass: 2
Flags: W
AnchorPoint: "Anchor-15" 180 2100 basechar 0
AnchorPoint: "Anchor-14" 1290 2100 basechar 0
AnchorPoint: "Anchor-13" 780 0 basechar 0
AnchorPoint: "Anchor-12" 775 0 basechar 0
AnchorPoint: "Anchor-11" 670 0 basechar 0
AnchorPoint: "Anchor-9" 1208 1522 basechar 0
AnchorPoint: "Anchor-8" 1003 -420 basechar 0
AnchorPoint: "Anchor-7" 1333 1900 basechar 0
AnchorPoint: "Anchor-6" 530 539 basechar 0
AnchorPoint: "Anchor-5" 1140 1513 basechar 0
AnchorPoint: "Anchor-2" 390 -25 basechar 0
AnchorPoint: "Anchor-1" 1240 1600 basechar 0
AnchorPoint: "Anchor-0" 720 1650 basechar 0
LayerCount: 2
Fore
SplineSet
718 0 m 1,0,1
 722 100 722 100 751 273 c 1,2,-1
 747 273 l 1,3,4
 663 125 663 125 574 50 c 128,-1,5
 485 -25 485 -25 371 -25 c 0,6,7
 234 -25 234 -25 157 71.5 c 128,-1,8
 80 168 80 168 80 349 c 0,9,10
 80 540 80 540 161 704 c 128,-1,11
 242 868 242 868 383.5 958.5 c 128,-1,12
 525 1049 525 1049 699 1049 c 0,13,14
 795 1049 795 1049 905 1021 c 1,15,-1
 1010 1516 l 1,16,-1
 1134 1516 l 1,17,-1
 882 320 l 2,18,19
 873 282 873 282 860.5 164 c 128,-1,20
 848 46 848 46 848 0 c 1,21,-1
 718 0 l 1,0,1
882 909 m 1,22,23
 790 939 790 939 689 939 c 0,24,25
 553 939 553 939 445.5 865.5 c 128,-1,26
 338 792 338 792 273.5 656 c 128,-1,27
 209 520 209 520 209 361 c 0,28,29
 209 85 209 85 402 85 c 0,30,31
 482 85 482 85 566.5 155.5 c 128,-1,32
 651 226 651 226 720.5 351.5 c 128,-1,33
 790 477 790 477 821 620 c 2,34,-1
 882 909 l 1,22,23
EndSplineSet
Substitution2: "SegoeUI-SemilightItalic-'smcp' Lowercase to Small Capitals lookup 14 subtable" D.c2sc
EndChar

StartChar: e
Encoding: 101 101 171
Width: 975
GlyphClass: 2
Flags: W
AnchorPoint: "Anchor-15" 180 2100 basechar 0
AnchorPoint: "Anchor-14" 1177 2100 basechar 0
AnchorPoint: "Anchor-11" 520 0 basechar 0
AnchorPoint: "Anchor-10" 405 -15 basechar 0
AnchorPoint: "Anchor-9" 960 973 basechar 0
AnchorPoint: "Anchor-8" 808 -420 basechar 0
AnchorPoint: "Anchor-7" 1138 1900 basechar 0
AnchorPoint: "Anchor-6" 565 600 basechar 0
AnchorPoint: "Anchor-5" 970 910 basechar 0
AnchorPoint: "Anchor-2" 420 -25 basechar 0
AnchorPoint: "Anchor-1" 1000 1200 basechar 0
AnchorPoint: "Anchor-0" 670 1300 basechar 0
LayerCount: 2
Fore
SplineSet
209 388 m 1,0,1
 209 244 209 244 285 164.5 c 128,-1,2
 361 85 361 85 495 85 c 0,3,4
 632 85 632 85 789 177 c 1,5,-1
 765 51 l 1,6,7
 630 -25 630 -25 477 -25 c 0,8,9
 286 -25 286 -25 183 87 c 128,-1,10
 80 199 80 199 80 401 c 0,11,12
 80 574 80 574 154.5 724.5 c 128,-1,13
 229 875 229 875 356 962 c 128,-1,14
 483 1049 483 1049 629 1049 c 0,15,16
 768 1049 768 1049 851.5 979.5 c 128,-1,17
 935 910 935 910 935 794 c 0,18,19
 935 617 935 617 761.5 531 c 128,-1,20
 588 445 588 445 211 441 c 1,21,-1
 209 388 l 1,0,1
226 549 m 1,22,23
 524 549 524 549 665 606 c 128,-1,24
 806 663 806 663 806 785 c 0,25,26
 806 860 806 860 755.5 899.5 c 128,-1,27
 705 939 705 939 614 939 c 0,28,29
 478 939 478 939 369 829.5 c 128,-1,30
 260 720 260 720 226 549 c 1,22,23
EndSplineSet
Substitution2: "SegoeUI-SemilightItalic-'smcp' Lowercase to Small Capitals lookup 14 subtable" E.c2sc
EndChar

StartChar: f
Encoding: 102 102 172
Width: 563
GlyphClass: 2
Flags: W
AnchorPoint: "Anchor-15" 180 2100 basechar 0
AnchorPoint: "Anchor-14" 784 2100 basechar 0
AnchorPoint: "Anchor-13" 80 -350 basechar 0
AnchorPoint: "Anchor-12" 80 -350 basechar 0
AnchorPoint: "Anchor-11" -20 -350 basechar 0
AnchorPoint: "Anchor-9" 850 1538 basechar 0
AnchorPoint: "Anchor-8" 700 -420 basechar 0
AnchorPoint: "Anchor-7" 1030 1900 basechar 0
AnchorPoint: "Anchor-6" 320 615 basechar 0
AnchorPoint: "Anchor-5" 840 1520 basechar 0
AnchorPoint: "Anchor-2" 60 -350 basechar 0
AnchorPoint: "Anchor-1" 930 1600 basechar 0
AnchorPoint: "Anchor-0" 660 1650 basechar 0
LayerCount: 2
Fore
SplineSet
279 915 m 1,0,-1
 98 915 l 1,1,-1
 123 1024 l 1,2,-1
 303 1024 l 1,3,-1
 344 1216 l 2,4,5
 413 1540 413 1540 698 1540 c 0,6,7
 763 1540 763 1540 821 1522 c 1,8,-1
 799 1406 l 1,9,10
 758 1431 758 1431 686 1431 c 0,11,12
 598 1431 598 1431 544.5 1372.5 c 128,-1,13
 491 1314 491 1314 465 1190 c 2,14,-1
 429 1024 l 1,15,-1
 687 1024 l 1,16,-1
 661 915 l 1,17,-1
 404 915 l 1,18,-1
 136 -340 l 1,19,-1
 10 -340 l 1,20,-1
 279 915 l 1,0,-1
EndSplineSet
Substitution2: "SegoeUI-SemilightItalic-'smcp' Lowercase to Small Capitals lookup 14 subtable" F.c2sc
EndChar

StartChar: g
Encoding: 103 103 173
Width: 1089
GlyphClass: 2
Flags: W
AnchorPoint: "Anchor-15" 180 2100 basechar 0
AnchorPoint: "Anchor-14" 1290 2100 basechar 0
AnchorPoint: "Anchor-13" 600 -320 basechar 0
AnchorPoint: "Anchor-12" 600 -320 basechar 0
AnchorPoint: "Anchor-11" 470 -400 basechar 0
AnchorPoint: "Anchor-10" 420 -450 basechar 0
AnchorPoint: "Anchor-9" 1060 1028 basechar 0
AnchorPoint: "Anchor-8" 897 -420 basechar 0
AnchorPoint: "Anchor-7" 1227 1900 basechar 0
AnchorPoint: "Anchor-6" 520 508 basechar 0
AnchorPoint: "Anchor-5" 1040 1023 basechar 0
AnchorPoint: "Anchor-2" 420 -470 basechar 0
AnchorPoint: "Anchor-1" 1160 1200 basechar 0
AnchorPoint: "Anchor-0" 750 1300 basechar 0
LayerCount: 2
Fore
SplineSet
-5 -284 m 1,0,1
 141 -369 141 -369 276 -369 c 0,2,3
 446 -369 446 -369 547 -273.5 c 128,-1,4
 648 -178 648 -178 699 43 c 2,5,-1
 750 273 l 1,6,-1
 746 273 l 1,7,8
 659 121 659 121 571 48 c 128,-1,9
 483 -25 483 -25 372 -25 c 0,10,11
 234 -25 234 -25 157 71 c 128,-1,12
 80 167 80 167 80 350 c 0,13,14
 80 541 80 541 160.5 702.5 c 128,-1,15
 241 864 241 864 383 956.5 c 128,-1,16
 525 1049 525 1049 696 1049 c 0,17,18
 765 1049 765 1049 862 1037.5 c 128,-1,19
 959 1026 959 1026 1028 1011 c 1,20,-1
 829 73 l 2,21,22
 764 -226 764 -226 628.5 -353.5 c 128,-1,23
 493 -481 493 -481 259 -481 c 0,24,25
 107 -481 107 -481 -29 -407 c 1,26,-1
 -5 -284 l 1,0,1
883 918 m 1,27,28
 795 939 795 939 681 939 c 0,29,30
 551 939 551 939 442.5 864.5 c 128,-1,31
 334 790 334 790 271.5 655.5 c 128,-1,32
 209 521 209 521 209 362 c 0,33,34
 209 85 209 85 396 85 c 0,35,36
 483 85 483 85 570.5 158.5 c 128,-1,37
 658 232 658 232 726 360.5 c 128,-1,38
 794 489 794 489 821 614 c 2,39,-1
 883 918 l 1,27,28
EndSplineSet
Substitution2: "SegoeUI-SemilightItalic-'smcp' Lowercase to Small Capitals lookup 14 subtable" G.c2sc
EndChar

StartChar: h
Encoding: 104 104 174
Width: 1120
GlyphClass: 2
Flags: W
AnchorPoint: "Anchor-15" 180 2100 basechar 0
AnchorPoint: "Anchor-14" 1321 2100 basechar 0
AnchorPoint: "Anchor-13" 800 0 basechar 0
AnchorPoint: "Anchor-12" 800 0 basechar 0
AnchorPoint: "Anchor-11" 690 0 basechar 0
AnchorPoint: "Anchor-9" 1060 938 basechar 0
AnchorPoint: "Anchor-8" 886 -420 basechar 0
AnchorPoint: "Anchor-7" 1216 1900 basechar 0
AnchorPoint: "Anchor-6" 370 1137 basechar 0
AnchorPoint: "Anchor-5" 1030 821 basechar 0
AnchorPoint: "Anchor-2" 440 -15 basechar 0
AnchorPoint: "Anchor-1" 1150 1400 basechar 0
AnchorPoint: "Anchor-0" 770 1650 basechar 0
LayerCount: 2
Fore
SplineSet
377 1516 m 1,0,-1
 502 1516 l 1,1,-1
 341 758 l 1,2,-1
 345 758 l 1,3,4
 528 1049 528 1049 754 1049 c 0,5,6
 882 1049 882 1049 946 976.5 c 128,-1,7
 1010 904 1010 904 1010 767 c 0,8,9
 1010 753 1010 753 1006 725 c 128,-1,10
 1002 697 1002 697 994 648.5 c 128,-1,11
 986 600 986 600 860 0 c 1,12,-1
 733 0 l 1,13,-1
 856 594 l 2,14,15
 881 710 881 710 881 752 c 0,16,17
 881 939 881 939 719 939 c 0,18,19
 638 939 638 939 543 871.5 c 128,-1,20
 448 804 448 804 377 698 c 128,-1,21
 306 592 306 592 284 486 c 2,22,-1
 180 0 l 1,23,-1
 53 0 l 1,24,-1
 377 1516 l 1,0,-1
EndSplineSet
Substitution2: "SegoeUI-SemilightItalic-'smcp' Lowercase to Small Capitals lookup 14 subtable" H.c2sc
EndChar

StartChar: i
Encoding: 105 105 175
Width: 475
GlyphClass: 2
Flags: W
AnchorPoint: "Anchor-15" 180 2100 basechar 0
AnchorPoint: "Anchor-14" 710 2100 basechar 0
AnchorPoint: "Anchor-11" 180 0 basechar 0
AnchorPoint: "Anchor-10" 190 20 basechar 0
AnchorPoint: "Anchor-9" 450 1025 basechar 0
AnchorPoint: "Anchor-8" 383 -420 basechar 0
AnchorPoint: "Anchor-7" 713 1900 basechar 0
AnchorPoint: "Anchor-6" 259 550 basechar 0
AnchorPoint: "Anchor-5" 410 1020 basechar 0
AnchorPoint: "Anchor-2" 160 -15 basechar 0
AnchorPoint: "Anchor-1" 600 1550 basechar 0
AnchorPoint: "Anchor-0" 450 1650 basechar 0
LayerCount: 2
Fore
SplineSet
265 1024 m 1,0,-1
 392 1024 l 1,1,-1
 239 303 l 2,2,3
 219 201 219 201 219 162 c 0,4,5
 219 91 219 91 296 91 c 0,6,7
 342 91 342 91 379 105 c 1,8,-1
 358 3 l 1,9,10
 308 -17 308 -17 251 -17 c 0,11,12
 173 -17 173 -17 131.5 23.5 c 128,-1,13
 90 64 90 64 90 142 c 0,14,15
 90 197 90 197 113 307 c 2,16,-1
 265 1024 l 1,0,-1
402 1281 m 0,17,18
 364 1281 364 1281 337.5 1308.5 c 128,-1,19
 311 1336 311 1336 311 1373 c 0,20,21
 311 1412 311 1412 338 1436.5 c 128,-1,22
 365 1461 365 1461 402 1461 c 256,23,24
 439 1461 439 1461 466 1436.5 c 128,-1,25
 493 1412 493 1412 493 1373 c 256,26,27
 493 1334 493 1334 465.5 1307.5 c 128,-1,28
 438 1281 438 1281 402 1281 c 0,17,18
EndSplineSet
Substitution2: "SegoeUI-SemilightItalic-Single Substitution lookup 30 subtable" dotlessi
Substitution2: "SegoeUI-SemilightItalic-Single Substitution lookup 16 subtable" Idotaccent.c2sc
Substitution2: "SegoeUI-SemilightItalic-'smcp' Lowercase to Small Capitals lookup 15 subtable" I.c2sc
Substitution2: "SegoeUI-SemilightItalic-'sups' Superscript lookup 3 subtable" uni2071
EndChar

StartChar: j
Encoding: 106 106 176
Width: 457
GlyphClass: 2
Flags: W
AnchorPoint: "Anchor-15" 180 2100 basechar 0
AnchorPoint: "Anchor-14" 672 2100 basechar 0
AnchorPoint: "Anchor-13" -20 -350 basechar 0
AnchorPoint: "Anchor-12" -20 -350 basechar 0
AnchorPoint: "Anchor-11" -140 -420 basechar 0
AnchorPoint: "Anchor-9" 450 1025 basechar 0
AnchorPoint: "Anchor-8" 383 -420 basechar 0
AnchorPoint: "Anchor-7" 713 1900 basechar 0
AnchorPoint: "Anchor-6" 248 495 basechar 0
AnchorPoint: "Anchor-5" 410 1016 basechar 0
AnchorPoint: "Anchor-2" -70 -470 basechar 0
AnchorPoint: "Anchor-1" 600 1550 basechar 0
AnchorPoint: "Anchor-0" 450 1650 basechar 0
LayerCount: 2
Fore
SplineSet
-378 -324 m 1,0,1
 -312 -372 -312 -372 -241 -372 c 0,2,3
 -125 -372 -125 -372 -55.5 -281.5 c 128,-1,4
 14 -191 14 -191 57 14 c 2,5,-1
 272 1024 l 1,6,-1
 398 1024 l 1,7,-1
 190 45 l 2,8,9
 129 -240 129 -240 26 -360.5 c 128,-1,10
 -77 -481 -77 -481 -255 -481 c 0,11,12
 -295 -481 -295 -481 -338.5 -469.5 c 128,-1,13
 -382 -458 -382 -458 -402 -446 c 1,14,-1
 -378 -324 l 1,0,1
316 1373 m 0,15,16
 316 1412 316 1412 343.5 1436.5 c 128,-1,17
 371 1461 371 1461 408 1461 c 256,18,19
 445 1461 445 1461 471.5 1436.5 c 128,-1,20
 498 1412 498 1412 498 1373 c 0,21,22
 498 1335 498 1335 472 1308 c 128,-1,23
 446 1281 446 1281 408 1281 c 0,24,25
 388 1281 388 1281 372 1295 c 1,26,27
 348 1303 348 1303 332 1323.5 c 128,-1,28
 316 1344 316 1344 316 1373 c 0,15,16
EndSplineSet
Substitution2: "SegoeUI-SemilightItalic-Single Substitution lookup 30 subtable" uni0237
Substitution2: "SegoeUI-SemilightItalic-'smcp' Lowercase to Small Capitals lookup 14 subtable" J.c2sc
EndChar

StartChar: k
Encoding: 107 107 177
Width: 943
GlyphClass: 2
Flags: W
AnchorPoint: "Anchor-15" 180 2100 basechar 0
AnchorPoint: "Anchor-14" 1184 2100 basechar 0
AnchorPoint: "Anchor-13" 730 0 basechar 0
AnchorPoint: "Anchor-12" 730 0 basechar 0
AnchorPoint: "Anchor-11" 640 0 basechar 0
AnchorPoint: "Anchor-10" 359 -50 basechar 0
AnchorPoint: "Anchor-9" 1020 1035 basechar 0
AnchorPoint: "Anchor-8" 917 -420 basechar 0
AnchorPoint: "Anchor-7" 1247 1900 basechar 0
AnchorPoint: "Anchor-6" 360 1061 basechar 0
AnchorPoint: "Anchor-5" 960 1026 basechar 0
AnchorPoint: "Anchor-2" 440 -15 basechar 0
AnchorPoint: "Anchor-1" 1080 1400 basechar 0
AnchorPoint: "Anchor-0" 770 1650 basechar 0
LayerCount: 2
Fore
SplineSet
377 1516 m 1,0,-1
 502 1516 l 1,1,-1
 299 564 l 1,2,-1
 303 564 l 1,3,-1
 845 1024 l 1,4,-1
 1014 1024 l 1,5,-1
 427 535 l 1,6,-1
 811 0 l 1,7,-1
 661 0 l 1,8,-1
 296 529 l 1,9,-1
 292 529 l 1,10,-1
 180 0 l 1,11,-1
 53 0 l 1,12,-1
 377 1516 l 1,0,-1
EndSplineSet
Substitution2: "SegoeUI-SemilightItalic-'smcp' Lowercase to Small Capitals lookup 14 subtable" K.c2sc
EndChar

StartChar: l
Encoding: 108 108 178
Width: 475
GlyphClass: 2
Flags: W
AnchorPoint: "Anchor-15" 180 2100 basechar 0
AnchorPoint: "Anchor-14" 710 2100 basechar 0
AnchorPoint: "Anchor-13" 320 0 basechar 0
AnchorPoint: "Anchor-12" 325 0 basechar 0
AnchorPoint: "Anchor-11" 180 0 basechar 0
AnchorPoint: "Anchor-10" 190 20 basechar 0
AnchorPoint: "Anchor-9" 539 1522 basechar 0
AnchorPoint: "Anchor-8" 389 -420 basechar 0
AnchorPoint: "Anchor-7" 719 1900 basechar 0
AnchorPoint: "Anchor-6" 300 761 basechar 0
AnchorPoint: "Anchor-5" 525 1513 basechar 0
AnchorPoint: "Anchor-2" 160 -15 basechar 0
AnchorPoint: "Anchor-1" 600 1600 basechar 0
AnchorPoint: "Anchor-0" 490 1650 basechar 0
LayerCount: 2
Fore
SplineSet
370 1516 m 1,0,-1
 497 1516 l 1,1,-1
 239 303 l 2,2,3
 219 201 219 201 219 162 c 0,4,5
 219 91 219 91 296 91 c 0,6,7
 342 91 342 91 379 105 c 1,8,-1
 358 3 l 1,9,10
 308 -17 308 -17 251 -17 c 0,11,12
 173 -17 173 -17 131.5 23.5 c 128,-1,13
 90 64 90 64 90 142 c 0,14,15
 90 204 90 204 113 307 c 2,16,-1
 370 1516 l 1,0,-1
EndSplineSet
Substitution2: "SegoeUI-SemilightItalic-'smcp' Lowercase to Small Capitals lookup 14 subtable" L.c2sc
EndChar

StartChar: m
Encoding: 109 109 179
Width: 1728
GlyphClass: 2
Flags: W
AnchorPoint: "Anchor-15" 180 2100 basechar 0
AnchorPoint: "Anchor-14" 1937 2100 basechar 0
AnchorPoint: "Anchor-13" 1415 0 basechar 0
AnchorPoint: "Anchor-12" 1410 0 basechar 0
AnchorPoint: "Anchor-11" 1300 0 basechar 0
AnchorPoint: "Anchor-9" 1700 888 basechar 0
AnchorPoint: "Anchor-8" 1503 -420 basechar 0
AnchorPoint: "Anchor-7" 1833 1900 basechar 0
AnchorPoint: "Anchor-6" 882 524 basechar 0
AnchorPoint: "Anchor-5" 1640 928 basechar 0
AnchorPoint: "Anchor-2" 740 -15 basechar 0
AnchorPoint: "Anchor-1" 1730 1200 basechar 0
AnchorPoint: "Anchor-0" 1070 1300 basechar 0
LayerCount: 2
Fore
SplineSet
259 1024 m 1,0,-1
 382 1024 l 1,1,2
 368 917 368 917 339 756 c 1,3,-1
 343 756 l 1,4,5
 525 1049 525 1049 734 1049 c 0,6,7
 858 1049 858 1049 914.5 975 c 128,-1,8
 971 901 971 901 973 757 c 1,9,10
 1060 896 1060 896 1164 972.5 c 128,-1,11
 1268 1049 1268 1049 1377 1049 c 0,12,13
 1618 1049 1618 1049 1618 771 c 0,14,15
 1618 712 1618 712 1588 567 c 2,16,-1
 1467 0 l 1,17,-1
 1342 0 l 1,18,-1
 1464 594 l 2,19,20
 1489 709 1489 709 1489 761 c 0,21,22
 1489 939 1489 939 1342 939 c 0,23,24
 1269 939 1269 939 1181.5 874 c 128,-1,25
 1094 809 1094 809 1022.5 701 c 128,-1,26
 951 593 951 593 928 491 c 2,27,-1
 824 0 l 1,28,-1
 697 0 l 1,29,-1
 821 594 l 2,30,31
 846 709 846 709 846 752 c 0,32,33
 846 939 846 939 699 939 c 0,34,35
 626 939 626 939 537.5 873 c 128,-1,36
 449 807 449 807 377 697.5 c 128,-1,37
 305 588 305 588 284 488 c 2,38,-1
 180 0 l 1,39,-1
 53 0 l 1,40,-1
 211 735 l 2,41,42
 251 929 251 929 259 1024 c 1,0,-1
EndSplineSet
Substitution2: "SegoeUI-SemilightItalic-'smcp' Lowercase to Small Capitals lookup 14 subtable" M.c2sc
EndChar

StartChar: n
Encoding: 110 110 180
Width: 1126
GlyphClass: 2
Flags: W
AnchorPoint: "Anchor-15" 180 2100 basechar 0
AnchorPoint: "Anchor-14" 1331 2100 basechar 0
AnchorPoint: "Anchor-13" 805 0 basechar 0
AnchorPoint: "Anchor-12" 805 0 basechar 0
AnchorPoint: "Anchor-11" 700 0 basechar 0
AnchorPoint: "Anchor-10" 429 -50 basechar 0
AnchorPoint: "Anchor-9" 1100 888 basechar 0
AnchorPoint: "Anchor-8" 896 -420 basechar 0
AnchorPoint: "Anchor-7" 1226 1900 basechar 0
AnchorPoint: "Anchor-6" 588 524 basechar 0
AnchorPoint: "Anchor-5" 1040 928 basechar 0
AnchorPoint: "Anchor-2" 440 -15 basechar 0
AnchorPoint: "Anchor-1" 1140 1200 basechar 0
AnchorPoint: "Anchor-0" 770 1300 basechar 0
LayerCount: 2
Fore
SplineSet
263 1024 m 1,0,-1
 386 1024 l 1,1,2
 372 917 372 917 343 756 c 1,3,-1
 347 756 l 1,4,5
 434 897 434 897 540 973 c 128,-1,6
 646 1049 646 1049 758 1049 c 0,7,8
 1015 1049 1015 1049 1015 771 c 0,9,10
 1015 716 1015 716 983 567 c 2,11,-1
 863 0 l 1,12,-1
 737 0 l 1,13,-1
 860 594 l 2,14,15
 884 716 884 716 884 752 c 0,16,17
 884 939 884 939 723 939 c 0,18,19
 643 939 643 939 548 871.5 c 128,-1,20
 453 804 453 804 381.5 698.5 c 128,-1,21
 310 593 310 593 288 488 c 2,22,-1
 184 0 l 1,23,-1
 57 0 l 1,24,-1
 215 735 l 2,25,26
 243 874 243 874 263 1024 c 1,0,-1
EndSplineSet
Substitution2: "SegoeUI-SemilightItalic-'smcp' Lowercase to Small Capitals lookup 14 subtable" N.c2sc
Substitution2: "SegoeUI-SemilightItalic-'sups' Superscript lookup 3 subtable" uni207F
EndChar

StartChar: o
Encoding: 111 111 181
Width: 1077
GlyphClass: 2
Flags: W
AnchorPoint: "Anchor-15" 180 2100 basechar 0
AnchorPoint: "Anchor-14" 1276 2100 basechar 0
AnchorPoint: "Anchor-11" 520 0 basechar 0
AnchorPoint: "Anchor-10" 450 -15 basechar 0
AnchorPoint: "Anchor-9" 1020 900 basechar 0
AnchorPoint: "Anchor-8" 868 -420 basechar 0
AnchorPoint: "Anchor-7" 1198 1900 basechar 0
AnchorPoint: "Anchor-6" 560 536 basechar 0
AnchorPoint: "Anchor-5" 990 910 basechar 0
AnchorPoint: "Anchor-2" 450 -25 basechar 0
AnchorPoint: "Anchor-1" 1100 1200 basechar 0
AnchorPoint: "Anchor-0" 720 1300 basechar 0
LayerCount: 2
Fore
SplineSet
449 -25 m 0,0,1
 278 -25 278 -25 179 80.5 c 128,-1,2
 80 186 80 186 80 375 c 0,3,4
 80 561 80 561 150.5 716.5 c 128,-1,5
 221 872 221 872 348.5 960.5 c 128,-1,6
 476 1049 476 1049 629 1049 c 0,7,8
 799 1049 799 1049 898 942.5 c 128,-1,9
 997 836 997 836 997 650 c 0,10,11
 997 461 997 461 926.5 305.5 c 128,-1,12
 856 150 856 150 730.5 62.5 c 128,-1,13
 605 -25 605 -25 449 -25 c 0,0,1
458 85 m 0,14,15
 571 85 571 85 666 159 c 128,-1,16
 761 233 761 233 814.5 361 c 128,-1,17
 868 489 868 489 868 641 c 0,18,19
 868 786 868 786 801.5 862.5 c 128,-1,20
 735 939 735 939 619 939 c 0,21,22
 448 939 448 939 328.5 778.5 c 128,-1,23
 209 618 209 618 209 383 c 0,24,25
 209 243 209 243 276 164 c 128,-1,26
 343 85 343 85 458 85 c 0,14,15
EndSplineSet
Substitution2: "SegoeUI-SemilightItalic-'smcp' Lowercase to Small Capitals lookup 14 subtable" O.c2sc
EndChar

StartChar: p
Encoding: 112 112 182
Width: 1089
GlyphClass: 2
Flags: W
AnchorPoint: "Anchor-15" 180 2100 basechar 0
AnchorPoint: "Anchor-14" 1290 2100 basechar 0
AnchorPoint: "Anchor-13" 670 63 basechar 0
AnchorPoint: "Anchor-12" 670 63 basechar 0
AnchorPoint: "Anchor-11" -90 -480 basechar 0
AnchorPoint: "Anchor-9" 1040 903 basechar 0
AnchorPoint: "Anchor-8" 882 -420 basechar 0
AnchorPoint: "Anchor-7" 1212 1900 basechar 0
AnchorPoint: "Anchor-6" 580 495 basechar 0
AnchorPoint: "Anchor-5" 1000 943 basechar 0
AnchorPoint: "Anchor-2" 400 -470 basechar 0
AnchorPoint: "Anchor-1" 1100 1200 basechar 0
AnchorPoint: "Anchor-0" 720 1300 basechar 0
LayerCount: 2
Fore
SplineSet
234 1024 m 1,0,-1
 362 1024 l 1,1,2
 362 989 362 989 349 889 c 128,-1,3
 336 789 336 789 328 748 c 1,4,-1
 332 748 l 1,5,6
 498 1049 498 1049 719 1049 c 0,7,8
 858 1049 858 1049 933.5 954 c 128,-1,9
 1009 859 1009 859 1009 675 c 0,10,11
 1009 484 1009 484 926.5 319.5 c 128,-1,12
 844 155 844 155 704.5 65 c 128,-1,13
 565 -25 565 -25 397 -25 c 0,14,15
 285 -25 285 -25 181 14 c 1,16,-1
 77 -478 l 1,17,-1
 -49 -478 l 1,18,-1
 201 704 l 2,19,20
 213 766 213 766 223.5 876.5 c 128,-1,21
 234 987 234 987 234 1024 c 1,0,-1
203 125 m 1,22,23
 291 85 291 85 411 85 c 0,24,25
 542 85 542 85 650 162 c 128,-1,26
 758 239 758 239 819 372.5 c 128,-1,27
 880 506 880 506 880 663 c 0,28,29
 880 939 880 939 684 939 c 0,30,31
 602 939 602 939 514.5 865 c 128,-1,32
 427 791 427 791 358.5 666 c 128,-1,33
 290 541 290 541 263 410 c 2,34,-1
 203 125 l 1,22,23
EndSplineSet
Substitution2: "SegoeUI-SemilightItalic-'smcp' Lowercase to Small Capitals lookup 14 subtable" P.c2sc
EndChar

StartChar: q
Encoding: 113 113 183
Width: 1089
GlyphClass: 2
Flags: W
AnchorPoint: "Anchor-15" 180 2100 basechar 0
AnchorPoint: "Anchor-14" 1290 2100 basechar 0
AnchorPoint: "Anchor-13" 660 -470 basechar 0
AnchorPoint: "Anchor-12" 650 -470 basechar 0
AnchorPoint: "Anchor-11" 550 -480 basechar 0
AnchorPoint: "Anchor-9" 1070 1027 basechar 0
AnchorPoint: "Anchor-8" 897 -420 basechar 0
AnchorPoint: "Anchor-7" 1227 1900 basechar 0
AnchorPoint: "Anchor-6" 530 531 basechar 0
AnchorPoint: "Anchor-5" 1040 1027 basechar 0
AnchorPoint: "Anchor-2" 400 -470 basechar 0
AnchorPoint: "Anchor-1" 1130 1200 basechar 0
AnchorPoint: "Anchor-0" 770 1300 basechar 0
LayerCount: 2
Fore
SplineSet
748 257 m 1,0,-1
 745 257 l 1,1,2
 664 118 664 118 573.5 46.5 c 128,-1,3
 483 -25 483 -25 372 -25 c 0,4,5
 232 -25 232 -25 156 71 c 128,-1,6
 80 167 80 167 80 349 c 0,7,8
 80 540 80 540 162 704.5 c 128,-1,9
 244 869 244 869 384.5 959 c 128,-1,10
 525 1049 525 1049 704 1049 c 0,11,12
 858 1049 858 1049 1027 999 c 1,13,-1
 714 -478 l 1,14,-1
 588 -478 l 1,15,16
 730 189 730 189 748 257 c 1,0,-1
882 909 m 1,17,18
 783 939 783 939 688 939 c 0,19,20
 553 939 553 939 444 863.5 c 128,-1,21
 335 788 335 788 272 652 c 128,-1,22
 209 516 209 516 209 361 c 0,23,24
 209 85 209 85 402 85 c 0,25,26
 483 85 483 85 570 158 c 128,-1,27
 657 231 657 231 724 353.5 c 128,-1,28
 791 476 791 476 821 614 c 2,29,-1
 882 909 l 1,17,18
EndSplineSet
Substitution2: "SegoeUI-SemilightItalic-'smcp' Lowercase to Small Capitals lookup 14 subtable" Q.c2sc
EndChar

StartChar: r
Encoding: 114 114 184
Width: 704
GlyphClass: 2
Flags: W
AnchorPoint: "Anchor-15" 180 2100 basechar 0
AnchorPoint: "Anchor-14" 907 2100 basechar 0
AnchorPoint: "Anchor-13" 130 0 basechar 0
AnchorPoint: "Anchor-12" 120 0 basechar 0
AnchorPoint: "Anchor-11" 20 0 basechar 0
AnchorPoint: "Anchor-10" 110 0 basechar 0
AnchorPoint: "Anchor-9" 840 1026 basechar 0
AnchorPoint: "Anchor-8" 645 -420 basechar 0
AnchorPoint: "Anchor-7" 975 1900 basechar 0
AnchorPoint: "Anchor-6" 240 485 basechar 0
AnchorPoint: "Anchor-5" 780 1030 basechar 0
AnchorPoint: "Anchor-2" 100 -15 basechar 0
AnchorPoint: "Anchor-1" 870 1200 basechar 0
AnchorPoint: "Anchor-0" 620 1300 basechar 0
LayerCount: 2
Fore
SplineSet
256 1024 m 1,0,-1
 381 1024 l 1,1,-1
 347 790 l 1,2,-1
 351 790 l 1,3,4
 419 920 419 920 493.5 984.5 c 128,-1,5
 568 1049 568 1049 665 1049 c 0,6,7
 722 1049 722 1049 772 1028 c 1,8,-1
 749 893 l 1,9,-1
 745 893 l 1,10,11
 691 928 691 928 634 928 c 0,12,13
 525 928 525 928 423.5 792.5 c 128,-1,14
 322 657 322 657 277 450 c 2,15,-1
 181 0 l 1,16,-1
 55 0 l 1,17,-1
 198 672 l 2,18,19
 245 883 245 883 256 1024 c 1,0,-1
EndSplineSet
Substitution2: "SegoeUI-SemilightItalic-'smcp' Lowercase to Small Capitals lookup 14 subtable" R.c2sc
EndChar

StartChar: s
Encoding: 115 115 185
Width: 801
GlyphClass: 2
Flags: W
AnchorPoint: "Anchor-15" 180 2100 basechar 0
AnchorPoint: "Anchor-14" 989 2100 basechar 0
AnchorPoint: "Anchor-13" 500 80 basechar 0
AnchorPoint: "Anchor-12" 500 80 basechar 0
AnchorPoint: "Anchor-11" 310 0 basechar 0
AnchorPoint: "Anchor-10" 274 -15 basechar 0
AnchorPoint: "Anchor-9" 800 1011 basechar 0
AnchorPoint: "Anchor-8" 610 -420 basechar 0
AnchorPoint: "Anchor-7" 940 1900 basechar 0
AnchorPoint: "Anchor-6" 434 536 basechar 0
AnchorPoint: "Anchor-5" 750 1020 basechar 0
AnchorPoint: "Anchor-2" 280 -25 basechar 0
AnchorPoint: "Anchor-1" 860 1200 basechar 0
AnchorPoint: "Anchor-0" 550 1300 basechar 0
LayerCount: 2
Fore
SplineSet
48 166 m 1,0,1
 95 131 95 131 165.5 108 c 128,-1,2
 236 85 236 85 300 85 c 0,3,4
 410 85 410 85 467.5 129.5 c 128,-1,5
 525 174 525 174 525 260 c 0,6,7
 525 319 525 319 489 361.5 c 128,-1,8
 453 404 453 404 358 462 c 0,9,10
 251 526 251 526 202.5 591 c 128,-1,11
 154 656 154 656 154 743 c 0,12,13
 154 875 154 875 251 962 c 128,-1,14
 348 1049 348 1049 503 1049 c 0,15,16
 560 1049 560 1049 627 1036 c 128,-1,17
 694 1023 694 1023 745 998 c 1,18,-1
 719 875 l 1,19,20
 620 939 620 939 497 939 c 0,21,22
 400 939 400 939 341.5 888.5 c 128,-1,23
 283 838 283 838 283 757 c 0,24,25
 283 698 283 698 315 655 c 128,-1,26
 347 612 347 612 443 555 c 0,27,28
 559 484 559 484 606.5 419.5 c 128,-1,29
 654 355 654 355 654 272 c 0,30,31
 654 136 654 136 555 55.5 c 128,-1,32
 456 -25 456 -25 285 -25 c 0,33,34
 216 -25 216 -25 143.5 -6.5 c 128,-1,35
 71 12 71 12 22 41 c 1,36,-1
 48 166 l 1,0,1
EndSplineSet
Substitution2: "SegoeUI-SemilightItalic-'smcp' Lowercase to Small Capitals lookup 14 subtable" S.c2sc
EndChar

StartChar: t
Encoding: 116 116 186
Width: 633
GlyphClass: 2
Flags: W
AnchorPoint: "Anchor-15" 180 2100 basechar 0
AnchorPoint: "Anchor-14" 842 2100 basechar 0
AnchorPoint: "Anchor-13" 420 0 basechar 0
AnchorPoint: "Anchor-12" 410 0 basechar 0
AnchorPoint: "Anchor-11" 290 -15 basechar 0
AnchorPoint: "Anchor-10" 297 0 basechar 0
AnchorPoint: "Anchor-9" 700 1027 basechar 0
AnchorPoint: "Anchor-8" 571 -420 basechar 0
AnchorPoint: "Anchor-7" 901 1900 basechar 0
AnchorPoint: "Anchor-6" 300 539 basechar 0
AnchorPoint: "Anchor-5" 700 1022 basechar 0
AnchorPoint: "Anchor-2" 234 -25 basechar 0
AnchorPoint: "Anchor-1" 660 1400 basechar 0
AnchorPoint: "Anchor-0" 480 1500 basechar 0
LayerCount: 2
Fore
SplineSet
277 915 m 1,0,-1
 98 915 l 1,1,-1
 123 1024 l 1,2,-1
 299 1024 l 1,3,-1
 354 1283 l 1,4,-1
 489 1324 l 1,5,-1
 425 1024 l 1,6,-1
 692 1024 l 1,7,-1
 667 915 l 1,8,-1
 402 915 l 1,9,-1
 275 318 l 2,10,11
 257 237 257 237 257 186 c 0,12,13
 257 136 257 136 278 113 c 128,-1,14
 299 90 299 90 348 90 c 0,15,16
 395 90 395 90 501 137 c 1,17,-1
 476 23 l 1,18,19
 442 6 442 6 394.5 -6.5 c 128,-1,20
 347 -19 347 -19 313 -19 c 0,21,22
 129 -19 129 -19 129 171 c 0,23,24
 129 230 129 230 148 313 c 2,25,-1
 277 915 l 1,0,-1
EndSplineSet
Substitution2: "SegoeUI-SemilightItalic-'smcp' Lowercase to Small Capitals lookup 14 subtable" T.c2sc
EndChar

StartChar: u
Encoding: 117 117 187
Width: 1122
GlyphClass: 2
Flags: W
AnchorPoint: "Anchor-15" 180 2100 basechar 0
AnchorPoint: "Anchor-14" 1323 2100 basechar 0
AnchorPoint: "Anchor-13" 790 0 basechar 0
AnchorPoint: "Anchor-12" 790 0 basechar 0
AnchorPoint: "Anchor-11" 680 0 basechar 0
AnchorPoint: "Anchor-10" 379 -15 basechar 0
AnchorPoint: "Anchor-9" 1120 1020 basechar 0
AnchorPoint: "Anchor-8" 937 -420 basechar 0
AnchorPoint: "Anchor-7" 1267 1900 basechar 0
AnchorPoint: "Anchor-6" 560 524 basechar 0
AnchorPoint: "Anchor-5" 1070 1020 basechar 0
AnchorPoint: "Anchor-2" 400 -25 basechar 0
AnchorPoint: "Anchor-1" 1150 1200 basechar 0
AnchorPoint: "Anchor-0" 700 1300 basechar 0
LayerCount: 2
Fore
SplineSet
260 1024 m 1,0,-1
 386 1024 l 1,1,-1
 262 430 l 2,2,3
 238 308 238 308 238 272 c 0,4,5
 238 85 238 85 399 85 c 0,6,7
 477 85 477 85 567.5 147.5 c 128,-1,8
 658 210 658 210 734.5 319 c 128,-1,9
 811 428 811 428 835 536 c 2,10,-1
 939 1024 l 1,11,-1
 1065 1024 l 1,12,-1
 908 288 l 2,13,14
 874 132 874 132 860 0 c 1,15,-1
 737 0 l 1,16,-1
 780 268 l 1,17,-1
 776 268 l 1,18,19
 689 127 689 127 583 51 c 128,-1,20
 477 -25 477 -25 366 -25 c 0,21,22
 236 -25 236 -25 172 48.5 c 128,-1,23
 108 122 108 122 108 257 c 0,24,25
 108 286 108 286 118.5 351 c 128,-1,26
 129 416 129 416 139 456 c 2,27,-1
 260 1024 l 1,0,-1
EndSplineSet
Substitution2: "SegoeUI-SemilightItalic-'smcp' Lowercase to Small Capitals lookup 14 subtable" U.c2sc
EndChar

StartChar: v
Encoding: 118 118 188
Width: 947
GlyphClass: 2
Flags: W
AnchorPoint: "Anchor-15" 180 2100 basechar 0
AnchorPoint: "Anchor-14" 1149 2100 basechar 0
AnchorPoint: "Anchor-13" 365 0 basechar 0
AnchorPoint: "Anchor-12" 365 0 basechar 0
AnchorPoint: "Anchor-11" 270 0 basechar 0
AnchorPoint: "Anchor-9" 1060 1024 basechar 0
AnchorPoint: "Anchor-8" 909 -420 basechar 0
AnchorPoint: "Anchor-7" 1239 1900 basechar 0
AnchorPoint: "Anchor-6" 535 620 basechar 0
AnchorPoint: "Anchor-5" 1010 1024 basechar 0
AnchorPoint: "Anchor-2" 350 -15 basechar 0
AnchorPoint: "Anchor-1" 1130 1200 basechar 0
AnchorPoint: "Anchor-0" 620 1300 basechar 0
LayerCount: 2
Fore
SplineSet
138 1024 m 1,0,-1
 265 1024 l 1,1,-1
 379 291 l 2,2,3
 391 212 391 212 391 149 c 1,4,-1
 395 149 l 1,5,6
 426 220 426 220 455 269 c 2,7,-1
 892 1024 l 1,8,-1
 1035 1024 l 1,9,-1
 418 0 l 1,10,-1
 309 0 l 1,11,-1
 138 1024 l 1,0,-1
EndSplineSet
Substitution2: "SegoeUI-SemilightItalic-'smcp' Lowercase to Small Capitals lookup 14 subtable" V.c2sc
EndChar

StartChar: w
Encoding: 119 119 189
Width: 1427
GlyphClass: 2
Flags: W
AnchorPoint: "Anchor-15" 180 2100 basechar 0
AnchorPoint: "Anchor-14" 1655 2100 basechar 0
AnchorPoint: "Anchor-13" 945 0 basechar 0
AnchorPoint: "Anchor-12" 940 0 basechar 0
AnchorPoint: "Anchor-11" 840 0 basechar 0
AnchorPoint: "Anchor-9" 1560 1024 basechar 0
AnchorPoint: "Anchor-8" 1398 -420 basechar 0
AnchorPoint: "Anchor-7" 1728 1900 basechar 0
AnchorPoint: "Anchor-6" 740 512 basechar 0
AnchorPoint: "Anchor-5" 1510 1024 basechar 0
AnchorPoint: "Anchor-2" 605 -15 basechar 0
AnchorPoint: "Anchor-1" 1620 1200 basechar 0
AnchorPoint: "Anchor-0" 935 1300 basechar 0
LayerCount: 2
Fore
SplineSet
134 1024 m 1,0,-1
 258 1024 l 1,1,-1
 316 219 l 1,2,-1
 316 207 l 1,3,-1
 316 193 l 1,4,-1
 312 140 l 1,5,-1
 319 140 l 1,6,7
 335 191 335 191 356 232 c 2,8,-1
 774 1024 l 1,9,-1
 875 1024 l 1,10,-1
 934 201 l 1,11,-1
 929 139 l 1,12,-1
 937 139 l 1,13,14
 953 194 953 194 973 231 c 2,15,-1
 1368 1024 l 1,16,-1
 1498 1024 l 1,17,-1
 967 0 l 1,18,-1
 848 0 l 1,19,-1
 787 748 l 1,20,-1
 785 786 l 1,21,-1
 789 844 l 1,22,-1
 785 844 l 1,23,24
 780 830 780 830 770.5 807.5 c 128,-1,25
 761 785 761 785 346 0 c 1,26,-1
 226 0 l 1,27,-1
 134 1024 l 1,0,-1
EndSplineSet
Substitution2: "SegoeUI-SemilightItalic-'smcp' Lowercase to Small Capitals lookup 14 subtable" W.c2sc
EndChar

StartChar: x
Encoding: 120 120 190
Width: 906
GlyphClass: 2
Flags: W
AnchorPoint: "Anchor-15" 180 2100 basechar 0
AnchorPoint: "Anchor-14" 1112 2100 basechar 0
AnchorPoint: "Anchor-11" 570 0 basechar 0
AnchorPoint: "Anchor-9" 980 1024 basechar 0
AnchorPoint: "Anchor-8" 868 -420 basechar 0
AnchorPoint: "Anchor-7" 1198 1900 basechar 0
AnchorPoint: "Anchor-6" 470 512 basechar 0
AnchorPoint: "Anchor-5" 940 1024 basechar 0
AnchorPoint: "Anchor-2" 320 -15 basechar 0
AnchorPoint: "Anchor-1" 1080 1200 basechar 0
AnchorPoint: "Anchor-0" 610 1300 basechar 0
LayerCount: 2
Fore
SplineSet
381 507 m 1,0,-1
 152 1024 l 1,1,-1
 290 1024 l 1,2,-1
 448 626 l 1,3,-1
 462 582 l 1,4,-1
 467 582 l 1,5,-1
 525 658 l 1,6,-1
 833 1024 l 1,7,-1
 980 1024 l 1,8,-1
 519 499 l 1,9,-1
 753 0 l 1,10,-1
 611 -1 l 1,11,12
 476 325 476 325 437 425 c 1,13,-1
 432 425 l 1,14,-1
 374 349 l 1,15,-1
 80 0 l 1,16,-1
 -75 0 l 1,17,-1
 381 507 l 1,0,-1
EndSplineSet
Substitution2: "SegoeUI-SemilightItalic-'smcp' Lowercase to Small Capitals lookup 14 subtable" X.c2sc
EndChar

StartChar: y
Encoding: 121 121 191
Width: 957
GlyphClass: 2
Flags: W
AnchorPoint: "Anchor-15" 180 2100 basechar 0
AnchorPoint: "Anchor-14" 1171 2100 basechar 0
AnchorPoint: "Anchor-11" -10 -440 basechar 0
AnchorPoint: "Anchor-9" 1080 1036 basechar 0
AnchorPoint: "Anchor-8" 944 -420 basechar 0
AnchorPoint: "Anchor-7" 1274 1900 basechar 0
AnchorPoint: "Anchor-6" 495 602 basechar 0
AnchorPoint: "Anchor-5" 1040 1020 basechar 0
AnchorPoint: "Anchor-2" 355 -470 basechar 0
AnchorPoint: "Anchor-1" 1160 1200 basechar 0
AnchorPoint: "Anchor-0" 625 1300 basechar 0
LayerCount: 2
Fore
SplineSet
-139 -348 m 1,0,1
 -107 -366 -107 -366 -60 -366 c 0,2,3
 12 -366 12 -366 69.5 -324 c 128,-1,4
 127 -282 127 -282 182 -194 c 2,5,-1
 311 9 l 1,6,-1
 128 1024 l 1,7,-1
 257 1024 l 1,8,-1
 391 215 l 1,9,-1
 398 138 l 1,10,-1
 402 138 l 1,11,-1
 429 191 l 1,12,-1
 925 1024 l 1,13,-1
 1067 1024 l 1,14,-1
 325 -181 l 2,15,16
 218 -352 218 -352 129.5 -416.5 c 128,-1,17
 41 -481 41 -481 -72 -481 c 0,18,19
 -128 -481 -128 -481 -164 -466 c 1,20,-1
 -139 -348 l 1,0,1
EndSplineSet
Substitution2: "SegoeUI-SemilightItalic-'smcp' Lowercase to Small Capitals lookup 14 subtable" Y.c2sc
EndChar

StartChar: z
Encoding: 122 122 192
Width: 939
GlyphClass: 2
Flags: W
AnchorPoint: "Anchor-15" 180 2100 basechar 0
AnchorPoint: "Anchor-14" 1106 2100 basechar 0
AnchorPoint: "Anchor-13" 680 0 basechar 0
AnchorPoint: "Anchor-12" 680 0 basechar 0
AnchorPoint: "Anchor-11" 520 0 basechar 0
AnchorPoint: "Anchor-9" 980 1024 basechar 0
AnchorPoint: "Anchor-8" 841 -420 basechar 0
AnchorPoint: "Anchor-7" 1171 1900 basechar 0
AnchorPoint: "Anchor-6" 463 512 basechar 0
AnchorPoint: "Anchor-5" 940 1024 basechar 0
AnchorPoint: "Anchor-2" 300 -15 basechar 0
AnchorPoint: "Anchor-1" 1050 1200 basechar 0
AnchorPoint: "Anchor-0" 660 1300 basechar 0
LayerCount: 2
Fore
SplineSet
768 915 m 1,0,-1
 184 915 l 1,1,-1
 208 1024 l 1,2,-1
 996 1024 l 1,3,-1
 989 984 l 1,4,-1
 161 109 l 1,5,-1
 786 109 l 1,6,-1
 762 0 l 1,7,-1
 -63 0 l 1,8,-1
 -54 48 l 1,9,-1
 768 915 l 1,0,-1
EndSplineSet
Substitution2: "SegoeUI-SemilightItalic-'smcp' Lowercase to Small Capitals lookup 14 subtable" Z.c2sc
EndChar

StartChar: braceleft
Encoding: 123 123 193
Width: 604
GlyphClass: 2
Flags: W
LayerCount: 2
Fore
SplineSet
198 369 m 0,0,1
 198 500 198 500 76 519 c 1,2,-1
 96 605 l 1,3,4
 185 617 185 617 232 665.5 c 128,-1,5
 279 714 279 714 304 830 c 2,6,-1
 368 1128 l 2,7,8
 400 1283 400 1283 481 1357 c 128,-1,9
 562 1431 562 1431 709 1433 c 1,10,-1
 689 1336 l 1,11,12
 603 1334 603 1334 555 1283 c 128,-1,13
 507 1232 507 1232 484 1122 c 2,14,-1
 421 830 l 2,15,16
 396 715 396 715 348 648.5 c 128,-1,17
 300 582 300 582 220 557 c 1,18,-1
 220 553 l 1,19,20
 316 515 316 515 316 378 c 0,21,22
 316 331 316 331 305 281 c 2,23,-1
 246 10 l 2,24,25
 232 -49 232 -49 232 -94 c 0,26,27
 232 -150 232 -150 261 -181 c 128,-1,28
 290 -212 290 -212 359 -217 c 1,29,-1
 339 -310 l 1,30,31
 223 -305 223 -305 169 -249.5 c 128,-1,32
 115 -194 115 -194 115 -102 c 0,33,34
 115 -71 115 -71 126 -12 c 2,35,-1
 187 278 l 2,36,37
 198 328 198 328 198 369 c 0,0,1
EndSplineSet
Position2: "SegoeUI-SemilightItalic-'case' Case-Sensitive Forms lookup 15 subtable" dx=30 dy=140 dh=0 dv=0
EndChar

StartChar: bar
Encoding: 124 124 194
Width: 476
GlyphClass: 2
Flags: W
LayerCount: 2
Fore
SplineSet
179 1567 m 1,0,-1
 297 1567 l 1,1,-1
 297 -481 l 1,2,-1
 179 -481 l 1,3,-1
 179 1567 l 1,0,-1
EndSplineSet
EndChar

StartChar: braceright
Encoding: 125 125 195
Width: 604
GlyphClass: 2
Flags: W
LayerCount: 2
Fore
SplineSet
385 566 m 1,0,-1
 385 570 l 1,1,2
 288 608 288 608 288 745 c 0,3,4
 288 784 288 784 299 843 c 2,5,-1
 357 1113 l 2,6,7
 371 1171 371 1171 371 1216 c 0,8,9
 371 1273 371 1273 343 1304 c 128,-1,10
 315 1335 315 1335 245 1339 c 1,11,-1
 264 1433 l 1,12,13
 489 1423 489 1423 489 1225 c 0,14,15
 489 1185 489 1185 478 1135 c 2,16,-1
 417 845 l 2,17,18
 406 797 406 797 406 754 c 0,19,20
 406 621 406 621 528 605 c 1,21,-1
 508 517 l 1,22,23
 418 507 418 507 371.5 456.5 c 128,-1,24
 325 406 325 406 300 292 c 2,25,-1
 236 -5 l 2,26,27
 200 -168 200 -168 118.5 -238.5 c 128,-1,28
 37 -309 37 -309 -104 -309 c 1,29,-1
 -85 -214 l 1,30,31
 3 -210 3 -210 50.5 -159 c 128,-1,32
 98 -108 98 -108 121 1 c 2,33,-1
 182 292 l 2,34,35
 206 406 206 406 254.5 473 c 128,-1,36
 303 540 303 540 385 566 c 1,0,-1
EndSplineSet
Position2: "SegoeUI-SemilightItalic-'case' Case-Sensitive Forms lookup 15 subtable" dx=30 dy=140 dh=0 dv=0
EndChar

StartChar: asciitilde
Encoding: 126 126 196
Width: 1364
GlyphClass: 2
Flags: W
LayerCount: 2
Fore
SplineSet
247 461 m 1,0,1
 253 589 253 589 320.5 661.5 c 128,-1,2
 388 734 388 734 503 734 c 0,3,4
 565 734 565 734 615.5 710.5 c 128,-1,5
 666 687 666 687 716 651 c 0,6,7
 803 586 803 586 834 573 c 128,-1,8
 865 560 865 560 906 560 c 0,9,10
 971 560 971 560 1008.5 605.5 c 128,-1,11
 1046 651 1046 651 1051 729 c 1,12,-1
 1155 729 l 1,13,14
 1149 601 1149 601 1081 528.5 c 128,-1,15
 1013 456 1013 456 900 456 c 0,16,17
 837 456 837 456 783 482 c 128,-1,18
 729 508 729 508 671 551 c 0,19,20
 621 589 621 589 582.5 608 c 128,-1,21
 544 627 544 627 502 627 c 0,22,23
 362 627 362 627 351 461 c 1,24,-1
 247 461 l 1,0,1
EndSplineSet
EndChar

StartChar: Aring
Encoding: 197 197 198
Width: 1247
GlyphClass: 2
Flags: W
AnchorPoint: "Anchor-15" 180 2100 basechar 0
AnchorPoint: "Anchor-14" 1474 2100 basechar 0
AnchorPoint: "Anchor-11" 975 0 basechar 0
AnchorPoint: "Anchor-8" 1026 -420 basechar 0
AnchorPoint: "Anchor-7" 1356 2100 basechar 0
AnchorPoint: "Anchor-2" 500 -15 basechar 0
AnchorPoint: "Anchor-1" 1255 1660 basechar 0
AnchorPoint: "Anchor-0" 850 1920 basechar 0
LayerCount: 2
Fore
SplineSet
719 1382 m 1,0,1
 615 1428 615 1428 615 1546 c 0,2,3
 615 1631 615 1631 674 1684.5 c 128,-1,4
 733 1738 733 1738 820 1738 c 0,5,6
 906 1738 906 1738 963.5 1684 c 128,-1,7
 1021 1630 1021 1630 1021 1549 c 0,8,9
 1021 1486 1021 1486 984.5 1440 c 128,-1,10
 948 1394 948 1394 890 1374 c 1,11,-1
 1120 0 l 1,12,-1
 985 0 l 1,13,-1
 916 425 l 1,14,-1
 304 425 l 1,15,-1
 54 0 l 1,16,-1
 -93 0 l 1,17,-1
 719 1382 l 1,0,1
818 1434 m 0,18,19
 872 1434 872 1434 906 1466 c 128,-1,20
 940 1498 940 1498 940 1549 c 0,21,22
 940 1601 940 1601 906 1632 c 128,-1,23
 872 1663 872 1663 818 1663 c 256,24,25
 764 1663 764 1663 730.5 1631.5 c 128,-1,26
 697 1600 697 1600 697 1549 c 0,27,28
 697 1495 697 1495 731 1464.5 c 128,-1,29
 765 1434 765 1434 818 1434 c 0,18,19
897 544 m 1,30,-1
 799 1183 l 2,31,32
 792 1250 792 1250 791 1286 c 1,33,-1
 787 1286 l 1,34,35
 755 1211 755 1211 734 1175 c 2,36,-1
 370 544 l 1,37,-1
 897 544 l 1,30,-1
EndSplineSet
Substitution2: "SegoeUI-SemilightItalic-'c2sc' Capitals to Small Capitals lookup 13 subtable" Aring.c2sc
Position2: "SegoeUI-SemilightItalic-'cpsp' Capital Spacing lookup 12 subtable" dx=36 dy=0 dh=72 dv=0
EndChar

StartChar: dagger
Encoding: 8224 8224 229
Width: 767
GlyphClass: 2
Flags: W
LayerCount: 2
Fore
SplineSet
420 972 m 1,0,-1
 157 958 l 1,1,-1
 182 1073 l 1,2,-1
 458 1063 l 1,3,-1
 516 1425 l 1,4,-1
 638 1425 l 1,5,-1
 543 1063 l 1,6,-1
 823 1073 l 1,7,-1
 799 958 l 1,8,-1
 542 972 l 1,9,-1
 369 244 l 1,10,-1
 285 244 l 1,11,-1
 420 972 l 1,0,-1
EndSplineSet
EndChar

StartChar: degree
Encoding: 176 176 230
Width: 782
GlyphClass: 2
Flags: W
LayerCount: 2
Fore
SplineSet
531 915 m 0,0,1
 423 915 423 915 345 992 c 128,-1,2
 267 1069 267 1069 267 1180 c 0,3,4
 267 1289 267 1289 344.5 1365 c 128,-1,5
 422 1441 422 1441 529 1441 c 0,6,7
 639 1441 639 1441 716.5 1364 c 128,-1,8
 794 1287 794 1287 794 1180 c 0,9,10
 794 1072 794 1072 717 993.5 c 128,-1,11
 640 915 640 915 531 915 c 0,0,1
529 1010 m 0,12,13
 597 1010 597 1010 645.5 1060.5 c 128,-1,14
 694 1111 694 1111 694 1180 c 0,15,16
 694 1250 694 1250 646.5 1298 c 128,-1,17
 599 1346 599 1346 531 1346 c 256,18,19
 463 1346 463 1346 414.5 1297 c 128,-1,20
 366 1248 366 1248 366 1180 c 0,21,22
 366 1110 366 1110 414 1060 c 128,-1,23
 462 1010 462 1010 529 1010 c 0,12,13
EndSplineSet
EndChar

StartChar: cent
Encoding: 162 162 231
Width: 1078
GlyphClass: 2
Flags: W
LayerCount: 2
Fore
SplineSet
497 162 m 1,0,1
 358 185 358 185 276 294 c 128,-1,2
 194 403 194 403 194 567 c 0,3,4
 194 744 194 744 263 893.5 c 128,-1,5
 332 1043 332 1043 453.5 1131.5 c 128,-1,6
 575 1220 575 1220 724 1228 c 1,7,-1
 763 1409 l 1,8,-1
 871 1409 l 1,9,-1
 832 1224 l 1,10,11
 957 1207 957 1207 1022 1162 c 1,12,-1
 990 1027 l 1,13,14
 926 1099 926 1099 808 1115 c 1,15,-1
 627 270 l 1,16,17
 746 282 746 282 866 370 c 1,18,-1
 837 231 l 1,19,20
 721 164 721 164 604 157 c 1,21,-1
 560 -53 l 1,22,-1
 451 -53 l 1,23,-1
 497 162 l 1,0,1
701 1113 m 1,24,25
 537 1091 537 1091 430 934.5 c 128,-1,26
 323 778 323 778 323 575 c 0,27,28
 323 452 323 452 375.5 375.5 c 128,-1,29
 428 299 428 299 521 278 c 1,30,-1
 701 1113 l 1,24,25
659 1434 m 1024,31,-1
EndSplineSet
EndChar

StartChar: sterling
Encoding: 163 163 232
Width: 1078
GlyphClass: 2
Flags: W
LayerCount: 2
Fore
SplineSet
380 650 m 1,0,-1
 167 650 l 1,1,-1
 190 763 l 1,2,-1
 404 763 l 1,3,-1
 464 1039 l 2,4,5
 509 1241 509 1241 625 1349.5 c 128,-1,6
 741 1458 741 1458 910 1458 c 0,7,8
 1031 1458 1031 1458 1115 1418 c 1,9,-1
 1089 1297 l 1,10,11
 1010 1349 1010 1349 904 1349 c 0,12,13
 653 1349 653 1349 584 1018 c 2,14,-1
 529 763 l 1,15,-1
 832 763 l 1,16,-1
 808 650 l 1,17,-1
 506 650 l 1,18,-1
 463 454 l 2,19,20
 406 203 406 203 205 109 c 1,21,-1
 914 109 l 1,22,-1
 890 0 l 1,23,-1
 7 0 l 1,24,-1
 31 109 l 1,25,26
 283 190 283 190 338 450 c 2,27,-1
 380 650 l 1,0,-1
EndSplineSet
EndChar

StartChar: section
Encoding: 167 167 233
Width: 918
GlyphClass: 2
Flags: W
LayerCount: 2
Fore
SplineSet
73 108 m 1,0,1
 119 78 119 78 183.5 58.5 c 128,-1,2
 248 39 248 39 294 39 c 0,3,4
 522 39 522 39 522 218 c 0,5,6
 522 277 522 277 489.5 324 c 128,-1,7
 457 371 457 371 355 438 c 0,8,9
 187 548 187 548 187 708 c 0,10,11
 187 803 187 803 242 878.5 c 128,-1,12
 297 954 297 954 420 1013 c 1,13,14
 397 1043 397 1043 379 1089 c 128,-1,15
 361 1135 361 1135 361 1174 c 0,16,17
 361 1318 361 1318 457.5 1404.5 c 128,-1,18
 554 1491 554 1491 717 1491 c 0,19,20
 826 1491 826 1491 921 1453 c 1,21,-1
 896 1335 l 1,22,23
 812 1386 812 1386 707 1386 c 0,24,25
 604 1386 604 1386 544 1338 c 128,-1,26
 484 1290 484 1290 484 1199 c 0,27,28
 484 1140 484 1140 518.5 1091 c 128,-1,29
 553 1042 553 1042 648 981 c 0,30,31
 747 917 747 917 787 849 c 128,-1,32
 827 781 827 781 827 702 c 0,33,34
 827 602 827 602 765 522.5 c 128,-1,35
 703 443 703 443 591 399 c 1,36,37
 646 327 646 327 646 240 c 0,38,39
 646 95 646 95 549 14.5 c 128,-1,40
 452 -66 452 -66 281 -66 c 0,41,42
 224 -66 224 -66 159 -52.5 c 128,-1,43
 94 -39 94 -39 49 -17 c 1,44,-1
 73 108 l 1,0,1
530 462 m 1,45,46
 616 496 616 496 659.5 555 c 128,-1,47
 703 614 703 614 703 684 c 0,48,49
 703 800 703 800 564 890 c 1,50,-1
 482 948 l 1,51,52
 311 876 311 876 311 728 c 0,53,54
 311 664 311 664 339 621.5 c 128,-1,55
 367 579 367 579 448 522 c 0,56,57
 501 487 501 487 530 462 c 1,45,46
EndSplineSet
EndChar

StartChar: bullet
Encoding: 8226 8226 234
Width: 814
GlyphClass: 2
Flags: W
LayerCount: 2
Fore
SplineSet
178 635 m 0,0,1
 178 739 178 739 253.5 816 c 128,-1,2
 329 893 329 893 436 893 c 0,3,4
 540 893 540 893 616 817 c 128,-1,5
 692 741 692 741 692 635 c 0,6,7
 692 531 692 531 616 455 c 128,-1,8
 540 379 540 379 434 379 c 0,9,10
 331 379 331 379 254.5 453.5 c 128,-1,11
 178 528 178 528 178 635 c 0,0,1
EndSplineSet
EndChar

StartChar: paragraph
Encoding: 182 182 235
Width: 956
GlyphClass: 2
Flags: W
LayerCount: 2
Fore
SplineSet
425 903 m 1,0,1
 321 903 321 903 248.5 977.5 c 128,-1,2
 176 1052 176 1052 176 1168 c 256,3,4
 176 1284 176 1284 249.5 1359 c 128,-1,5
 323 1434 323 1434 432 1434 c 2,6,-1
 926 1434 l 1,7,-1
 926 1340 l 1,8,-1
 797 1340 l 1,9,-1
 797 0 l 1,10,-1
 702 0 l 1,11,-1
 702 1340 l 1,12,-1
 522 1340 l 1,13,-1
 522 0 l 1,14,-1
 425 0 l 1,15,-1
 425 903 l 1,0,1
EndSplineSet
EndChar

StartChar: germandbls
Encoding: 223 223 236
Width: 1095
GlyphClass: 2
Flags: W
AnchorPoint: "Anchor-15" 180 2100 basechar 0
AnchorPoint: "Anchor-14" 1286 2100 basechar 0
AnchorPoint: "Anchor-11" 559 0 basechar 0
AnchorPoint: "Anchor-8" 927 -420 basechar 0
AnchorPoint: "Anchor-7" 1257 1900 basechar 0
AnchorPoint: "Anchor-2" 407 -25 basechar 0
AnchorPoint: "Anchor-1" 1254 1538 basechar 0
AnchorPoint: "Anchor-0" 737 1698 basechar 0
LayerCount: 2
Fore
SplineSet
737 1540 m 0,0,1
 876 1540 876 1540 962.5 1454 c 128,-1,2
 1049 1368 1049 1368 1049 1227 c 0,3,4
 1049 1080 1049 1080 953 965 c 128,-1,5
 857 850 857 850 707 811 c 1,6,-1
 707 807 l 1,7,8
 839 774 839 774 913 677 c 128,-1,9
 987 580 987 580 987 435 c 0,10,11
 987 229 987 229 857.5 102 c 128,-1,12
 728 -25 728 -25 512 -25 c 0,13,14
 473 -25 473 -25 413.5 -14.5 c 128,-1,15
 354 -4 354 -4 338 3 c 1,16,-1
 365 125 l 1,17,18
 447 85 447 85 521 85 c 0,19,20
 674 85 674 85 764.5 179.5 c 128,-1,21
 855 274 855 274 855 428 c 0,22,23
 855 722 855 722 535 757 c 1,24,-1
 556 861 l 1,25,26
 729 887 729 887 823.5 981.5 c 128,-1,27
 918 1076 918 1076 918 1217 c 0,28,29
 918 1313 918 1313 866 1372 c 128,-1,30
 814 1431 814 1431 727 1431 c 0,31,32
 608 1431 608 1431 531 1351.5 c 128,-1,33
 454 1272 454 1272 417 1098 c 2,34,-1
 184 0 l 1,35,-1
 57 0 l 1,36,-1
 298 1130 l 2,37,38
 385 1540 385 1540 737 1540 c 0,0,1
EndSplineSet
Substitution2: "SegoeUI-SemilightItalic-'smcp' Lowercase to Small Capitals lookup 14 subtable" uni1E9E.c2sc
EndChar

StartChar: registered
Encoding: 174 174 238
Width: 1813
GlyphClass: 2
Flags: W
LayerCount: 2
Fore
SplineSet
857 255 m 256,0,1
 607 255 607 255 431.5 430 c 128,-1,2
 256 605 256 605 256 853 c 0,3,4
 256 1104 256 1104 432.5 1279 c 128,-1,5
 609 1454 609 1454 856 1454 c 0,6,7
 1104 1454 1104 1454 1281 1278.5 c 128,-1,8
 1458 1103 1458 1103 1458 856 c 0,9,10
 1458 606 1458 606 1282.5 430.5 c 128,-1,11
 1107 255 1107 255 857 255 c 256,0,1
853 1372 m 0,12,13
 642 1372 642 1372 493.5 1219.5 c 128,-1,14
 345 1067 345 1067 345 853 c 0,15,16
 345 640 345 640 492.5 488.5 c 128,-1,17
 640 337 640 337 853 337 c 0,18,19
 1067 337 1067 337 1218 488.5 c 128,-1,20
 1369 640 1369 640 1369 853 c 0,21,22
 1369 1067 1369 1067 1217.5 1219.5 c 128,-1,23
 1066 1372 1066 1372 853 1372 c 0,12,13
1040 482 m 1,24,-1
 948 672 l 2,25,26
 908 758 908 758 870.5 787.5 c 128,-1,27
 833 817 833 817 786 817 c 2,28,-1
 716 817 l 1,29,-1
 716 482 l 1,30,-1
 619 482 l 1,31,-1
 619 1254 l 1,32,-1
 845 1254 l 2,33,34
 973 1254 973 1254 1047 1198.5 c 128,-1,35
 1121 1143 1121 1143 1121 1051 c 0,36,37
 1121 874 1121 874 919 837 c 1,38,-1
 919 834 l 1,39,40
 977 820 977 820 1047 694 c 1,41,-1
 1149 482 l 1,42,-1
 1040 482 l 1,24,-1
716 1174 m 1,43,-1
 716 898 l 1,44,-1
 848 898 l 2,45,46
 926 898 926 898 973 933 c 128,-1,47
 1020 968 1020 968 1020 1038 c 0,48,49
 1020 1174 1020 1174 829 1174 c 2,50,-1
 716 1174 l 1,43,-1
EndSplineSet
EndChar

StartChar: copyright
Encoding: 169 169 239
Width: 1897
GlyphClass: 2
Flags: W
LayerCount: 2
Fore
SplineSet
239 714 m 0,0,1
 239 920 239 920 340 1091 c 128,-1,2
 441 1262 441 1262 614 1360 c 128,-1,3
 787 1458 787 1458 988 1458 c 0,4,5
 1192 1458 1192 1458 1365 1359.5 c 128,-1,6
 1538 1261 1538 1261 1637 1090 c 128,-1,7
 1736 919 1736 919 1736 718 c 0,8,9
 1736 516 1736 516 1637 345 c 128,-1,10
 1538 174 1538 174 1365.5 74.5 c 128,-1,11
 1193 -25 1193 -25 988 -25 c 0,12,13
 782 -25 782 -25 609.5 72 c 128,-1,14
 437 169 437 169 338 340 c 128,-1,15
 239 511 239 511 239 714 c 0,0,1
987 51 m 0,16,17
 1161 51 1161 51 1314 137 c 128,-1,18
 1467 223 1467 223 1559 378 c 128,-1,19
 1651 533 1651 533 1651 715 c 0,20,21
 1651 895 1651 895 1562.5 1048 c 128,-1,22
 1474 1201 1474 1201 1319 1290 c 128,-1,23
 1164 1379 1164 1379 987 1379 c 0,24,25
 805 1379 805 1379 652 1290 c 128,-1,26
 499 1201 499 1201 411 1046.5 c 128,-1,27
 323 892 323 892 323 715 c 0,28,29
 323 535 323 535 412 381 c 128,-1,30
 501 227 501 227 654.5 139 c 128,-1,31
 808 51 808 51 987 51 c 0,16,17
1276 268 m 1,32,33
 1202 229 1202 229 1145.5 213.5 c 128,-1,34
 1089 198 1089 198 1018 198 c 0,35,36
 809 198 809 198 667 339.5 c 128,-1,37
 525 481 525 481 525 697 c 0,38,39
 525 851 525 851 589.5 972.5 c 128,-1,40
 654 1094 654 1094 771.5 1161.5 c 128,-1,41
 889 1229 889 1229 1034 1229 c 0,42,43
 1093 1229 1093 1229 1163.5 1213.5 c 128,-1,44
 1234 1198 1234 1198 1272 1175 c 1,45,-1
 1272 1060 l 1,46,47
 1227 1089 1227 1089 1156 1106.5 c 128,-1,48
 1085 1124 1085 1124 1018 1124 c 0,49,50
 913 1124 913 1124 825.5 1072.5 c 128,-1,51
 738 1021 738 1021 689 927.5 c 128,-1,52
 640 834 640 834 640 716 c 0,53,54
 640 532 640 532 750.5 417 c 128,-1,55
 861 302 861 302 1032 302 c 0,56,57
 1096 302 1096 302 1166 323.5 c 128,-1,58
 1236 345 1236 345 1276 374 c 1,59,-1
 1276 268 l 1,32,33
EndSplineSet
EndChar

StartChar: trademark
Encoding: 8482 8482 240
Width: 1584
GlyphClass: 2
Flags: W
LayerCount: 2
Fore
SplineSet
786 1434 m 1,0,-1
 906 1434 l 1,1,-1
 1130 912 l 1,2,-1
 1134 912 l 1,3,-1
 1366 1434 l 1,4,-1
 1481 1434 l 1,5,-1
 1481 772 l 1,6,-1
 1388 772 l 1,7,-1
 1388 1279 l 1,8,-1
 1384 1279 l 1,9,-1
 1160 772 l 1,10,-1
 1096 772 l 1,11,-1
 881 1279 l 1,12,-1
 877 1279 l 1,13,-1
 877 772 l 1,14,-1
 786 772 l 1,15,-1
 786 1434 l 1,0,-1
382 1345 m 1,16,-1
 169 1345 l 1,17,-1
 169 1434 l 1,18,-1
 695 1434 l 1,19,-1
 695 1346 l 1,20,-1
 478 1346 l 1,21,-1
 478 772 l 1,22,-1
 382 772 l 1,23,-1
 382 1345 l 1,16,-1
EndSplineSet
EndChar

StartChar: acute
Encoding: 180 180 241
Width: 661
GlyphClass: 2
Flags: W
LayerCount: 2
Fore
SplineSet
612 1530 m 1,0,-1
 746 1530 l 1,1,-1
 432 1202 l 1,2,-1
 323 1202 l 1,3,-1
 612 1530 l 1,0,-1
EndSplineSet
EndChar

StartChar: dieresis
Encoding: 168 168 242
Width: 661
GlyphClass: 2
Flags: W
LayerCount: 2
Fore
SplineSet
579 1286 m 0,0,1
 579 1318 579 1318 602 1343.5 c 128,-1,2
 625 1369 625 1369 661 1369 c 0,3,4
 696 1369 696 1369 722 1345 c 128,-1,5
 748 1321 748 1321 748 1286 c 0,6,7
 748 1250 748 1250 723 1226 c 128,-1,8
 698 1202 698 1202 663 1202 c 256,9,10
 628 1202 628 1202 603.5 1225 c 128,-1,11
 579 1248 579 1248 579 1286 c 0,0,1
220 1286 m 0,12,13
 220 1319 220 1319 244.5 1344 c 128,-1,14
 269 1369 269 1369 303 1369 c 0,15,16
 339 1369 339 1369 365 1345 c 128,-1,17
 391 1321 391 1321 391 1286 c 256,18,19
 391 1251 391 1251 365.5 1226.5 c 128,-1,20
 340 1202 340 1202 304 1202 c 0,21,22
 270 1202 270 1202 245 1225.5 c 128,-1,23
 220 1249 220 1249 220 1286 c 0,12,13
EndSplineSet
EndChar

StartChar: notequal
Encoding: 8800 8800 243
Width: 1364
GlyphClass: 2
Flags: W
LayerCount: 2
Fore
SplineSet
520 341 m 1,0,-1
 252 341 l 1,1,-1
 252 448 l 1,2,-1
 575 448 l 1,3,-1
 728 747 l 1,4,-1
 252 747 l 1,5,-1
 252 854 l 1,6,-1
 784 854 l 1,7,-1
 955 1188 l 1,8,-1
 1069 1188 l 1,9,-1
 897 854 l 1,10,-1
 1174 854 l 1,11,-1
 1174 747 l 1,12,-1
 842 747 l 1,13,-1
 688 448 l 1,14,-1
 1174 448 l 1,15,-1
 1174 341 l 1,16,-1
 632 341 l 1,17,-1
 457 0 l 1,18,-1
 343 0 l 1,19,-1
 520 341 l 1,0,-1
442 651 m 1024,20,-1
EndSplineSet
EndChar

StartChar: AE
Encoding: 198 198 244
Width: 1689
GlyphClass: 2
Flags: W
AnchorPoint: "Anchor-15" 180 2100 basechar 0
AnchorPoint: "Anchor-14" 1931 2100 basechar 0
AnchorPoint: "Anchor-11" 1300 0 basechar 0
AnchorPoint: "Anchor-8" 1683 -420 basechar 0
AnchorPoint: "Anchor-7" 2013 1900 basechar 0
AnchorPoint: "Anchor-2" 850 -15 basechar 0
AnchorPoint: "Anchor-1" 1942 1500 basechar 0
AnchorPoint: "Anchor-0" 1220 1600 basechar 0
LayerCount: 2
Fore
SplineSet
915 1434 m 1,0,-1
 1759 1434 l 1,1,-1
 1733 1311 l 1,2,-1
 1169 1311 l 1,3,-1
 1056 778 l 1,4,-1
 1578 778 l 1,5,-1
 1553 660 l 1,6,-1
 1031 660 l 1,7,-1
 916 119 l 1,8,-1
 1512 119 l 1,9,-1
 1488 0 l 1,10,-1
 759 0 l 1,11,-1
 849 425 l 1,12,-1
 344 425 l 1,13,-1
 41 0 l 1,14,-1
 -118 0 l 1,15,-1
 915 1434 l 1,0,-1
875 546 m 1,16,-1
 1037 1311 l 1,17,-1
 967 1311 l 1,18,-1
 431 546 l 1,19,-1
 875 546 l 1,16,-1
EndSplineSet
Substitution2: "SegoeUI-SemilightItalic-'c2sc' Capitals to Small Capitals lookup 13 subtable" AE.c2sc
Position2: "SegoeUI-SemilightItalic-'cpsp' Capital Spacing lookup 12 subtable" dx=36 dy=0 dh=72 dv=0
EndChar

StartChar: Oslash
Encoding: 216 216 245
Width: 1544
GlyphClass: 2
Flags: W
AnchorPoint: "Anchor-15" 180 2100 basechar 0
AnchorPoint: "Anchor-14" 1724 2100 basechar 0
AnchorPoint: "Anchor-11" 680 -15 basechar 0
AnchorPoint: "Anchor-8" 1400 -420 basechar 0
AnchorPoint: "Anchor-7" 1730 1900 basechar 0
AnchorPoint: "Anchor-2" 620 -25 basechar 0
AnchorPoint: "Anchor-1" 1600 1660 basechar 0
AnchorPoint: "Anchor-0" 950 1600 basechar 0
LayerCount: 2
Fore
SplineSet
238 223 m 1,0,1
 145 382 145 382 145 590 c 0,2,3
 145 839 145 839 247.5 1036.5 c 128,-1,4
 350 1234 350 1234 525.5 1345 c 128,-1,5
 701 1456 701 1456 918 1456 c 0,6,7
 1170 1456 1170 1456 1322 1302 c 1,8,-1
 1488 1471 l 1,9,-1
 1557 1403 l 1,10,-1
 1383 1229 l 1,11,12
 1488 1071 1488 1071 1488 847 c 0,13,14
 1488 608 1488 608 1390 405.5 c 128,-1,15
 1292 203 1292 203 1118.5 89 c 128,-1,16
 945 -25 945 -25 719 -25 c 0,17,18
 451 -25 451 -25 298 145 c 1,19,-1
 125 -28 l 1,20,-1
 53 38 l 1,21,-1
 238 223 l 1,0,1
1228 1209 m 1,22,23
 1107 1338 1107 1338 912 1338 c 0,24,25
 733 1338 733 1338 589 1245 c 128,-1,26
 445 1152 445 1152 363 976.5 c 128,-1,27
 281 801 281 801 281 588 c 0,28,29
 281 438 281 438 337 320 c 1,30,-1
 1228 1209 l 1,22,23
392 237 m 1,31,32
 508 94 508 94 728 94 c 0,33,34
 909 94 909 94 1049.5 188 c 128,-1,35
 1190 282 1190 282 1270.5 458 c 128,-1,36
 1351 634 1351 634 1351 845 c 0,37,38
 1351 1009 1351 1009 1283 1131 c 1,39,-1
 392 237 l 1,31,32
EndSplineSet
Substitution2: "SegoeUI-SemilightItalic-'c2sc' Capitals to Small Capitals lookup 13 subtable" Oslash.c2sc
Position2: "SegoeUI-SemilightItalic-'cpsp' Capital Spacing lookup 12 subtable" dx=36 dy=0 dh=72 dv=0
EndChar

StartChar: infinity
Encoding: 8734 8734 246
Width: 1673
GlyphClass: 2
Flags: W
LayerCount: 2
Fore
SplineSet
866 498 m 1,0,1
 784 359 784 359 683 286 c 128,-1,2
 582 213 582 213 482 213 c 0,3,4
 320 213 320 213 219 318 c 128,-1,5
 118 423 118 423 118 592 c 0,6,7
 118 753 118 753 224.5 866 c 128,-1,8
 331 979 331 979 482 979 c 0,9,10
 719 979 719 979 869 695 c 1,11,12
 949 833 949 833 1049 906 c 128,-1,13
 1149 979 1149 979 1253 979 c 0,14,15
 1416 979 1416 979 1517.5 874 c 128,-1,16
 1619 769 1619 769 1619 600 c 0,17,18
 1619 441 1619 441 1513 327 c 128,-1,19
 1407 213 1407 213 1254 213 c 0,20,21
 1024 213 1024 213 866 498 c 1,0,1
919 596 m 1,22,23
 989 452 989 452 1071 384.5 c 128,-1,24
 1153 317 1153 317 1253 317 c 0,25,26
 1368 317 1368 317 1439.5 394.5 c 128,-1,27
 1511 472 1511 472 1511 600 c 0,28,29
 1511 719 1511 719 1438 798.5 c 128,-1,30
 1365 878 1365 878 1254 878 c 0,31,32
 1157 878 1157 878 1076.5 808.5 c 128,-1,33
 996 739 996 739 919 596 c 1,22,23
818 597 m 1,34,35
 747 742 747 742 665 810 c 128,-1,36
 583 878 583 878 482 878 c 0,37,38
 366 878 366 878 295 798 c 128,-1,39
 224 718 224 718 224 592 c 0,40,41
 224 471 224 471 298.5 394 c 128,-1,42
 373 317 373 317 482 317 c 0,43,44
 579 317 579 317 660 386 c 128,-1,45
 741 455 741 455 818 597 c 1,34,35
EndSplineSet
EndChar

StartChar: plusminus
Encoding: 177 177 247
Width: 1364
GlyphClass: 2
Flags: W
LayerCount: 2
Fore
SplineSet
244 748 m 1,0,-1
 653 748 l 1,1,-1
 653 1156 l 1,2,-1
 758 1156 l 1,3,-1
 758 748 l 1,4,-1
 1166 748 l 1,5,-1
 1166 641 l 1,6,-1
 758 641 l 1,7,-1
 758 233 l 1,8,-1
 653 233 l 1,9,-1
 653 641 l 1,10,-1
 244 641 l 1,11,-1
 244 748 l 1,0,-1
244 107 m 1,12,-1
 1166 107 l 1,13,-1
 1166 0 l 1,14,-1
 244 0 l 1,15,-1
 244 107 l 1,12,-1
EndSplineSet
EndChar

StartChar: lessequal
Encoding: 8804 8804 248
Width: 1364
GlyphClass: 2
Flags: W
LayerCount: 2
Fore
SplineSet
291 702 m 1,0,-1
 1137 1176 l 1,1,-1
 1137 1057 l 1,2,-1
 475 689 l 1,3,-1
 475 685 l 1,4,-1
 1137 360 l 1,5,-1
 1137 238 l 1,6,-1
 291 666 l 1,7,-1
 291 702 l 1,0,-1
252 149 m 1,8,-1
 1174 149 l 1,9,-1
 1174 42 l 1,10,-1
 252 42 l 1,11,-1
 252 149 l 1,8,-1
EndSplineSet
EndChar

StartChar: greaterequal
Encoding: 8805 8805 249
Width: 1364
GlyphClass: 2
Flags: W
LayerCount: 2
Fore
SplineSet
291 360 m 1,0,-1
 952 684 l 1,1,-1
 952 689 l 1,2,-1
 291 1057 l 1,3,-1
 291 1176 l 1,4,-1
 1137 702 l 1,5,-1
 1137 666 l 1,6,-1
 291 238 l 1,7,-1
 291 360 l 1,0,-1
252 149 m 1,8,-1
 1174 149 l 1,9,-1
 1174 42 l 1,10,-1
 252 42 l 1,11,-1
 252 149 l 1,8,-1
EndSplineSet
EndChar

StartChar: yen
Encoding: 165 165 250
Width: 1078
GlyphClass: 2
Flags: W
LayerCount: 2
Fore
SplineSet
432 314 m 1,0,-1
 74 314 l 1,1,-1
 97 423 l 1,2,-1
 456 423 l 1,3,-1
 503 651 l 1,4,-1
 145 651 l 1,5,-1
 169 760 l 1,6,-1
 487 760 l 1,7,-1
 264 1434 l 1,8,-1
 396 1434 l 1,9,-1
 564 883 l 2,10,11
 579 831 579 831 589 781 c 1,12,-1
 598 781 l 1,13,14
 620 824 620 824 666 888 c 2,15,-1
 1061 1434 l 1,16,-1
 1205 1434 l 1,17,-1
 690 760 l 1,18,-1
 1007 760 l 1,19,-1
 984 651 l 1,20,-1
 629 651 l 1,21,-1
 581 423 l 1,22,-1
 936 423 l 1,23,-1
 913 314 l 1,24,-1
 558 314 l 1,25,-1
 491 0 l 1,26,-1
 366 0 l 1,27,-1
 432 314 l 1,0,-1
EndSplineSet
EndChar

StartChar: partialdiff
Encoding: 8706 8706 252
Width: 1079
GlyphClass: 2
Flags: W
LayerCount: 2
Fore
SplineSet
657 1487 m 0,0,1
 1036 1487 1036 1487 1036 954 c 0,2,3
 1036 703 1036 703 965.5 468.5 c 128,-1,4
 895 234 895 234 760 104.5 c 128,-1,5
 625 -25 625 -25 452 -25 c 0,6,7
 290 -25 290 -25 198.5 77 c 128,-1,8
 107 179 107 179 107 355 c 0,9,10
 107 533 107 533 175.5 689 c 128,-1,11
 244 845 244 845 366.5 938 c 128,-1,12
 489 1031 489 1031 634 1031 c 0,13,14
 819 1031 819 1031 903 845 c 1,15,-1
 908 845 l 1,16,17
 913 888 913 888 913 957 c 0,18,19
 913 1162 913 1162 847 1269.5 c 128,-1,20
 781 1377 781 1377 631 1377 c 0,21,22
 570 1377 570 1377 506 1353 c 128,-1,23
 442 1329 442 1329 391 1294 c 1,24,-1
 420 1421 l 1,25,26
 536 1487 536 1487 657 1487 c 0,0,1
891 699 m 1,27,28
 863 803 863 803 795 862 c 128,-1,29
 727 921 727 921 639 921 c 0,30,31
 530 921 530 921 436.5 845 c 128,-1,32
 343 769 343 769 289.5 638.5 c 128,-1,33
 236 508 236 508 236 360 c 0,34,35
 236 234 236 234 296 159.5 c 128,-1,36
 356 85 356 85 462 85 c 0,37,38
 619 85 619 85 738 254 c 128,-1,39
 857 423 857 423 891 699 c 1,27,28
721 1516 m 1024,40,-1
EndSplineSet
EndChar

StartChar: summation
Encoding: 8721 8721 253
Width: 1256
GlyphClass: 2
Flags: W
LayerCount: 2
Fore
SplineSet
74 -415 m 1,0,-1
 774 490 l 1,1,-1
 124 1366 l 1,2,-1
 124 1434 l 1,3,-1
 1191 1434 l 1,4,-1
 1191 1314 l 1,5,-1
 320 1314 l 1,6,-1
 930 494 l 1,7,-1
 277 -354 l 1,8,-1
 1244 -354 l 1,9,-1
 1244 -470 l 1,10,-1
 74 -470 l 1,11,-1
 74 -415 l 1,0,-1
EndSplineSet
EndChar

StartChar: product
Encoding: 8719 8719 254
Width: 1536
GlyphClass: 2
Flags: W
LayerCount: 2
Fore
SplineSet
221 1434 m 1,0,-1
 1384 1434 l 1,1,-1
 1384 -470 l 1,2,-1
 1252 -470 l 1,3,-1
 1252 1313 l 1,4,-1
 351 1313 l 1,5,-1
 351 -470 l 1,6,-1
 221 -470 l 1,7,-1
 221 1434 l 1,0,-1
EndSplineSet
EndChar

StartChar: integral
Encoding: 8747 8747 255
Width: 1078
GlyphClass: 2
Flags: W
LayerCount: 2
Fore
SplineSet
216 -353 m 1,0,1
 253 -382 253 -382 327 -382 c 0,2,3
 507 -382 507 -382 507 -145 c 2,4,-1
 507 1196 l 1,5,-1
 507 1203 l 2,6,7
 507 1353 507 1353 592.5 1444 c 128,-1,8
 678 1535 678 1535 811 1535 c 0,9,10
 882 1535 882 1535 924 1516 c 1,11,-1
 924 1397 l 1,12,13
 883 1425 883 1425 813 1425 c 0,14,15
 632 1425 632 1425 632 1188 c 2,16,-1
 632 -154 l 1,17,-1
 632 -161 l 2,18,19
 632 -310 632 -310 547 -400.5 c 128,-1,20
 462 -491 462 -491 329 -491 c 0,21,22
 258 -491 258 -491 216 -472 c 1,23,-1
 216 -353 l 1,0,1
EndSplineSet
EndChar

StartChar: ordfeminine
Encoding: 170 170 256
Width: 850
GlyphClass: 2
Flags: W
LayerCount: 2
Fore
SplineSet
643 716 m 1,0,1
 647 794 647 794 663 888 c 1,2,-1
 660 888 l 1,3,4
 543 699 543 699 394 699 c 0,5,6
 296 699 296 699 243.5 768 c 128,-1,7
 191 837 191 837 191 966 c 256,8,9
 191 1095 191 1095 248 1209.5 c 128,-1,10
 305 1324 305 1324 406 1390.5 c 128,-1,11
 507 1457 507 1457 633 1457 c 0,12,13
 737 1457 737 1457 877 1429 c 1,14,-1
 780 954 l 2,15,16
 749 808 749 808 749 716 c 1,17,-1
 643 716 l 1,0,1
761 1352 m 1,18,19
 679 1368 679 1368 623 1368 c 0,20,21
 529 1368 529 1368 454.5 1314.5 c 128,-1,22
 380 1261 380 1261 338.5 1168.5 c 128,-1,23
 297 1076 297 1076 297 974 c 0,24,25
 297 789 297 789 427 789 c 0,26,27
 513 789 513 789 598.5 895 c 128,-1,28
 684 1001 684 1001 715 1139 c 2,29,-1
 761 1352 l 1,18,19
EndSplineSet
EndChar

StartChar: ordmasculine
Encoding: 186 186 257
Width: 915
GlyphClass: 2
Flags: W
LayerCount: 2
Fore
SplineSet
524 696 m 0,0,1
 389 696 389 696 311.5 779 c 128,-1,2
 234 862 234 862 234 999 c 0,3,4
 234 1201 234 1201 344 1327.5 c 128,-1,5
 454 1454 454 1454 634 1454 c 0,6,7
 766 1454 766 1454 843.5 1373.5 c 128,-1,8
 921 1293 921 1293 921 1159 c 0,9,10
 921 951 921 951 813 823.5 c 128,-1,11
 705 696 705 696 524 696 c 0,0,1
529 789 m 0,12,13
 660 789 660 789 736 888.5 c 128,-1,14
 812 988 812 988 812 1149 c 0,15,16
 812 1249 812 1249 762.5 1305.5 c 128,-1,17
 713 1362 713 1362 625 1362 c 0,18,19
 498 1362 498 1362 421 1264 c 128,-1,20
 344 1166 344 1166 344 1007 c 0,21,22
 344 906 344 906 392.5 847.5 c 128,-1,23
 441 789 441 789 529 789 c 0,12,13
EndSplineSet
EndChar

StartChar: Omega
Encoding: 8486 8486 258
Width: 1561
GlyphClass: 2
Flags: W
LayerCount: 2
Fore
SplineSet
21 116 m 1,0,-1
 379 116 l 1,1,2
 264 215 264 215 202 347.5 c 128,-1,3
 140 480 140 480 140 632 c 0,4,5
 140 868 140 868 243 1057 c 128,-1,6
 346 1246 346 1246 528.5 1352 c 128,-1,7
 711 1458 711 1458 932 1458 c 0,8,9
 1107 1458 1107 1458 1244 1386.5 c 128,-1,10
 1381 1315 1381 1315 1457.5 1185 c 128,-1,11
 1534 1055 1534 1055 1534 892 c 0,12,13
 1534 651 1534 651 1400.5 445.5 c 128,-1,14
 1267 240 1267 240 1030 116 c 1,15,-1
 1372 116 l 1,16,-1
 1348 0 l 1,17,-1
 853 0 l 1,18,-1
 878 123 l 1,19,20
 1127 252 1127 252 1257.5 446.5 c 128,-1,21
 1388 641 1388 641 1388 881 c 0,22,23
 1388 1084 1388 1084 1261 1212 c 128,-1,24
 1134 1340 1134 1340 927 1340 c 0,25,26
 744 1340 744 1340 596 1248 c 128,-1,27
 448 1156 448 1156 365.5 992 c 128,-1,28
 283 828 283 828 283 628 c 0,29,30
 283 470 283 470 332.5 360.5 c 128,-1,31
 382 251 382 251 519 123 c 1,32,-1
 493 0 l 1,33,-1
 -2 0 l 1,34,-1
 21 116 l 1,0,-1
EndSplineSet
EndChar

StartChar: ae
Encoding: 230 230 259
Width: 1681
GlyphClass: 2
Flags: W
AnchorPoint: "Anchor-15" 180 2100 basechar 0
AnchorPoint: "Anchor-14" 1872 2100 basechar 0
AnchorPoint: "Anchor-11" 1300 39 basechar 0
AnchorPoint: "Anchor-8" 1505 -420 basechar 0
AnchorPoint: "Anchor-7" 1835 1900 basechar 0
AnchorPoint: "Anchor-5" 1670 910 basechar 0
AnchorPoint: "Anchor-2" 720 -25 basechar 0
AnchorPoint: "Anchor-1" 1800 1200 basechar 0
AnchorPoint: "Anchor-0" 1040 1300 basechar 0
LayerCount: 2
Fore
SplineSet
794 356 m 1,0,1
 693 158 693 158 584.5 66.5 c 128,-1,2
 476 -25 476 -25 349 -25 c 0,3,4
 220 -25 220 -25 150 67 c 128,-1,5
 80 159 80 159 80 337 c 0,6,7
 80 529 80 529 169 697 c 128,-1,8
 258 865 258 865 410 957 c 128,-1,9
 562 1049 562 1049 749 1049 c 0,10,11
 839 1049 839 1049 910.5 1030 c 128,-1,12
 982 1011 982 1011 1056 972 c 1,13,14
 1174 1049 1174 1049 1328 1049 c 0,15,16
 1467 1049 1467 1049 1554.5 978.5 c 128,-1,17
 1642 908 1642 908 1642 794 c 0,18,19
 1642 616 1642 616 1468 531.5 c 128,-1,20
 1294 447 1294 447 916 443 c 1,21,-1
 914 417 l 1,22,-1
 914 392 l 2,23,24
 914 246 914 246 988.5 165.5 c 128,-1,25
 1063 85 1063 85 1201 85 c 0,26,27
 1340 85 1340 85 1495 177 c 1,28,-1
 1471 51 l 1,29,30
 1339 -25 1339 -25 1183 -25 c 0,31,32
 1006 -25 1006 -25 905 75.5 c 128,-1,33
 804 176 804 176 798 356 c 1,34,-1
 794 356 l 1,0,1
926 552 m 1,35,36
 1228 552 1228 552 1370 609 c 128,-1,37
 1512 666 1512 666 1512 784 c 0,38,39
 1512 859 1512 859 1458.5 899 c 128,-1,40
 1405 939 1405 939 1311 939 c 0,41,42
 1162 939 1162 939 1058.5 834.5 c 128,-1,43
 955 730 955 730 926 552 c 1,35,36
963 892 m 1,44,45
 871 939 871 939 736 939 c 0,46,47
 588 939 588 939 467 861 c 128,-1,48
 346 783 346 783 275.5 641 c 128,-1,49
 205 499 205 499 205 344 c 0,50,51
 205 223 205 223 244.5 154 c 128,-1,52
 284 85 284 85 365 85 c 0,53,54
 611 85 611 85 802 587 c 0,55,56
 884 802 884 802 963 892 c 1,44,45
EndSplineSet
Substitution2: "SegoeUI-SemilightItalic-'smcp' Lowercase to Small Capitals lookup 14 subtable" AE.c2sc
EndChar

StartChar: oslash
Encoding: 248 248 260
Width: 1077
GlyphClass: 2
Flags: W
AnchorPoint: "Anchor-15" 180 2100 basechar 0
AnchorPoint: "Anchor-14" 1276 2100 basechar 0
AnchorPoint: "Anchor-11" 510 0 basechar 0
AnchorPoint: "Anchor-8" 1026 -420 basechar 0
AnchorPoint: "Anchor-7" 1356 1900 basechar 0
AnchorPoint: "Anchor-5" 1020 760 basechar 0
AnchorPoint: "Anchor-2" 450 -25 basechar 0
AnchorPoint: "Anchor-1" 1200 1360 basechar 0
AnchorPoint: "Anchor-0" 700 1300 basechar 0
LayerCount: 2
Fore
SplineSet
-58 8 m 1,0,-1
 118 175 l 1,1,2
 80 270 80 270 80 375 c 0,3,4
 80 561 80 561 151 716.5 c 128,-1,5
 222 872 222 872 348.5 960.5 c 128,-1,6
 475 1049 475 1049 629 1049 c 0,7,8
 809 1049 809 1049 910 930 c 1,9,-1
 1092 1103 l 1,10,-1
 1159 1034 l 1,11,-1
 960 844 l 1,12,13
 997 761 997 761 997 650 c 0,14,15
 997 461 997 461 926.5 305.5 c 128,-1,16
 856 150 856 150 729.5 62.5 c 128,-1,17
 603 -25 603 -25 449 -25 c 0,18,19
 267 -25 267 -25 170 93 c 1,20,-1
 6 -62 l 1,21,-1
 -58 8 l 1,0,-1
816 840 m 1,22,23
 752 939 752 939 619 939 c 0,24,25
 448 939 448 939 328.5 778.5 c 128,-1,26
 209 618 209 618 209 381 c 0,27,28
 209 318 209 318 222 275 c 1,29,-1
 816 840 l 1,22,23
262 182 m 1,30,31
 328 85 328 85 458 85 c 0,32,33
 571 85 571 85 665.5 158.5 c 128,-1,34
 760 232 760 232 814 360.5 c 128,-1,35
 868 489 868 489 868 644 c 0,36,37
 868 700 868 700 856 747 c 1,38,-1
 262 182 l 1,30,31
EndSplineSet
Substitution2: "SegoeUI-SemilightItalic-'smcp' Lowercase to Small Capitals lookup 14 subtable" Oslash.c2sc
EndChar

StartChar: questiondown
Encoding: 191 191 261
Width: 814
GlyphClass: 2
Flags: W
LayerCount: 2
Fore
SplineSet
550 857 m 0,0,1
 512 857 512 857 483.5 884 c 128,-1,2
 455 911 455 911 455 952 c 256,3,4
 455 993 455 993 483.5 1020 c 128,-1,5
 512 1047 512 1047 550 1047 c 0,6,7
 590 1047 590 1047 617 1019.5 c 128,-1,8
 644 992 644 992 644 952 c 256,9,10
 644 912 644 912 617 884.5 c 128,-1,11
 590 857 590 857 550 857 c 0,0,1
279 -431 m 0,12,13
 136 -431 136 -431 45 -346 c 128,-1,14
 -46 -261 -46 -261 -46 -122 c 0,15,16
 -46 1 -46 1 15.5 99.5 c 128,-1,17
 77 198 77 198 223 300 c 0,18,19
 335 379 335 379 374 442 c 128,-1,20
 413 505 413 505 436 626 c 1,21,-1
 553 626 l 1,22,23
 523 464 523 464 471 383 c 128,-1,24
 419 302 419 302 308 227 c 0,25,26
 183 143 183 143 131 65.5 c 128,-1,27
 79 -12 79 -12 79 -109 c 256,28,29
 79 -206 79 -206 138 -264.5 c 128,-1,30
 197 -323 197 -323 295 -323 c 0,31,32
 432 -323 432 -323 571 -238 c 1,33,-1
 553 -370 l 1,34,35
 417 -431 417 -431 279 -431 c 0,12,13
293 -478 m 1024,36,-1
EndSplineSet
Position2: "SegoeUI-SemilightItalic-'case' Case-Sensitive Forms lookup 15 subtable" dx=86 dy=406 dh=0 dv=0
EndChar

StartChar: exclamdown
Encoding: 161 161 263
Width: 590
GlyphClass: 2
Flags: W
LayerCount: 2
Fore
SplineSet
382 857 m 0,0,1
 342 857 342 857 314 884.5 c 128,-1,2
 286 912 286 912 286 952 c 256,3,4
 286 992 286 992 314 1019.5 c 128,-1,5
 342 1047 342 1047 382 1047 c 0,6,7
 420 1047 420 1047 447.5 1020 c 128,-1,8
 475 993 475 993 475 952 c 0,9,10
 475 912 475 912 447.5 884.5 c 128,-1,11
 420 857 420 857 382 857 c 0,0,1
268 626 m 1,12,-1
 377 626 l 1,13,-1
 171 -405 l 1,14,-1
 35 -405 l 1,15,-1
 268 626 l 1,12,-1
109 -478 m 1024,16,-1
EndSplineSet
Position2: "SegoeUI-SemilightItalic-'case' Case-Sensitive Forms lookup 15 subtable" dx=86 dy=406 dh=0 dv=0
EndChar

StartChar: logicalnot
Encoding: 172 172 264
Width: 1364
GlyphClass: 2
Flags: W
LayerCount: 2
Fore
SplineSet
239 721 m 1,0,-1
 1162 721 l 1,1,-1
 1162 196 l 1,2,-1
 1055 196 l 1,3,-1
 1055 615 l 1,4,-1
 239 615 l 1,5,-1
 239 721 l 1,0,-1
EndSplineSet
EndChar

StartChar: radical
Encoding: 8730 8730 265
Width: 1331
GlyphClass: 2
Flags: W
LayerCount: 2
Fore
SplineSet
329 769 m 1,0,-1
 163 769 l 1,1,-1
 163 864 l 1,2,-1
 407 864 l 1,3,-1
 688 174 l 1,4,-1
 1027 1516 l 1,5,-1
 1126 1516 l 1,6,-1
 743 -2 l 1,7,-1
 648 -2 l 1,8,-1
 329 769 l 1,0,-1
EndSplineSet
EndChar

StartChar: florin
Encoding: 402 402 266
Width: 1078
GlyphClass: 2
Flags: W
AnchorPoint: "Anchor-15" 180 2100 basechar 0
AnchorPoint: "Anchor-14" 1284 2100 basechar 0
AnchorPoint: "Anchor-11" 180 -242 basechar 0
AnchorPoint: "Anchor-8" 892 -420 basechar 0
AnchorPoint: "Anchor-7" 1222 1900 basechar 0
AnchorPoint: "Anchor-2" 181 -300 basechar 0
AnchorPoint: "Anchor-1" 1130 1434 basechar 0
AnchorPoint: "Anchor-0" 830 1650 basechar 0
LayerCount: 2
Fore
SplineSet
52 -149 m 1,0,1
 92 -169 92 -169 130 -169 c 0,2,3
 214 -169 214 -169 263.5 -101.5 c 128,-1,4
 313 -34 313 -34 352 141 c 2,5,-1
 495 814 l 1,6,-1
 381 814 l 1,7,-1
 405 923 l 1,8,-1
 517 923 l 1,9,-1
 566 1148 l 2,10,11
 595 1285 595 1285 675 1359.5 c 128,-1,12
 755 1434 755 1434 879 1434 c 0,13,14
 931 1434 931 1434 1008 1413 c 1,15,-1
 984 1300 l 1,16,17
 931 1325 931 1325 883 1325 c 0,18,19
 732 1325 732 1325 693 1144 c 2,20,-1
 644 923 l 1,21,-1
 824 923 l 1,22,-1
 801 815 l 1,23,-1
 621 815 l 1,24,-1
 476 136 l 2,25,26
 429 -82 429 -82 348.5 -180 c 128,-1,27
 268 -278 268 -278 134 -278 c 0,28,29
 84 -278 84 -278 39 -260 c 1,30,-1
 52 -149 l 1,0,1
EndSplineSet
EndChar

StartChar: approxequal
Encoding: 8776 8776 267
Width: 1364
GlyphClass: 2
Flags: W
LayerCount: 2
Fore
SplineSet
259 664 m 1,0,1
 265 792 265 792 333 865 c 128,-1,2
 401 938 401 938 515 938 c 0,3,4
 614 938 614 938 728 854 c 0,5,6
 809 795 809 795 845.5 779.5 c 128,-1,7
 882 764 882 764 918 764 c 0,8,9
 982 764 982 764 1020 809 c 128,-1,10
 1058 854 1058 854 1063 932 c 1,11,-1
 1167 932 l 1,12,13
 1161 804 1161 804 1093.5 731.5 c 128,-1,14
 1026 659 1026 659 912 659 c 0,15,16
 849 659 849 659 794.5 685.5 c 128,-1,17
 740 712 740 712 683 755 c 0,18,19
 633 793 633 793 594.5 812 c 128,-1,20
 556 831 556 831 514 831 c 0,21,22
 374 831 374 831 364 664 c 1,23,-1
 259 664 l 1,0,1
259 265 m 1,24,25
 265 393 265 393 332.5 465.5 c 128,-1,26
 400 538 400 538 515 538 c 0,27,28
 618 538 618 538 728 455 c 0,29,30
 803 398 803 398 841.5 381 c 128,-1,31
 880 364 880 364 918 364 c 0,32,33
 983 364 983 364 1020.5 409 c 128,-1,34
 1058 454 1058 454 1063 532 c 1,35,-1
 1167 532 l 1,36,37
 1161 405 1161 405 1094.5 332 c 128,-1,38
 1028 259 1028 259 912 259 c 0,39,40
 850 259 850 259 795.5 285.5 c 128,-1,41
 741 312 741 312 683 354 c 0,42,43
 633 392 633 392 594.5 411 c 128,-1,44
 556 430 556 430 514 430 c 0,45,46
 374 430 374 430 364 265 c 1,47,-1
 259 265 l 1,24,25
EndSplineSet
EndChar

StartChar: uni0394
Encoding: 916 916 268
Width: 1321
GlyphClass: 2
Flags: W
LayerCount: 2
Fore
SplineSet
790 1434 m 1,0,-1
 929 1434 l 1,1,-1
 1146 70 l 1,2,-1
 1132 0 l 1,3,-1
 -28 0 l 1,4,-1
 -12 70 l 1,5,-1
 790 1434 l 1,0,-1
1003 119 m 1,6,-1
 845 1151 l 2,7,8
 835 1225 835 1225 832 1288 c 1,9,-1
 828 1288 l 1,10,-1
 809 1247 l 1,11,-1
 786 1203 l 1,12,-1
 160 119 l 1,13,-1
 1003 119 l 1,6,-1
EndSplineSet
Substitution2: "SegoeUI-SemilightItalic-'c2sc' Capitals to Small Capitals lookup 11 subtable" uni0394.c2sc
Position2: "SegoeUI-SemilightItalic-'cpsp' Capital Spacing lookup 14 subtable" dx=36 dy=0 dh=72 dv=0
EndChar

StartChar: guillemotleft
Encoding: 171 171 269
Width: 996
GlyphClass: 2
Flags: W
LayerCount: 2
Fore
SplineSet
454 538 m 1,0,-1
 811 882 l 1,1,-1
 957 882 l 1,2,-1
 586 528 l 1,3,-1
 798 202 l 1,4,-1
 670 202 l 1,5,-1
 454 538 l 1,0,-1
96 538 m 1,6,-1
 452 882 l 1,7,-1
 598 882 l 1,8,-1
 229 528 l 1,9,-1
 441 202 l 1,10,-1
 312 202 l 1,11,-1
 96 538 l 1,6,-1
EndSplineSet
Position2: "SegoeUI-SemilightItalic-'case' Case-Sensitive Forms lookup 15 subtable" dx=23 dy=110 dh=0 dv=0
EndChar

StartChar: guillemotright
Encoding: 187 187 270
Width: 996
GlyphClass: 2
Flags: W
LayerCount: 2
Fore
SplineSet
768 555 m 1,0,-1
 554 882 l 1,1,-1
 682 882 l 1,2,-1
 901 546 l 1,3,-1
 544 202 l 1,4,-1
 398 202 l 1,5,-1
 768 555 l 1,0,-1
410 555 m 1,6,-1
 198 882 l 1,7,-1
 327 882 l 1,8,-1
 542 546 l 1,9,-1
 186 202 l 1,10,-1
 39 202 l 1,11,-1
 410 555 l 1,6,-1
EndSplineSet
Position2: "SegoeUI-SemilightItalic-'case' Case-Sensitive Forms lookup 15 subtable" dx=23 dy=110 dh=0 dv=0
EndChar

StartChar: ellipsis
Encoding: 8230 8230 271
Width: 1430
GlyphClass: 2
Flags: W
LayerCount: 2
Fore
SplineSet
1100 -17 m 0,0,1
 1061 -17 1061 -17 1034 10.5 c 128,-1,2
 1007 38 1007 38 1007 78 c 0,3,4
 1007 119 1007 119 1035 146 c 128,-1,5
 1063 173 1063 173 1100 173 c 0,6,7
 1141 173 1141 173 1168 144.5 c 128,-1,8
 1195 116 1195 116 1195 78 c 0,9,10
 1195 38 1195 38 1168 10.5 c 128,-1,11
 1141 -17 1141 -17 1100 -17 c 0,0,1
527 78 m 0,12,13
 527 119 527 119 555 146 c 128,-1,14
 583 173 583 173 621 173 c 0,15,16
 660 173 660 173 688 144.5 c 128,-1,17
 716 116 716 116 716 78 c 0,18,19
 716 37 716 37 687.5 10 c 128,-1,20
 659 -17 659 -17 621 -17 c 0,21,22
 581 -17 581 -17 554 10.5 c 128,-1,23
 527 38 527 38 527 78 c 0,12,13
143 -17 m 0,24,25
 104 -17 104 -17 77 10.5 c 128,-1,26
 50 38 50 38 50 78 c 0,27,28
 50 119 50 119 78 146 c 128,-1,29
 106 173 106 173 143 173 c 0,30,31
 182 173 182 173 210 144.5 c 128,-1,32
 238 116 238 116 238 78 c 0,33,34
 238 37 238 37 209.5 10 c 128,-1,35
 181 -17 181 -17 143 -17 c 0,24,25
EndSplineSet
EndChar

StartChar: OE
Encoding: 338 338 275
Width: 1900
GlyphClass: 2
Flags: W
AnchorPoint: "Anchor-15" 180 2100 basechar 0
AnchorPoint: "Anchor-14" 2072 2100 basechar 0
AnchorPoint: "Anchor-11" 1460 0 basechar 0
AnchorPoint: "Anchor-8" 1824 -420 basechar 0
AnchorPoint: "Anchor-7" 2154 1900 basechar 0
AnchorPoint: "Anchor-2" 990 -25 basechar 0
AnchorPoint: "Anchor-1" 2086 1500 basechar 0
AnchorPoint: "Anchor-0" 1320 1600 basechar 0
LayerCount: 2
Fore
SplineSet
1724 119 m 1,0,-1
 1700 0 l 1,1,-1
 1046 0 l 1,2,-1
 977 -4 l 1,3,4
 780 -25 780 -25 720 -25 c 0,5,6
 455 -25 455 -25 299 143 c 128,-1,7
 143 311 143 311 143 590 c 0,8,9
 143 838 143 838 244 1035.5 c 128,-1,10
 345 1233 345 1233 523.5 1345.5 c 128,-1,11
 702 1458 702 1458 929 1458 c 0,12,13
 1009 1458 1009 1458 1158 1446 c 0,14,15
 1294 1434 1294 1434 1332 1434 c 2,16,-1
 1970 1434 l 1,17,-1
 1945 1315 l 1,18,-1
 1383 1315 l 1,19,-1
 1268 780 l 1,20,-1
 1791 780 l 1,21,-1
 1766 661 l 1,22,-1
 1243 661 l 1,23,-1
 1128 119 l 1,24,-1
 1724 119 l 1,0,-1
1248 1308 m 1,25,26
 1094 1340 1094 1340 923 1340 c 0,27,28
 734 1340 734 1340 589 1243.5 c 128,-1,29
 444 1147 444 1147 362.5 973 c 128,-1,30
 281 799 281 799 281 590 c 0,31,32
 281 361 281 361 399.5 227.5 c 128,-1,33
 518 94 518 94 730 94 c 0,34,35
 881 94 881 94 999 131 c 1,36,-1
 1248 1308 l 1,25,26
EndSplineSet
Substitution2: "SegoeUI-SemilightItalic-'c2sc' Capitals to Small Capitals lookup 13 subtable" OE.c2sc
Position2: "SegoeUI-SemilightItalic-'cpsp' Capital Spacing lookup 12 subtable" dx=36 dy=0 dh=72 dv=0
EndChar

StartChar: oe
Encoding: 339 339 276
Width: 1739
GlyphClass: 2
Flags: W
AnchorPoint: "Anchor-15" 180 2100 basechar 0
AnchorPoint: "Anchor-14" 1923 2100 basechar 0
AnchorPoint: "Anchor-11" 1270 0 basechar 0
AnchorPoint: "Anchor-8" 1556 -420 basechar 0
AnchorPoint: "Anchor-7" 1886 1900 basechar 0
AnchorPoint: "Anchor-5" 1710 910 basechar 0
AnchorPoint: "Anchor-2" 800 -25 basechar 0
AnchorPoint: "Anchor-1" 1800 1200 basechar 0
AnchorPoint: "Anchor-0" 1070 1300 basechar 0
LayerCount: 2
Fore
SplineSet
875 244 m 1,0,1
 803 116 803 116 693.5 45.5 c 128,-1,2
 584 -25 584 -25 449 -25 c 0,3,4
 278 -25 278 -25 179 80.5 c 128,-1,5
 80 186 80 186 80 375 c 0,6,7
 80 561 80 561 150.5 716.5 c 128,-1,8
 221 872 221 872 348.5 960.5 c 128,-1,9
 476 1049 476 1049 629 1049 c 0,10,11
 757 1049 757 1049 844.5 979 c 128,-1,12
 932 909 932 909 959 783 c 1,13,-1
 964 783 l 1,14,15
 1039 911 1039 911 1149.5 980 c 128,-1,16
 1260 1049 1260 1049 1392 1049 c 0,17,18
 1531 1049 1531 1049 1615.5 979.5 c 128,-1,19
 1700 910 1700 910 1700 790 c 0,20,21
 1700 616 1700 616 1527.5 531.5 c 128,-1,22
 1355 447 1355 447 974 441 c 1,23,-1
 972 386 l 1,24,25
 972 245 972 245 1047.5 165 c 128,-1,26
 1123 85 1123 85 1258 85 c 0,27,28
 1396 85 1396 85 1553 177 c 1,29,-1
 1529 51 l 1,30,31
 1394 -25 1394 -25 1240 -25 c 0,32,33
 1094 -25 1094 -25 1002.5 43.5 c 128,-1,34
 911 112 911 112 879 244 c 1,35,-1
 875 244 l 1,0,1
990 549 m 1,36,37
 1288 549 1288 549 1429 606 c 128,-1,38
 1570 663 1570 663 1570 783 c 0,39,40
 1570 861 1570 861 1519 900 c 128,-1,41
 1468 939 1468 939 1378 939 c 0,42,43
 1240 939 1240 939 1133 832 c 128,-1,44
 1026 725 1026 725 990 549 c 1,36,37
458 85 m 0,45,46
 571 85 571 85 665.5 159 c 128,-1,47
 760 233 760 233 812.5 361 c 128,-1,48
 865 489 865 489 865 641 c 0,49,50
 865 786 865 786 800.5 862.5 c 128,-1,51
 736 939 736 939 619 939 c 0,52,53
 448 939 448 939 328.5 778.5 c 128,-1,54
 209 618 209 618 209 383 c 0,55,56
 209 243 209 243 276 164 c 128,-1,57
 343 85 343 85 458 85 c 0,45,46
EndSplineSet
Substitution2: "SegoeUI-SemilightItalic-'smcp' Lowercase to Small Capitals lookup 14 subtable" OE.c2sc
EndChar

StartChar: endash
Encoding: 8211 8211 277
Width: 1024
GlyphClass: 2
Flags: W
LayerCount: 2
Fore
SplineSet
28 640 m 1,0,-1
 1052 640 l 1,1,-1
 1030 532 l 1,2,-1
 6 532 l 1,3,-1
 28 640 l 1,0,-1
EndSplineSet
Position2: "SegoeUI-SemilightItalic-'case' Case-Sensitive Forms lookup 15 subtable" dx=23 dy=110 dh=0 dv=0
EndChar

StartChar: emdash
Encoding: 8212 8212 278
Width: 2048
GlyphClass: 2
Flags: W
LayerCount: 2
Fore
SplineSet
28 640 m 1,0,-1
 2076 640 l 1,1,-1
 2054 532 l 1,2,-1
 6 532 l 1,3,-1
 28 640 l 1,0,-1
EndSplineSet
Position2: "SegoeUI-SemilightItalic-'case' Case-Sensitive Forms lookup 15 subtable" dx=23 dy=110 dh=0 dv=0
EndChar

StartChar: quotedblleft
Encoding: 8220 8220 279
Width: 710
GlyphClass: 2
Flags: W
LayerCount: 2
Fore
SplineSet
686 1434 m 1,0,-1
 779 1434 l 1,1,-1
 632 986 l 1,2,-1
 506 986 l 1,3,-1
 686 1434 l 1,0,-1
396 1434 m 1,4,-1
 492 1434 l 1,5,-1
 345 986 l 1,6,-1
 219 986 l 1,7,-1
 396 1434 l 1,4,-1
EndSplineSet
Substitution2: "SegoeUI-SemilightItalic-'ss19' Style Set 19 lookup 6 subtable" quotedblleft.ss19
EndChar

StartChar: quotedblright
Encoding: 8221 8221 280
Width: 710
GlyphClass: 2
Flags: W
LayerCount: 2
Fore
SplineSet
658 1434 m 1,0,-1
 783 1434 l 1,1,-1
 605 986 l 1,2,-1
 510 986 l 1,3,-1
 658 1434 l 1,0,-1
372 1434 m 1,4,-1
 495 1434 l 1,5,-1
 316 986 l 1,6,-1
 223 986 l 1,7,-1
 372 1434 l 1,4,-1
EndSplineSet
Substitution2: "SegoeUI-SemilightItalic-'ss19' Style Set 19 lookup 6 subtable" quotedblright.ss19
EndChar

StartChar: quoteleft
Encoding: 8216 8216 281
Width: 422
GlyphClass: 2
Flags: W
LayerCount: 2
Fore
SplineSet
396 1434 m 1,0,-1
 492 1434 l 1,1,-1
 345 986 l 1,2,-1
 219 986 l 1,3,-1
 396 1434 l 1,0,-1
EndSplineSet
Substitution2: "SegoeUI-SemilightItalic-'ss19' Style Set 19 lookup 6 subtable" quoteleft.ss19
EndChar

StartChar: quoteright
Encoding: 8217 8217 282
Width: 422
GlyphClass: 2
Flags: W
LayerCount: 2
Fore
SplineSet
372 1434 m 1,0,-1
 495 1434 l 1,1,-1
 316 986 l 1,2,-1
 223 986 l 1,3,-1
 372 1434 l 1,0,-1
EndSplineSet
Substitution2: "SegoeUI-SemilightItalic-'ss19' Style Set 19 lookup 6 subtable" quoteright.ss19
EndChar

StartChar: divide
Encoding: 247 247 283
Width: 1364
GlyphClass: 2
Flags: W
LayerCount: 2
Fore
SplineSet
709 867 m 0,0,1
 671 867 671 867 645 893 c 128,-1,2
 619 919 619 919 619 957 c 256,3,4
 619 995 619 995 644.5 1021.5 c 128,-1,5
 670 1048 670 1048 709 1048 c 0,6,7
 751 1048 751 1048 775.5 1024 c 128,-1,8
 800 1000 800 1000 800 958 c 0,9,10
 800 919 800 919 773 893 c 128,-1,11
 746 867 746 867 709 867 c 0,0,1
244 651 m 1,12,-1
 1166 651 l 1,13,-1
 1166 543 l 1,14,-1
 244 543 l 1,15,-1
 244 651 l 1,12,-1
616 235 m 256,16,17
 616 273 616 273 642 300 c 128,-1,18
 668 327 668 327 707 327 c 0,19,20
 748 327 748 327 772.5 302.5 c 128,-1,21
 797 278 797 278 797 236 c 0,22,23
 797 197 797 197 770.5 171.5 c 128,-1,24
 744 146 744 146 707 146 c 0,25,26
 669 146 669 146 642.5 171.5 c 128,-1,27
 616 197 616 197 616 235 c 256,16,17
EndSplineSet
EndChar

StartChar: lozenge
Encoding: 9674 9674 284
Width: 1162
GlyphClass: 2
Flags: W
LayerCount: 2
Fore
SplineSet
134 715 m 1,0,-1
 579 1434 l 1,1,-1
 646 1434 l 1,2,-1
 1093 717 l 1,3,-1
 646 0 l 1,4,-1
 579 0 l 1,5,-1
 134 715 l 1,0,-1
980 717 m 1,6,-1
 613 1315 l 1,7,-1
 247 717 l 1,8,-1
 613 116 l 1,9,-1
 980 717 l 1,6,-1
EndSplineSet
EndChar

StartChar: fraction
Encoding: 8260 8260 287
AltUni2: 002215.ffffffff.0 002215.ffffffff.0
Width: 272
GlyphClass: 2
Flags: W
LayerCount: 2
Fore
SplineSet
686 1434 m 1,0,-1
 811 1434 l 1,1,-1
 -350 0 l 1,2,-1
 -477 0 l 1,3,-1
 686 1434 l 1,0,-1
EndSplineSet
EndChar

StartChar: Euro
Encoding: 8364 8364 288
Width: 1078
GlyphClass: 2
Flags: W
LayerCount: 2
Fore
SplineSet
81 590 m 1,0,-1
 224 590 l 1,1,2
 228 713 228 713 250 815 c 1,3,-1
 129 815 l 1,4,-1
 149 911 l 1,5,-1
 275 911 l 1,6,7
 355 1173 355 1173 532 1315.5 c 128,-1,8
 709 1458 709 1458 949 1458 c 0,9,10
 1074 1458 1074 1458 1204 1401 c 1,11,-1
 1179 1270 l 1,12,13
 1063 1344 1063 1344 937 1344 c 0,14,15
 749 1344 749 1344 612 1231 c 128,-1,16
 475 1118 475 1118 408 911 c 1,17,-1
 978 911 l 1,18,-1
 957 815 l 1,19,-1
 382 815 l 1,20,21
 360 721 360 721 356 590 c 1,22,-1
 909 590 l 1,23,-1
 889 493 l 1,24,-1
 358 493 l 1,25,26
 386 90 386 90 709 90 c 0,27,28
 820 90 820 90 962 161 c 1,29,-1
 943 33 l 1,30,31
 872 2 872 2 816 -12 c 128,-1,32
 760 -26 760 -26 685 -26 c 0,33,34
 481 -26 481 -26 359 110 c 128,-1,35
 237 246 237 246 224 493 c 1,36,-1
 59 493 l 1,37,-1
 81 590 l 1,0,-1
EndSplineSet
EndChar

StartChar: guilsinglleft
Encoding: 8249 8249 289
Width: 637
GlyphClass: 2
Flags: W
LayerCount: 2
Fore
SplineSet
96 538 m 1,0,-1
 452 882 l 1,1,-1
 598 882 l 1,2,-1
 229 528 l 1,3,-1
 441 202 l 1,4,-1
 312 202 l 1,5,-1
 96 538 l 1,0,-1
EndSplineSet
Position2: "SegoeUI-SemilightItalic-'case' Case-Sensitive Forms lookup 15 subtable" dx=23 dy=110 dh=0 dv=0
EndChar

StartChar: guilsinglright
Encoding: 8250 8250 290
Width: 637
GlyphClass: 2
Flags: W
LayerCount: 2
Fore
SplineSet
408 555 m 1,0,-1
 196 882 l 1,1,-1
 325 882 l 1,2,-1
 541 546 l 1,3,-1
 186 202 l 1,4,-1
 39 202 l 1,5,-1
 408 555 l 1,0,-1
EndSplineSet
Position2: "SegoeUI-SemilightItalic-'case' Case-Sensitive Forms lookup 15 subtable" dx=23 dy=110 dh=0 dv=0
EndChar

StartChar: daggerdbl
Encoding: 8225 8225 293
Width: 767
GlyphClass: 2
Flags: W
LayerCount: 2
Fore
SplineSet
352 565 m 1,0,-1
 73 556 l 1,1,-1
 97 671 l 1,2,-1
 354 657 l 1,3,-1
 419 837 l 1,4,-1
 430 1018 l 1,5,-1
 167 1004 l 1,6,-1
 192 1119 l 1,7,-1
 469 1110 l 1,8,-1
 516 1425 l 1,9,-1
 638 1425 l 1,10,-1
 553 1110 l 1,11,-1
 834 1119 l 1,12,-1
 809 1004 l 1,13,-1
 552 1018 l 1,14,-1
 487 837 l 1,15,-1
 476 657 l 1,16,-1
 738 671 l 1,17,-1
 714 556 l 1,18,-1
 437 565 l 1,19,-1
 388 244 l 1,20,-1
 267 244 l 1,21,-1
 352 565 l 1,0,-1
EndSplineSet
EndChar

StartChar: periodcentered
Encoding: 183 183 294
Width: 455
GlyphClass: 2
Flags: W
LayerCount: 2
Fore
SplineSet
270 573 m 256,0,1
 230 573 230 573 203.5 601 c 128,-1,2
 177 629 177 629 177 669 c 256,3,4
 177 709 177 709 203.5 735.5 c 128,-1,5
 230 762 230 762 270 762 c 256,6,7
 310 762 310 762 338 735.5 c 128,-1,8
 366 709 366 709 366 669 c 256,9,10
 366 629 366 629 338 601 c 128,-1,11
 310 573 310 573 270 573 c 256,0,1
EndSplineSet
EndChar

StartChar: quotesinglbase
Encoding: 8218 8218 295
Width: 422
GlyphClass: 2
Flags: W
LayerCount: 2
Fore
SplineSet
114 219 m 1,0,-1
 237 219 l 1,1,-1
 58 -225 l 1,2,-1
 -35 -225 l 1,3,-1
 114 219 l 1,0,-1
EndSplineSet
Substitution2: "SegoeUI-SemilightItalic-'ss19' Style Set 19 lookup 6 subtable" quotesinglbase.ss19
EndChar

StartChar: quotedblbase
Encoding: 8222 8222 296
Width: 710
GlyphClass: 2
Flags: W
LayerCount: 2
Fore
SplineSet
400 218 m 1,0,-1
 525 218 l 1,1,-1
 347 -229 l 1,2,-1
 252 -229 l 1,3,-1
 400 218 l 1,0,-1
114 218 m 1,4,-1
 237 218 l 1,5,-1
 58 -229 l 1,6,-1
 -35 -229 l 1,7,-1
 114 218 l 1,4,-1
EndSplineSet
Substitution2: "SegoeUI-SemilightItalic-'ss19' Style Set 19 lookup 6 subtable" quotedblbase.ss19
EndChar

StartChar: perthousand
Encoding: 8240 8240 297
Width: 2437
GlyphClass: 2
Flags: W
LayerCount: 2
Fore
SplineSet
1968 -20 m 0,0,1
 1838 -20 1838 -20 1765 58 c 128,-1,2
 1692 136 1692 136 1692 265 c 0,3,4
 1692 386 1692 386 1742.5 490 c 128,-1,5
 1793 594 1793 594 1883.5 655 c 128,-1,6
 1974 716 1974 716 2079 716 c 0,7,8
 2204 716 2204 716 2276 639 c 128,-1,9
 2348 562 2348 562 2348 431 c 0,10,11
 2348 242 2348 242 2239.5 111 c 128,-1,12
 2131 -20 2131 -20 1968 -20 c 0,0,1
1188 -20 m 0,13,14
 1060 -20 1060 -20 986 58 c 128,-1,15
 912 136 912 136 912 265 c 0,16,17
 912 385 912 385 963.5 490 c 128,-1,18
 1015 595 1015 595 1104.5 655.5 c 128,-1,19
 1194 716 1194 716 1300 716 c 0,20,21
 1425 716 1425 716 1497 639 c 128,-1,22
 1569 562 1569 562 1569 431 c 0,23,24
 1569 242 1569 242 1459.5 111 c 128,-1,25
 1350 -20 1350 -20 1188 -20 c 0,13,14
1406 1434 m 1,26,-1
 1532 1434 l 1,27,-1
 336 0 l 1,28,-1
 209 0 l 1,29,-1
 1406 1434 l 1,26,-1
437 718 m 0,30,31
 309 718 309 718 235 795.5 c 128,-1,32
 161 873 161 873 161 1004 c 0,33,34
 161 1124 161 1124 212.5 1229 c 128,-1,35
 264 1334 264 1334 353.5 1394 c 128,-1,36
 443 1454 443 1454 549 1454 c 0,37,38
 671 1454 671 1454 744.5 1378.5 c 128,-1,39
 818 1303 818 1303 818 1170 c 0,40,41
 818 1048 818 1048 769 944 c 128,-1,42
 720 840 720 840 631.5 779 c 128,-1,43
 543 718 543 718 437 718 c 0,30,31
1973 73 m 0,44,45
 2087 73 2087 73 2162.5 176.5 c 128,-1,46
 2238 280 2238 280 2238 425 c 0,47,48
 2238 518 2238 518 2194.5 569.5 c 128,-1,49
 2151 621 2151 621 2073 621 c 0,50,51
 1959 621 1959 621 1881.5 516.5 c 128,-1,52
 1804 412 1804 412 1804 268 c 0,53,54
 1804 177 1804 177 1848.5 125 c 128,-1,55
 1893 73 1893 73 1973 73 c 0,44,45
1193 73 m 0,56,57
 1307 73 1307 73 1382.5 176.5 c 128,-1,58
 1458 280 1458 280 1458 425 c 0,59,60
 1458 518 1458 518 1415 569.5 c 128,-1,61
 1372 621 1372 621 1294 621 c 0,62,63
 1181 621 1181 621 1103 517 c 128,-1,64
 1025 413 1025 413 1025 268 c 0,65,66
 1025 177 1025 177 1069.5 125 c 128,-1,67
 1114 73 1114 73 1193 73 c 0,56,57
442 812 m 0,68,69
 555 812 555 812 631 914 c 128,-1,70
 707 1016 707 1016 707 1163 c 0,71,72
 707 1257 707 1257 663.5 1308.5 c 128,-1,73
 620 1360 620 1360 542 1360 c 0,74,75
 429 1360 429 1360 351 1256 c 128,-1,76
 273 1152 273 1152 273 1007 c 0,77,78
 273 916 273 916 318 864 c 128,-1,79
 363 812 363 812 442 812 c 0,68,69
EndSplineSet
EndChar

StartChar: dotlessi
Encoding: 305 305 313
Width: 475
GlyphClass: 2
Flags: W
AnchorPoint: "Anchor-15" 180 2100 basechar 0
AnchorPoint: "Anchor-14" 710 2100 basechar 0
AnchorPoint: "Anchor-11" 180 0 basechar 0
AnchorPoint: "Anchor-8" 292 -420 basechar 0
AnchorPoint: "Anchor-7" 622 1900 basechar 0
AnchorPoint: "Anchor-5" 410 1030 basechar 0
AnchorPoint: "Anchor-2" 160 -15 basechar 0
AnchorPoint: "Anchor-1" 550 1104 basechar 0
AnchorPoint: "Anchor-0" 370 1184 basechar 0
LayerCount: 2
Fore
SplineSet
265 1024 m 1,0,-1
 392 1024 l 1,1,-1
 239 303 l 2,2,3
 219 201 219 201 219 162 c 0,4,5
 219 91 219 91 296 91 c 0,6,7
 342 91 342 91 379 105 c 1,8,-1
 358 3 l 1,9,10
 308 -17 308 -17 251 -17 c 0,11,12
 173 -17 173 -17 131.5 23.5 c 128,-1,13
 90 64 90 64 90 142 c 0,14,15
 90 204 90 204 113 307 c 2,16,-1
 265 1024 l 1,0,-1
EndSplineSet
Substitution2: "SegoeUI-SemilightItalic-'smcp' Lowercase to Small Capitals lookup 14 subtable" I.c2sc
EndChar

StartChar: circumflex
Encoding: 710 710 314
Width: 661
GlyphClass: 2
Flags: W
LayerCount: 2
Fore
SplineSet
493 1536 m 1,0,-1
 579 1536 l 1,1,-1
 730 1202 l 1,2,-1
 635 1202 l 1,3,-1
 522 1441 l 1,4,-1
 313 1202 l 1,5,-1
 211 1202 l 1,6,-1
 493 1536 l 1,0,-1
EndSplineSet
EndChar

StartChar: tilde
Encoding: 732 732 315
Width: 661
GlyphClass: 2
Flags: W
LayerCount: 2
Fore
SplineSet
161 1202 m 1,0,1
 175 1307 175 1307 233 1365 c 128,-1,2
 291 1423 291 1423 381 1423 c 0,3,4
 424 1423 424 1423 454 1405 c 128,-1,5
 484 1387 484 1387 509.5 1365.5 c 128,-1,6
 535 1344 535 1344 561 1326 c 128,-1,7
 587 1308 587 1308 622 1308 c 0,8,9
 667 1308 667 1308 699 1342.5 c 128,-1,10
 731 1377 731 1377 742 1439 c 1,11,-1
 826 1439 l 1,12,13
 810 1336 810 1336 753.5 1277 c 128,-1,14
 697 1218 697 1218 611 1218 c 0,15,16
 564 1218 564 1218 533.5 1235.5 c 128,-1,17
 503 1253 503 1253 477.5 1274.5 c 128,-1,18
 452 1296 452 1296 427 1313.5 c 128,-1,19
 402 1331 402 1331 368 1331 c 0,20,21
 267 1331 267 1331 244 1202 c 1,22,-1
 161 1202 l 1,0,1
EndSplineSet
EndChar

StartChar: uni02C9
Encoding: 713 713 316
Width: 672
GlyphClass: 2
Flags: W
LayerCount: 2
Fore
SplineSet
160 1308 m 1,0,-1
 668 1308 l 1,1,-1
 651 1213 l 1,2,-1
 143 1213 l 1,3,-1
 160 1308 l 1,0,-1
EndSplineSet
EndChar

StartChar: breve
Encoding: 728 728 317
Width: 661
GlyphClass: 2
Flags: W
LayerCount: 2
Fore
SplineSet
335 1446 m 1,0,-1
 333 1423 l 1,1,2
 333 1358 333 1358 373.5 1323.5 c 128,-1,3
 414 1289 414 1289 482 1289 c 0,4,5
 561 1289 561 1289 611 1325.5 c 128,-1,6
 661 1362 661 1362 690 1446 c 1,7,-1
 788 1446 l 1,8,9
 752 1327 752 1327 672.5 1264.5 c 128,-1,10
 593 1202 593 1202 478 1202 c 0,11,12
 369 1202 369 1202 304 1258.5 c 128,-1,13
 239 1315 239 1315 239 1413 c 1,14,-1
 242 1446 l 1,15,-1
 335 1446 l 1,0,-1
EndSplineSet
EndChar

StartChar: dotaccent
Encoding: 729 729 318
Width: 661
GlyphClass: 2
Flags: W
LayerCount: 2
Fore
SplineSet
486 1202 m 256,0,1
 449 1202 449 1202 424 1228 c 128,-1,2
 399 1254 399 1254 399 1290 c 0,3,4
 399 1328 399 1328 425 1351 c 128,-1,5
 451 1374 451 1374 485 1374 c 0,6,7
 520 1374 520 1374 546.5 1351 c 128,-1,8
 573 1328 573 1328 573 1290 c 0,9,10
 573 1253 573 1253 548 1227.5 c 128,-1,11
 523 1202 523 1202 486 1202 c 256,0,1
EndSplineSet
EndChar

StartChar: ring
Encoding: 730 730 319
Width: 661
GlyphClass: 2
Flags: W
LayerCount: 2
Fore
SplineSet
305 1369 m 0,0,1
 305 1453 305 1453 363 1506.5 c 128,-1,2
 421 1560 421 1560 510 1560 c 256,3,4
 599 1560 599 1560 654.5 1507 c 128,-1,5
 710 1454 710 1454 710 1373 c 256,6,7
 710 1292 710 1292 651.5 1237 c 128,-1,8
 593 1182 593 1182 507 1182 c 0,9,10
 419 1182 419 1182 362 1234.5 c 128,-1,11
 305 1287 305 1287 305 1369 c 0,0,1
507 1256 m 0,12,13
 560 1256 560 1256 594.5 1289 c 128,-1,14
 629 1322 629 1322 629 1372 c 0,15,16
 629 1424 629 1424 595 1455 c 128,-1,17
 561 1486 561 1486 507 1486 c 256,18,19
 453 1486 453 1486 420 1454.5 c 128,-1,20
 387 1423 387 1423 387 1372 c 0,21,22
 387 1318 387 1318 421.5 1287 c 128,-1,23
 456 1256 456 1256 507 1256 c 0,12,13
EndSplineSet
EndChar

StartChar: cedilla
Encoding: 184 184 320
Width: 661
GlyphClass: 2
Flags: W
LayerCount: 2
Fore
SplineSet
54 -346 m 1,0,1
 97 -355 97 -355 137 -355 c 0,2,3
 305 -355 305 -355 305 -263 c 0,4,5
 305 -181 305 -181 180 -181 c 1,6,-1
 121 -185 l 1,7,-1
 160 0 l 1,8,-1
 243 0 l 1,9,-1
 219 -111 l 1,10,11
 305 -111 305 -111 356 -147 c 128,-1,12
 407 -183 407 -183 407 -252 c 0,13,14
 407 -338 407 -338 337.5 -386.5 c 128,-1,15
 268 -435 268 -435 131 -435 c 0,16,17
 91 -435 91 -435 38 -427 c 1,18,-1
 54 -346 l 1,0,1
EndSplineSet
EndChar

StartChar: hungarumlaut
Encoding: 733 733 321
Width: 661
GlyphClass: 2
Flags: W
LayerCount: 2
Fore
SplineSet
699 1523 m 1,0,-1
 824 1523 l 1,1,-1
 558 1202 l 1,2,-1
 472 1202 l 1,3,-1
 699 1523 l 1,0,-1
463 1523 m 1,4,-1
 585 1523 l 1,5,-1
 321 1202 l 1,6,-1
 234 1202 l 1,7,-1
 463 1523 l 1,4,-1
EndSplineSet
EndChar

StartChar: ogonek
Encoding: 731 731 322
Width: 661
GlyphClass: 2
Flags: W
LayerCount: 2
Fore
SplineSet
184 -413 m 0,0,1
 109 -413 109 -413 67.5 -372 c 128,-1,2
 26 -331 26 -331 26 -259 c 0,3,4
 26 -133 26 -133 209 0 c 1,5,-1
 303 0 l 1,6,7
 208 -81 208 -81 166.5 -138 c 128,-1,8
 125 -195 125 -195 125 -245 c 0,9,10
 125 -329 125 -329 207 -329 c 0,11,12
 242 -329 242 -329 292 -308 c 1,13,-1
 285 -393 l 1,14,15
 236 -413 236 -413 184 -413 c 0,0,1
EndSplineSet
EndChar

StartChar: caron
Encoding: 711 711 323
Width: 661
GlyphClass: 2
Flags: W
LayerCount: 2
Fore
SplineSet
279 1536 m 1,0,-1
 373 1536 l 1,1,-1
 487 1297 l 1,2,-1
 697 1536 l 1,3,-1
 798 1536 l 1,4,-1
 517 1202 l 1,5,-1
 430 1202 l 1,6,-1
 279 1536 l 1,0,-1
EndSplineSet
EndChar

StartChar: Lslash
Encoding: 321 321 324
Width: 905
GlyphClass: 2
Flags: W
AnchorPoint: "Anchor-15" 180 2100 basechar 0
AnchorPoint: "Anchor-14" 1128 2100 basechar 0
AnchorPoint: "Anchor-11" 580 0 basechar 0
AnchorPoint: "Anchor-8" 700 -420 basechar 0
AnchorPoint: "Anchor-7" 1030 1900 basechar 0
AnchorPoint: "Anchor-2" 440 -15 basechar 0
AnchorPoint: "Anchor-1" 1080 1500 basechar 0
AnchorPoint: "Anchor-0" 770 1600 basechar 0
LayerCount: 2
Fore
SplineSet
197 577 m 1,0,-1
 53 504 l 1,1,-1
 79 635 l 1,2,-1
 225 710 l 1,3,-1
 378 1434 l 1,4,-1
 511 1434 l 1,5,-1
 374 785 l 1,6,-1
 705 964 l 1,7,-1
 679 834 l 1,8,-1
 345 652 l 1,9,-1
 233 120 l 1,10,-1
 806 120 l 1,11,-1
 781 0 l 1,12,-1
 75 0 l 1,13,-1
 197 577 l 1,0,-1
EndSplineSet
Substitution2: "SegoeUI-SemilightItalic-'c2sc' Capitals to Small Capitals lookup 13 subtable" Lslash.c2sc
Position2: "SegoeUI-SemilightItalic-'cpsp' Capital Spacing lookup 12 subtable" dx=36 dy=0 dh=72 dv=0
EndChar

StartChar: lslash
Encoding: 322 322 325
Width: 475
GlyphClass: 2
Flags: W
AnchorPoint: "Anchor-15" 180 2100 basechar 0
AnchorPoint: "Anchor-14" 743 2100 basechar 0
AnchorPoint: "Anchor-11" 200 0 basechar 0
AnchorPoint: "Anchor-8" 468 -420 basechar 0
AnchorPoint: "Anchor-7" 798 1900 basechar 0
AnchorPoint: "Anchor-2" 160 -15 basechar 0
AnchorPoint: "Anchor-1" 600 1600 basechar 0
AnchorPoint: "Anchor-0" 530 1650 basechar 0
LayerCount: 2
Fore
SplineSet
185 633 m 1,0,-1
 5 523 l 1,1,-1
 32 653 l 1,2,-1
 212 761 l 1,3,-1
 372 1516 l 1,4,-1
 499 1516 l 1,5,-1
 356 846 l 1,6,-1
 541 958 l 1,7,-1
 513 829 l 1,8,-1
 329 718 l 1,9,-1
 242 303 l 2,10,11
 221 207 221 207 221 162 c 0,12,13
 221 91 221 91 298 91 c 0,14,15
 344 91 344 91 382 105 c 1,16,-1
 360 3 l 1,17,18
 310 -17 310 -17 253 -17 c 0,19,20
 175 -17 175 -17 133.5 23.5 c 128,-1,21
 92 64 92 64 92 142 c 0,22,23
 92 178 92 178 100.5 229 c 128,-1,24
 109 280 109 280 185 633 c 1,0,-1
EndSplineSet
Substitution2: "SegoeUI-SemilightItalic-'smcp' Lowercase to Small Capitals lookup 14 subtable" Lslash.c2sc
EndChar

StartChar: brokenbar
Encoding: 166 166 330
Width: 476
GlyphClass: 2
Flags: W
LayerCount: 2
Fore
SplineSet
179 1567 m 1,0,-1
 297 1567 l 1,1,-1
 297 715 l 1,2,-1
 179 715 l 1,3,-1
 179 1567 l 1,0,-1
179 371 m 1,4,-1
 297 371 l 1,5,-1
 297 -481 l 1,6,-1
 179 -481 l 1,7,-1
 179 371 l 1,4,-1
EndSplineSet
EndChar

